{
.appVersion = "1227";
DisplayStrings = (
"URY¥/Placeholder 0/Placeholder 0"
);
classes = (
{
automatic = 1;

glyphs = (
{
color = 4;
glyphname = A;
lastChange = "2019-04-14 21:08:23 +0000";
layers = (
{
anchors = (
{
name = bottom;
position = "{353, 0}";
},
{
name = ogonek;
position = "{676, 0}";
},
{
name = top;
position = "{353, 710}";
}
);
background = {
anchors = (
{
name = bottom;
position = "{353, 0}";
},
{
name = ogonek;
position = "{676, 0}";
},
{
name = top;
position = "{353, 710}";
}
);
paths = (
{
closed = 1;
nodes = (
"109 0 LINE",
"370 644 LINE",
"342 644 LINE",
"592 0 LINE",
"676 0 LINE",
"392 710 LINE",
"321 710 LINE",
"25 0 LINE"
);
},
{
closed = 1;
nodes = (
"554 188 LINE",
"526 257 LINE",
"181 257 LINE",
"155 188 LINE"
);
}
);
};
layerId = "A3B50665-EA37-4AC6-885C-1233CA61B6BD";
paths = (
{
closed = 1;
nodes = (
"109 0 LINE",
"370 644 LINE",
"342 644 LINE",
"592 0 LINE",
"676 0 LINE",
"392 710 LINE",
"321 710 LINE",
"25 0 LINE"
);
},
{
closed = 1;
nodes = (
"554 187 LINE",
"526 257 LINE",
"181 257 LINE",
"155 187 LINE"
);
}
);
width = 705;
},
{
anchors = (
{
name = bottom;
position = "{369, 0}";
},
{
name = ogonek;
position = "{733, 0}";
},
{
name = top;
position = "{369, 710}";
}
);
background = {
anchors = (
{
name = bottom;
position = "{369, 0}";
},
{
name = ogonek;
position = "{733, 0}";
},
{
name = top;
position = "{369, 710}";
}
);
paths = (
{
closed = 1;
nodes = (
"159 0 LINE",
"399 589 LINE",
"343 591 LINE",
"576 0 LINE",
"733 0 LINE",
"438 710 LINE",
"307 710 LINE",
"0 0 LINE"
);
},
{
closed = 1;
nodes = (
"585 149 LINE",
"524 279 LINE",
"223 279 LINE",
"160 149 LINE"
);
}
);
};
layerId = "014D4A40-7C7F-4023-B30E-1F55CE5EA091";
paths = (
{
closed = 1;
nodes = (
"158 0 LINE",
"399 589 LINE",
"342 591 LINE",
"575 0 LINE",
"733 0 LINE",
"438 710 LINE",
"307 710 LINE",
"0 0 LINE"
);
},
{
closed = 1;
nodes = (
"585 149 LINE",
"524 279 LINE",
"223 279 LINE",
"160 149 LINE"
);
}
);
width = 737;
}
);
leftKerningGroup = A;
rightKerningGroup = A;
unicode = 0041;
},
{
color = 4;
glyphname = AE;
lastChange = "2019-04-14 21:14:52 +0000";
layers = (
{
anchors = (
{
name = bottom;
position = "{502, 0}";
},
{
name = top;
position = "{502, 710}";
}
);
background = {
anchors = (
{
name = bottom;
position = "{502, 0}";
},
{
name = top;
position = "{502, 710}";
}
);
paths = (
{
closed = 1;
nodes = (
"109 0 LINE",
"380 669 LINE",
"349 640 LINE",
"491 640 LINE",
"491 710 LINE",
"321 710 LINE",
"25 0 LINE"
);
},
{
closed = 1;
nodes = (
"491 188 LINE",
"491 257 LINE",
"171 257 LINE",
"155 188 LINE"
);
},
{
closed = 1;
nodes = (
"867 710 LINE",
"461 710 LINE",
"461 0 LINE",
"874 0 LINE",
"884 71 LINE",
"542 71 LINE",
"542 325 LINE",
"857 325 LINE",
"857 395 LINE",
"542 395 LINE",
"542 640 LINE",
"867 640 LINE"
);
}
);
};
layerId = "A3B50665-EA37-4AC6-885C-1233CA61B6BD";
paths = (
{
closed = 1;
nodes = (
"109 0 LINE",
"380 669 LINE",
"349 639 LINE",
"491 639 LINE",
"491 710 LINE",
"321 710 LINE",
"25 0 LINE"
);
},
{
closed = 1;
nodes = (
"491 187 LINE",
"491 257 LINE",
"181 257 LINE",
"155 187 LINE"
);
},
{
closed = 1;
nodes = (
"867 710 LINE",
"461 710 LINE",
"461 0 LINE",
"874 0 LINE",
"881 71 LINE",
"542 71 LINE",
"542 325 LINE",
"857 325 LINE",
"857 396 LINE",
"542 396 LINE",
"542 639 LINE",
"867 639 LINE"
);
}
);
width = 923;
},
{
anchors = (
{
name = bottom;
position = "{543, 0}";
},
{
name = top;
position = "{543, 710}";
}
);
background = {
anchors = (
{
name = bottom;
position = "{543, 0}";
},
{
name = top;
position = "{543, 710}";
}
);
paths = (
{
closed = 1;
nodes = (
"159 0 LINE",
"407 609 LINE",
"361 576 LINE",
"508 576 LINE",
"508 710 LINE",
"307 710 LINE",
"0 0 LINE"
);
},
{
closed = 1;
nodes = (
"508 147 LINE",
"508 281 LINE",
"223 281 LINE",
"160 147 LINE"
);
},
{
closed = 1;
nodes = (
"936 710 LINE",
"466 710 LINE",
"466 0 LINE",
"936 0 LINE",
"946 135 LINE",
"620 135 LINE",
"620 291 LINE",
"916 291 LINE",
"916 425 LINE",
"620 425 LINE",
"620 576 LINE",
"936 576 LINE"
);
}
);
};
layerId = "014D4A40-7C7F-4023-B30E-1F55CE5EA091";
paths = (
{
closed = 1;
nodes = (
"159 0 LINE",
"407 609 LINE",
"361 576 LINE",
"508 576 LINE",
"508 710 LINE",
"307 710 LINE",
"0 0 LINE"
);
},
{
closed = 1;
nodes = (
"508 147 LINE",
"508 281 LINE",
"223 281 LINE",
"160 147 LINE"
);
},
{
closed = 1;
nodes = (
"936 710 LINE",
"466 710 LINE",
"466 0 LINE",
"936 0 LINE",
"946 134 LINE",
"620 134 LINE",
"620 291 LINE",
"916 291 LINE",
"916 425 LINE",
"620 425 LINE",
"620 576 LINE",
"936 576 LINE"
);
}
);
width = 987;
}
);
leftKerningGroup = A;
leftMetricsKey = A;
rightKerningGroup = E;
rightMetricsKey = E;
unicode = 00C6;
},
{
color = 4;
glyphname = B;
lastChange = "2019-04-14 21:10:51 +0000";
layers = (
{
anchors = (
{
name = bottom;
position = "{347, 0}";
},
{
name = top;
position = "{346, 712}";
}
);
background = {
anchors = (
{
name = bottom;
position = "{347, 0}";
},
{
name = top;
position = "{346, 712}";
}
);
paths = (
{
closed = 1;
nodes = (
"339 0 LINE SMOOTH",
"486 0 OFFCURVE",
"577 69 OFFCURVE",
"577 196 CURVE SMOOTH",
"577 281 OFFCURVE",
"518 349 OFFCURVE",
"427 367 CURVE",
"427 353 LINE",
"519 374 OFFCURVE",
"569 439 OFFCURVE",
"569 521 CURVE SMOOTH",
"569 643 OFFCURVE",
"473 710 OFFCURVE",
"276 710 CURVE SMOOTH",
"94 710 LINE",
"94 0 LINE"
);
},
{
closed = 1;
nodes = (
"175 642 LINE",
"272 642 LINE SMOOTH",
"426 642 OFFCURVE",
"488 606 OFFCURVE",
"488 520 CURVE SMOOTH",
"488 432 OFFCURVE",
"425 392 OFFCURVE",
"302 392 CURVE SMOOTH",
"161 392 LINE",
"161 323 LINE",
"329 323 LINE SMOOTH",
"439 323 OFFCURVE",
"496 280 OFFCURVE",
"496 194 CURVE SMOOTH",
"496 106 OFFCURVE",
"434 69 OFFCURVE",
"337 69 CURVE SMOOTH",
"175 69 LINE"
);
}
);
};
layerId = "A3B50665-EA37-4AC6-885C-1233CA61B6BD";
paths = (
{
closed = 1;
nodes = (
"340 0 LINE SMOOTH",
"487 0 OFFCURVE",
"578 69 OFFCURVE",
"578 196 CURVE SMOOTH",
"578 281 OFFCURVE",
"519 349 OFFCURVE",
"425 367 CURVE",
"425 353 LINE",
"519 374 OFFCURVE",
"570 439 OFFCURVE",
"570 521 CURVE SMOOTH",
"570 643 OFFCURVE",
"481 710 OFFCURVE",
"284 710 CURVE SMOOTH",
"94 710 LINE",
"94 0 LINE"
);
},
{
closed = 1;
nodes = (
"175 642 LINE",
"285 642 LINE SMOOTH",
"426 642 OFFCURVE",
"488 605 OFFCURVE",
"488 520 CURVE SMOOTH",
"488 432 OFFCURVE",
"425 392 OFFCURVE",
"302 392 CURVE SMOOTH",
"161 392 LINE",
"161 323 LINE",
"329 323 LINE SMOOTH",
"439 323 OFFCURVE",
"496 280 OFFCURVE",
"496 194 CURVE SMOOTH",
"496 106 OFFCURVE",
"434 68 OFFCURVE",
"337 68 CURVE SMOOTH",
"175 68 LINE"
);
}
);
width = 639;
},
{
anchors = (
{
name = bottom;
position = "{358, 0}";
},
{
name = top;
position = "{358, 712}";
}
);
background = {
anchors = (
{
name = bottom;
position = "{358, 0}";
},
{
name = top;
position = "{358, 712}";
}
);
paths = (
{
closed = 1;
nodes = (
"368 0 LINE SMOOTH",
"526 0 OFFCURVE",
"627 84 OFFCURVE",
"627 207 CURVE SMOOTH",
"627 290 OFFCURVE",
"574 355 OFFCURVE",
"495 375 CURVE",
"495 351 LINE",
"567 377 OFFCURVE",
"614 437 OFFCURVE",
"614 513 CURVE SMOOTH",
"614 643 OFFCURVE",
"507 710 OFFCURVE",
"331 710 CURVE SMOOTH",
"76 710 LINE",
"76 0 LINE"
);
},
{
closed = 1;
nodes = (
"229 583 LINE",
"330 583 LINE SMOOTH",
"422 583 OFFCURVE",
"459 557 OFFCURVE",
"459 505 CURVE SMOOTH",
"459 446 OFFCURVE",
"417 421 OFFCURVE",
"328 421 CURVE SMOOTH",
"213 421 LINE",
"213 294 LINE",
"355 294 LINE SMOOTH",
"437 294 OFFCURVE",
"472 268 OFFCURVE",
"472 213 CURVE SMOOTH",
"472 153 OFFCURVE",
"428 128 OFFCURVE",
"355 128 CURVE SMOOTH",
"229 128 LINE"
);
}
);
};
layerId = "014D4A40-7C7F-4023-B30E-1F55CE5EA091";
paths = (
{
closed = 1;
nodes = (
"358 0 LINE SMOOTH",
"526 0 OFFCURVE",
"627 84 OFFCURVE",
"627 207 CURVE SMOOTH",
"627 290 OFFCURVE",
"574 351 OFFCURVE",
"499 371 CURVE",
"499 347 LINE",
"571 373 OFFCURVE",
"614 437 OFFCURVE",
"614 513 CURVE SMOOTH",
"614 643 OFFCURVE",
"508 710 OFFCURVE",
"338 710 CURVE SMOOTH",
"76 710 LINE",
"76 0 LINE"
);
},
{
closed = 1;
nodes = (
"229 583 LINE",
"340 583 LINE SMOOTH",
"422 583 OFFCURVE",
"459 557 OFFCURVE",
"459 505 CURVE SMOOTH",
"459 446 OFFCURVE",
"417 421 OFFCURVE",
"328 421 CURVE SMOOTH",
"213 421 LINE",
"213 294 LINE",
"355 294 LINE SMOOTH",
"437 294 OFFCURVE",
"472 268 OFFCURVE",
"472 213 CURVE SMOOTH",
"472 153 OFFCURVE",
"428 127 OFFCURVE",
"355 127 CURVE SMOOTH",
"229 127 LINE"
);
}
);
width = 670;
}
);
leftKerningGroup = H;
leftMetricsKey = H;
rightKerningGroup = B;
unicode = 0042;
},
{
color = 4;
glyphname = C;
lastChange = "2019-04-14 21:13:48 +0000";
layers = (
{
anchors = (
{
name = bottom;
position = "{393, 0}";
},
{
name = top;
position = "{393, 710}";
}
);
background = {
anchors = (
{
name = bottom;
position = "{381, 0}";
},
{
name = top;
position = "{381, 710}";
}
);
paths = (
{
closed = 1;
nodes = (
"593 184 LINE",
"552 108 OFFCURVE",
"482 70 OFFCURVE",
"390 70 CURVE SMOOTH",
"238 70 OFFCURVE",
"148 169 OFFCURVE",
"148 342 CURVE SMOOTH",
"148 521 OFFCURVE",
"254 643 OFFCURVE",
"405 643 CURVE SMOOTH",
"490 643 OFFCURVE",
"553 609 OFFCURVE",
"593 537 CURVE",
"657 585 LINE",
"605 674 OFFCURVE",
"520 720 OFFCURVE",
"409 720 CURVE SMOOTH",
"204 720 OFFCURVE",
"63 566 OFFCURVE",
"63 342 CURVE SMOOTH",
"63 124 OFFCURVE",
"187 -8 OFFCURVE",
"390 -8 CURVE SMOOTH",
"508 -8 OFFCURVE",
"604 43 OFFCURVE",
"656 136 CURVE"
);
}
);
};
guideLines = (
{
angle = 90;
position = "{750, 356}";
},
{
angle = 90;
position = "{813, 356}";
}
);
layerId = "A3B50665-EA37-4AC6-885C-1233CA61B6BD";
paths = (
{
closed = 1;
nodes = (
"593 184 LINE",
"552 108 OFFCURVE",
"482 68 OFFCURVE",
"390 68 CURVE SMOOTH",
"238 68 OFFCURVE",
"148 169 OFFCURVE",
"148 342 CURVE SMOOTH",
"148 521 OFFCURVE",
"254 644 OFFCURVE",
"405 644 CURVE SMOOTH",
"490 644 OFFCURVE",
"553 609 OFFCURVE",
"593 537 CURVE",
"657 585 LINE",
"605 674 OFFCURVE",
"519 720 OFFCURVE",
"407 720 CURVE SMOOTH",
"203 720 OFFCURVE",
"64 566 OFFCURVE",
"64 342 CURVE SMOOTH",
"64 124 OFFCURVE",
"187 -8 OFFCURVE",
"390 -8 CURVE SMOOTH",
"508 -8 OFFCURVE",
"604 43 OFFCURVE",
"656 136 CURVE"
);
}
);
width = 682;
},
{
anchors = (
{
name = bottom;
position = "{393, 0}";
},
{
name = top;
position = "{393, 710}";
}
);
background = {
paths = (
{
closed = 1;
nodes = (
"596 -8 OFFCURVE",
"743 139 OFFCURVE",
"743 369 CURVE SMOOTH",
"743 580 OFFCURVE",
"608 720 OFFCURVE",
"407 720 CURVE SMOOTH",
"180 720 OFFCURVE",
"39 564 OFFCURVE",
"39 342 CURVE SMOOTH",
"39 120 OFFCURVE",
"172 -12 OFFCURVE",
"394 -10 CURVE SMOOTH"
);
},
{
closed = 1;
nodes = (
"269 129 OFFCURVE",
"197 207 OFFCURVE",
"197 345 CURVE SMOOTH",
"197 486 OFFCURVE",
"283 582 OFFCURVE",
"403 582 CURVE SMOOTH",
"514 582 OFFCURVE",
"585 497 OFFCURVE",
"585 368 CURVE SMOOTH",
"585 217 OFFCURVE",
"504 129 OFFCURVE",
"388 129 CURVE SMOOTH"
);
}
);
};
layerId = "014D4A40-7C7F-4023-B30E-1F55CE5EA091";
paths = (
{
closed = 1;
nodes = (
"574 229 LINE",
"536 161 OFFCURVE",
"469 129 OFFCURVE",
"402 129 CURVE SMOOTH",
"273 129 OFFCURVE",
"198 208 OFFCURVE",
"198 344 CURVE SMOOTH",
"198 484 OFFCURVE",
"286 581 OFFCURVE",
"414 581 CURVE SMOOTH",
"477 581 OFFCURVE",
"538 554 OFFCURVE",
"572 491 CURVE",
"691 576 LINE",
"629 673 OFFCURVE",
"543 720 OFFCURVE",
"415 720 CURVE SMOOTH",
"192 720 OFFCURVE",
"39 566 OFFCURVE",
"39 341 CURVE SMOOTH",
"39 122 OFFCURVE",
"173 -10 OFFCURVE",
"400 -10 CURVE SMOOTH",
"525 -10 OFFCURVE",
"632 43 OFFCURVE",
"690 139 CURVE"
);
}
);
width = 704;
}
);
leftKerningGroup = O;
leftMetricsKey = O;
rightKerningGroup = C;
unicode = 0043;
},
{
color = 4;
glyphname = D;
lastChange = "2019-04-14 21:14:29 +0000";
layers = (
{
anchors = (
{
name = bottom;
position = "{377, 0}";
},
{
name = center;
position = "{377, 359}";
},
{
name = stroke;
position = "{136, 360}";
},
{
name = top;
position = "{377, 710}";
}
);
background = {
anchors = (
{
name = bottom;
position = "{377, 0}";
},
{
name = center;
position = "{377, 359}";
},
{
name = stroke;
position = "{136, 360}";
},
{
name = top;
position = "{377, 710}";
}
);
paths = (
{
closed = 1;
nodes = (
"306 0 LINE SMOOTH",
"547 0 OFFCURVE",
"689 136 OFFCURVE",
"689 359 CURVE SMOOTH",
"689 591 OFFCURVE",
"553 710 OFFCURVE",
"277 710 CURVE SMOOTH",
"94 710 LINE",
"94 0 LINE"
);
},
{
closed = 1;
nodes = (
"177 635 LINE",
"290 635 LINE SMOOTH",
"504 635 OFFCURVE",
"606 544 OFFCURVE",
"606 354 CURVE SMOOTH",
"606 170 OFFCURVE",
"503 76 OFFCURVE",
"302 76 CURVE SMOOTH",
"177 76 LINE"
);
}
);
};
layerId = "A3B50665-EA37-4AC6-885C-1233CA61B6BD";
paths = (
{
closed = 1;
nodes = (
"306 0 LINE SMOOTH",
"546 0 OFFCURVE",
"690 135 OFFCURVE",
"690 359 CURVE SMOOTH",
"690 592 OFFCURVE",
"551 710 OFFCURVE",
"277 710 CURVE SMOOTH",
"94 710 LINE",
"94 0 LINE"
);
},
{
closed = 1;
nodes = (
"177 637 LINE",
"290 637 LINE SMOOTH",
"504 637 OFFCURVE",
"606 544 OFFCURVE",
"606 354 CURVE SMOOTH",
"606 170 OFFCURVE",
"503 73 OFFCURVE",
"302 73 CURVE SMOOTH",
"177 73 LINE"
);
}
);
width = 754;
},
{
anchors = (
{
name = bottom;
position = "{383, 0}";
},
{
name = center;
position = "{383, 359}";
},
{
name = stroke;
position = "{154, 360}";
},
{
name = top;
position = "{383, 710}";
}
);
background = {
anchors = (
{
name = bottom;
position = "{383, 0}";
},
{
name = center;
position = "{383, 359}";
},
{
name = stroke;
position = "{154, 360}";
},
{
name = top;
position = "{383, 710}";
}
);
paths = (
{
closed = 1;
nodes = (
"345 0 LINE SMOOTH",
"576 0 OFFCURVE",
"726 146 OFFCURVE",
"726 357 CURVE SMOOTH",
"726 589 OFFCURVE",
"582 710 OFFCURVE",
"302 710 CURVE SMOOTH",
"76 710 LINE",
"76 0 LINE"
);
},
{
closed = 1;
nodes = (
"232 573 LINE",
"322 573 LINE SMOOTH",
"484 573 OFFCURVE",
"567 503 OFFCURVE",
"567 352 CURVE SMOOTH",
"567 210 OFFCURVE",
"485 139 OFFCURVE",
"338 139 CURVE SMOOTH",
"232 139 LINE"
);
}
);
};
layerId = "014D4A40-7C7F-4023-B30E-1F55CE5EA091";
paths = (
{
closed = 1;
nodes = (
"344 0 LINE SMOOTH",
"571 0 OFFCURVE",
"725 145 OFFCURVE",
"725 357 CURVE SMOOTH",
"725 590 OFFCURVE",
"581 710 OFFCURVE",
"302 710 CURVE SMOOTH",
"76 710 LINE",
"76 0 LINE"
);
},
{
closed = 1;
nodes = (
"232 572 LINE",
"322 572 LINE SMOOTH",
"488 572 OFFCURVE",
"567 501 OFFCURVE",
"567 352 CURVE SMOOTH",
"567 212 OFFCURVE",
"487 138 OFFCURVE",
"338 138 CURVE SMOOTH",
"232 138 LINE"
);
}
);
width = 764;
}
);
leftKerningGroup = H;
leftMetricsKey = H;
rightKerningGroup = O;
rightMetricsKey = O;
unicode = 0044;
},
{
color = 4;
glyphname = E;
lastChange = "2019-04-14 21:14:52 +0000";
layers = (
{
anchors = (
{
name = bottom;
position = "{302, 0}";
},
{
name = ogonek;
position = "{517, 0}";
},
{
name = top;
position = "{302, 710}";
},
{
name = topleft;
position = "{20, 710}";
}
);
background = {
anchors = (
{
name = bottom;
position = "{283, 0}";
},
{
name = ogonek;
position = "{517, 0}";
},
{
name = top;
position = "{283, 710}";
},
{
name = topleft;
position = "{20, 710}";
}
);
paths = (
{
closed = 1;
nodes = (
"510 710 LINE",
"94 710 LINE",
"94 0 LINE",
"517 0 LINE",
"527 71 LINE",
"175 71 LINE",
"175 325 LINE",
"500 325 LINE",
"500 395 LINE",
"175 395 LINE",
"175 640 LINE",
"510 640 LINE"
);
}
);
};
layerId = "A3B50665-EA37-4AC6-885C-1233CA61B6BD";
paths = (
{
closed = 1;
nodes = (
"510 710 LINE",
"94 710 LINE",
"94 0 LINE",
"517 0 LINE",
"524 71 LINE",
"175 71 LINE",
"175 325 LINE",
"500 325 LINE",
"500 396 LINE",
"175 396 LINE",
"175 639 LINE",
"510 639 LINE"
);
}
);
width = 566;
},
{
anchors = (
{
name = bottom;
position = "{316, 0}";
},
{
name = ogonek;
position = "{556, 0}";
},
{
name = top;
position = "{316, 710}";
},
{
name = topleft;
position = "{20, 710}";
}
);
background = {
anchors = (
{
name = bottom;
position = "{304, 0}";
},
{
name = ogonek;
position = "{556, 0}";
},
{
name = top;
position = "{304, 710}";
},
{
name = topleft;
position = "{20, 710}";
}
);
paths = (
{
closed = 1;
nodes = (
"556 710 LINE",
"76 710 LINE",
"76 0 LINE",
"556 0 LINE",
"566 135 LINE",
"230 135 LINE",
"230 291 LINE",
"536 291 LINE",
"536 425 LINE",
"230 425 LINE",
"230 576 LINE",
"556 576 LINE"
);
}
);
};
layerId = "014D4A40-7C7F-4023-B30E-1F55CE5EA091";
paths = (
{
closed = 1;
nodes = (
"556 710 LINE",
"76 710 LINE",
"76 0 LINE",
"556 0 LINE",
"566 134 LINE",
"229 134 LINE",
"229 291 LINE",
"536 291 LINE",
"536 425 LINE",
"229 425 LINE",
"229 576 LINE",
"556 576 LINE"
);
}
);
width = 607;
}
);
leftKerningGroup = H;
leftMetricsKey = H;
rightKerningGroup = E;
unicode = 0045;
},
{
color = 4;
glyphname = F;
lastChange = "2019-04-14 21:15:07 +0000";
layers = (
{
anchors = (
{
name = bottom;
position = "{292, 0}";
},
{
name = top;
position = "{292, 710}";
}
);
background = {
anchors = (
{
name = bottom;
position = "{262, 0}";
},
{
name = top;
position = "{262, 710}";
}
);
paths = (
{
closed = 1;
nodes = (
"490 710 LINE",
"94 710 LINE",
"94 0 LINE",
"175 0 LINE",
"175 315 LINE",
"480 315 LINE",
"480 385 LINE",
"175 385 LINE",
"175 640 LINE",
"490 640 LINE"
);
}
);
};
layerId = "A3B50665-EA37-4AC6-885C-1233CA61B6BD";
paths = (
{
closed = 1;
nodes = (
"490 710 LINE",
"94 710 LINE",
"94 0 LINE",
"175 0 LINE",
"175 314 LINE",
"480 314 LINE",
"480 385 LINE",
"175 385 LINE",
"175 639 LINE",
"490 639 LINE"
);
}
);
width = 523;
},
{
anchors = (
{
name = bottom;
position = "{305, 0}";
},
{
name = top;
position = "{305, 710}";
}
);
background = {
anchors = (
{
name = bottom;
position = "{287, 0}";
},
{
name = top;
position = "{287, 710}";
}
);
paths = (
{
closed = 1;
nodes = (
"533 710 LINE",
"76 710 LINE",
"76 0 LINE",
"230 0 LINE",
"230 281 LINE",
"513 281 LINE",
"513 415 LINE",
"230 415 LINE",
"230 576 LINE",
"533 576 LINE"
);
}
);
};
layerId = "014D4A40-7C7F-4023-B30E-1F55CE5EA091";
paths = (
{
closed = 1;
nodes = (
"533 710 LINE",
"76 710 LINE",
"76 0 LINE",
"229 0 LINE",
"229 281 LINE",
"513 281 LINE",
"513 415 LINE",
"229 415 LINE",
"229 576 LINE",
"533 576 LINE"
);
}
);
width = 573;
}
);
leftKerningGroup = H;
leftMetricsKey = H;
rightKerningGroup = F;
unicode = 0046;
},
{
color = 4;
glyphname = G;
lastChange = "2019-04-14 21:15:17 +0000";
layers = (
{
anchors = (
{
name = bottom;
position = "{393, 0}";
},
{
name = top;
position = "{393, 710}";
}
);
background = {
anchors = (
{
name = bottom;
position = "{1191, 0}";
},
{
name = top;
position = "{1191, 710}";
}
);
paths = (
{
closed = 1;
nodes = (
"1225 279 LINE",
"1421 279 LINE",
"1398 324 LINE",
"1397 248 LINE SMOOTH",
"1396 136 OFFCURVE",
"1314 68 OFFCURVE",
"1187 68 CURVE SMOOTH",
"1040 68 OFFCURVE",
"948 166 OFFCURVE",
"948 342 CURVE SMOOTH",
"948 519 OFFCURVE",
"1059 643 OFFCURVE",
"1214 643 CURVE SMOOTH",
"1303 643 OFFCURVE",
"1367 608 OFFCURVE",
"1406 537 CURVE",
"1470 585 LINE",
"1418 674 OFFCURVE",
"1332 720 OFFCURVE",
"1218 720 CURVE SMOOTH",
"1011 720 OFFCURVE",
"864 566 OFFCURVE",
"864 342 CURVE SMOOTH",
"864 123 OFFCURVE",
"983 -8 OFFCURVE",
"1181 -8 CURVE SMOOTH",
"1294 -8 OFFCURVE",
"1371 32 OFFCURVE",
"1417 117 CURVE",
"1398 117 LINE",
"1411 0 LINE",
"1476 0 LINE",
"1476 347 LINE",
"1225 347 LINE"
);
},
{
closed = 1;
nodes = (
"594 184 LINE",
"553 108 OFFCURVE",
"483 69 OFFCURVE",
"391 69 CURVE SMOOTH",
"239 69 OFFCURVE",
"149 169 OFFCURVE",
"149 342 CURVE SMOOTH",
"149 521 OFFCURVE",
"255 643 OFFCURVE",
"406 643 CURVE SMOOTH",
"491 643 OFFCURVE",
"554 609 OFFCURVE",
"594 537 CURVE",
"658 585 LINE",
"606 674 OFFCURVE",
"520 720 OFFCURVE",
"408 720 CURVE SMOOTH",
"204 720 OFFCURVE",
"64 566 OFFCURVE",
"64 342 CURVE SMOOTH",
"64 124 OFFCURVE",
"188 -8 OFFCURVE",
"391 -8 CURVE SMOOTH",
"509 -8 OFFCURVE",
"605 43 OFFCURVE",
"657 136 CURVE"
);
}
);
};
guideLines = (
{
angle = 90;
position = "{751, 356}";
},
{
angle = 90;
position = "{814, 356}";
}
);
layerId = "A3B50665-EA37-4AC6-885C-1233CA61B6BD";
paths = (
{
closed = 1;
nodes = (
"425 279 LINE",
"621 279 LINE",
"597 324 LINE",
"597 248 LINE SMOOTH",
"597 136 OFFCURVE",
"514 68 OFFCURVE",
"387 68 CURVE SMOOTH",
"239 68 OFFCURVE",
"149 166 OFFCURVE",
"149 342 CURVE SMOOTH",
"149 521 OFFCURVE",
"255 643 OFFCURVE",
"414 643 CURVE SMOOTH",
"503 643 OFFCURVE",
"567 608 OFFCURVE",
"606 537 CURVE",
"670 585 LINE",
"618 674 OFFCURVE",
"532 720 OFFCURVE",
"418 720 CURVE SMOOTH",
"204 720 OFFCURVE",
"64 566 OFFCURVE",
"64 342 CURVE SMOOTH",
"64 123 OFFCURVE",
"188 -8 OFFCURVE",
"381 -8 CURVE SMOOTH",
"494 -8 OFFCURVE",
"571 32 OFFCURVE",
"617 117 CURVE",
"599 117 LINE",
"612 0 LINE",
"676 0 LINE",
"676 347 LINE",
"425 347 LINE"
);
}
);
width = 781;
},
{
anchors = (
{
name = bottom;
position = "{393, 0}";
},
{
name = top;
position = "{393, 710}";
}
);
background = {
anchors = (
{
name = bottom;
position = "{1199, 0}";
},
{
name = top;
position = "{1199, 710}";
}
);
paths = (
{
closed = 1;
nodes = (
"1221 256 LINE",
"1399 256 LINE",
"1370 335 LINE",
"1369 264 LINE SMOOTH",
"1368 173 OFFCURVE",
"1276 131 OFFCURVE",
"1200 131 CURVE SMOOTH",
"1069 131 OFFCURVE",
"1001 208 OFFCURVE",
"1001 344 CURVE SMOOTH",
"1001 487 OFFCURVE",
"1092 579 OFFCURVE",
"1231 579 CURVE SMOOTH",
"1297 579 OFFCURVE",
"1361 552 OFFCURVE",
"1395 491 CURVE",
"1512 578 LINE",
"1450 673 OFFCURVE",
"1361 720 OFFCURVE",
"1232 720 CURVE SMOOTH",
"999 720 OFFCURVE",
"839 569 OFFCURVE",
"839 341 CURVE SMOOTH",
"839 122 OFFCURVE",
"964 -10 OFFCURVE",
"1182 -10 CURVE SMOOTH",
"1273 -10 OFFCURVE",
"1362 24 OFFCURVE",
"1403 95 CURVE",
"1381 95 LINE",
"1396 0 LINE",
"1519 0 LINE",
"1519 382 LINE",
"1221 382 LINE"
);
},
{
closed = 1;
nodes = (
"574 231 LINE",
"536 163 OFFCURVE",
"469 131 OFFCURVE",
"402 131 CURVE SMOOTH",
"276 131 OFFCURVE",
"201 208 OFFCURVE",
"201 344 CURVE SMOOTH",
"201 484 OFFCURVE",
"289 579 OFFCURVE",
"414 579 CURVE SMOOTH",
"477 579 OFFCURVE",
"538 552 OFFCURVE",
"572 489 CURVE",
"690 576 LINE",
"628 673 OFFCURVE",
"542 720 OFFCURVE",
"415 720 CURVE SMOOTH",
"192 720 OFFCURVE",
"39 566 OFFCURVE",
"39 341 CURVE SMOOTH",
"39 122 OFFCURVE",
"173 -10 OFFCURVE",
"400 -10 CURVE SMOOTH",
"524 -10 OFFCURVE",
"631 43 OFFCURVE",
"689 139 CURVE"
);
}
);
};
layerId = "014D4A40-7C7F-4023-B30E-1F55CE5EA091";
paths = (
{
closed = 1;
nodes = (
"421 256 LINE",
"599 256 LINE",
"569 335 LINE",
"569 264 LINE SMOOTH",
"569 173 OFFCURVE",
"476 130 OFFCURVE",
"400 130 CURVE SMOOTH",
"276 130 OFFCURVE",
"201 208 OFFCURVE",
"201 344 CURVE SMOOTH",
"201 484 OFFCURVE",
"289 579 OFFCURVE",
"431 579 CURVE SMOOTH",
"497 579 OFFCURVE",
"561 552 OFFCURVE",
"595 491 CURVE",
"714 578 LINE",
"652 673 OFFCURVE",
"563 720 OFFCURVE",
"432 720 CURVE SMOOTH",
"192 720 OFFCURVE",
"39 566 OFFCURVE",
"39 341 CURVE SMOOTH",
"39 122 OFFCURVE",
"173 -10 OFFCURVE",
"382 -10 CURVE SMOOTH",
"473 -10 OFFCURVE",
"558 17 OFFCURVE",
"603 93 CURVE",
"580 95 LINE",
"596 0 LINE",
"719 0 LINE",
"719 382 LINE",
"421 382 LINE"
);
}
);
width = 798;
}
);
leftKerningGroup = O;
leftMetricsKey = O;
rightKerningGroup = G;
unicode = 0047;
},
{
color = 4;
glyphname = H;
lastChange = "2019-04-14 21:15:47 +0000";
layers = (
{
anchors = (
{
name = bottom;
position = "{373, 0}";
},
{
name = center;
position = "{373, 570}";
},
{
name = top;
position = "{373, 710}";
},
{
name = topleft;
position = "{20, 710}";
}
);
background = {
anchors = (
{
name = bottom;
position = "{373, 0}";
},
{
name = center;
position = "{373, 570}";
},
{
name = top;
position = "{373, 710}";
},
{
name = topleft;
position = "{20, 710}";
}
);
paths = (
{
closed = 1;
nodes = (
"652 0 LINE",
"652 710 LINE",
"569 710 LINE",
"569 0 LINE"
);
},
{
closed = 1;
nodes = (
"177 0 LINE",
"177 710 LINE",
"94 710 LINE",
"94 0 LINE"
);
},
{
closed = 1;
nodes = (
"618 324 LINE",
"618 396 LINE",
"137 396 LINE",
"137 324 LINE"
);
}
);
};
layerId = "A3B50665-EA37-4AC6-885C-1233CA61B6BD";
paths = (
{
closed = 1;
nodes = (
"652 0 LINE",
"652 710 LINE",
"569 710 LINE",
"569 0 LINE"
);
},
{
closed = 1;
nodes = (
"177 0 LINE",
"177 710 LINE",
"94 710 LINE",
"94 0 LINE"
);
},
{
closed = 1;
nodes = (
"618 324 LINE",
"618 397 LINE",
"137 397 LINE",
"137 324 LINE"
);
}
);
width = 746;
},
{
anchors = (
{
name = bottom;
position = "{385, 0}";
},
{
name = center;
position = "{385, 570}";
},
{
name = top;
position = "{385, 710}";
},
{
name = topleft;
position = "{20, 710}";
}
);
background = {
anchors = (
{
name = bottom;
position = "{385, 0}";
},
{
name = center;
position = "{385, 570}";
},
{
name = top;
position = "{385, 710}";
},
{
name = topleft;
position = "{20, 710}";
}
);
paths = (
{
closed = 1;
nodes = (
"694 0 LINE",
"694 710 LINE",
"538 710 LINE",
"538 0 LINE"
);
},
{
closed = 1;
nodes = (
"232 0 LINE",
"232 710 LINE",
"76 710 LINE",
"76 0 LINE"
);
},
{
closed = 1;
nodes = (
"634 290 LINE",
"634 426 LINE",
"144 426 LINE",
"144 290 LINE"
);
}
);
};
layerId = "014D4A40-7C7F-4023-B30E-1F55CE5EA091";
paths = (
{
closed = 1;
nodes = (
"694 0 LINE",
"694 710 LINE",
"538 710 LINE",
"538 0 LINE"
);
},
{
closed = 1;
nodes = (
"232 0 LINE",
"232 710 LINE",
"76 710 LINE",
"76 0 LINE"
);
},
{
closed = 1;
nodes = (
"634 290 LINE",
"634 426 LINE",
"144 426 LINE",
"144 290 LINE"
);
}
);
width = 770;
}
);
leftKerningGroup = H;
rightKerningGroup = H;
rightMetricsKey = "=|";
unicode = 0048;
},
{
color = 4;
glyphname = I;
lastChange = "2019-04-14 21:15:47 +0000";
layers = (
{
anchors = (
{
name = bottom;
position = "{136, 0}";
},
{
name = ogonek;
position = "{177, 0}";
},
{
name = top;
position = "{136, 710}";
},
{
name = topleft;
position = "{20, 710}";
}
);
background = {
anchors = (
{
name = bottom;
position = "{136, 0}";
},
{
name = ogonek;
position = "{177, 0}";
},
{
name = top;
position = "{136, 710}";
},
{
name = topleft;
position = "{20, 710}";
}
);
paths = (
{
closed = 1;
nodes = (
"177 0 LINE",
"177 710 LINE",
"94 710 LINE",
"94 0 LINE"
);
}
);
};
layerId = "A3B50665-EA37-4AC6-885C-1233CA61B6BD";
paths = (
{
closed = 1;
nodes = (
"177 0 LINE",
"177 710 LINE",
"94 710 LINE",
"94 0 LINE"
);
}
);
width = 271;
},
{
anchors = (
{
name = bottom;
position = "{154, 0}";
},
{
name = ogonek;
position = "{232, 0}";
},
{
name = top;
position = "{154, 710}";
},
{
name = topleft;
position = "{20, 710}";
}
);
background = {
anchors = (
{
name = bottom;
position = "{154, 0}";
},
{
name = ogonek;
position = "{232, 0}";
},
{
name = top;
position = "{154, 710}";
},
{
name = topleft;
position = "{20, 710}";
}
);
paths = (
{
closed = 1;
nodes = (
"232 0 LINE",
"232 710 LINE",
"76 710 LINE",
"76 0 LINE"
);
}
);
};
layerId = "014D4A40-7C7F-4023-B30E-1F55CE5EA091";
paths = (
{
closed = 1;
nodes = (
"232 0 LINE",
"232 710 LINE",
"76 710 LINE",
"76 0 LINE"
);
}
);
width = 308;
}
);
leftKerningGroup = H;
leftMetricsKey = H;
rightKerningGroup = H;
rightMetricsKey = H;
unicode = 0049;
},
{
color = 4;
glyphname = I_J.loclNLD;
lastChange = "2019-04-14 21:26:24 +0000";
layers = (
{
anchors = (
{
name = top_1;
position = "{146, 710}";
},
{
name = top_2;
position = "{544, 710}";
}
);
background = {
anchors = (
{
name = top_1;
position = "{146, 710}";
},
{
name = top_2;
position = "{544, 710}";
}
);
paths = (
{
closed = 1;
nodes = (
"506 -8 OFFCURVE",
"585 98 OFFCURVE",
"585 259 CURVE SMOOTH",
"585 710 LINE",
"502 710 LINE",
"502 255 LINE SMOOTH",
"502 139 OFFCURVE",
"454 65 OFFCURVE",
"340 65 CURVE SMOOTH",
"247 65 OFFCURVE",
"189 104 OFFCURVE",
"163 179 CURVE",
"95 149 LINE",
"119 55 OFFCURVE",
"211 -8 OFFCURVE",
"336 -8 CURVE SMOOTH"
);
},
{
closed = 1;
nodes = (
"187 310 LINE",
"187 710 LINE",
"104 710 LINE",
"104 310 LINE"
);
}
);
};
layerId = "A3B50665-EA37-4AC6-885C-1233CA61B6BD";
paths = (
{
closed = 1;
nodes = (
"506 -8 OFFCURVE",
"585 98 OFFCURVE",
"585 259 CURVE SMOOTH",
"585 710 LINE",
"502 710 LINE",
"502 255 LINE SMOOTH",
"502 139 OFFCURVE",
"454 65 OFFCURVE",
"339 65 CURVE SMOOTH",
"247 65 OFFCURVE",
"189 104 OFFCURVE",
"163 179 CURVE",
"95 149 LINE",
"119 55 OFFCURVE",
"211 -8 OFFCURVE",
"337 -8 CURVE SMOOTH"
);
},
{
closed = 1;
nodes = (
"187 310 LINE",
"187 710 LINE",
"104 710 LINE",
"104 310 LINE"
);
}
);
width = 677;
},
{
anchors = (
{
name = top_1;
position = "{152, 710}";
},
{
name = top_2;
position = "{542, 710}";
}
);
background = {
anchors = (
{
name = top_1;
position = "{152, 710}";
},
{
name = top_2;
position = "{542, 710}";
}
);
paths = (
{
closed = 1;
nodes = (
"517 -10 OFFCURVE",
"620 97 OFFCURVE",
"620 278 CURVE SMOOTH",
"620 710 LINE",
"464 710 LINE",
"464 261 LINE SMOOTH",
"464 177 OFFCURVE",
"418 127 OFFCURVE",
"342 127 CURVE SMOOTH",
"275 127 OFFCURVE",
"232 150 OFFCURVE",
"200 212 CURVE",
"73 155 LINE",
"110 46 OFFCURVE",
"207 -10 OFFCURVE",
"342 -10 CURVE SMOOTH"
);
},
{
closed = 1;
nodes = (
"230 310 LINE",
"230 710 LINE",
"74 710 LINE",
"74 310 LINE"
);
}
);
};
layerId = "014D4A40-7C7F-4023-B30E-1F55CE5EA091";
paths = (
{
closed = 1;
nodes = (
"517 -10 OFFCURVE",
"620 97 OFFCURVE",
"620 278 CURVE SMOOTH",
"620 710 LINE",
"464 710 LINE",
"464 261 LINE SMOOTH",
"464 177 OFFCURVE",
"418 127 OFFCURVE",
"342 127 CURVE SMOOTH",
"276 127 OFFCURVE",
"233 150 OFFCURVE",
"201 212 CURVE",
"73 155 LINE",
"110 46 OFFCURVE",
"207 -10 OFFCURVE",
"342 -10 CURVE SMOOTH"
);
},
{
closed = 1;
nodes = (
"230 310 LINE",
"230 710 LINE",
"74 710 LINE",
"74 310 LINE"
);
}
);
width = 694;
}
);
leftKerningGroup = U;
rightKerningGroup = U;
rightMetricsKey = J;
},
{
color = 4;
glyphname = J;
lastChange = "2019-04-14 21:26:49 +0000";
layers = (
{
anchors = (
{
name = bottom;
position = "{240, 0}";
},
{
name = top;
position = "{347, 710}";
}
);
background = {
anchors = (
{
name = bottom;
position = "{240, 0}";
},
{
name = top;
position = "{347, 710}";
}
);
paths = (
{
closed = 1;
nodes = (
"325 -8 OFFCURVE",
"388 68 OFFCURVE",
"388 209 CURVE SMOOTH",
"388 710 LINE",
"305 710 LINE",
"305 205 LINE SMOOTH",
"305 109 OFFCURVE",
"271 65 OFFCURVE",
"196 65 CURVE SMOOTH",
"128 65 OFFCURVE",
"87 94 OFFCURVE",
"66 159 CURVE",
"-2 129 LINE",
"18 45 OFFCURVE",
"93 -8 OFFCURVE",
"193 -8 CURVE SMOOTH"
);
}
);
};
layerId = "A3B50665-EA37-4AC6-885C-1233CA61B6BD";
paths = (
{
closed = 1;
nodes = (
"325 -8 OFFCURVE",
"388 68 OFFCURVE",
"388 209 CURVE SMOOTH",
"388 710 LINE",
"305 710 LINE",
"305 205 LINE SMOOTH",
"305 109 OFFCURVE",
"271 65 OFFCURVE",
"196 65 CURVE SMOOTH",
"128 65 OFFCURVE",
"87 94 OFFCURVE",
"66 159 CURVE",
"-2 129 LINE",
"18 45 OFFCURVE",
"93 -8 OFFCURVE",
"193 -8 CURVE SMOOTH"
);
}
);
width = 480;
},
{
anchors = (
{
name = bottom;
position = "{257, 0}";
},
{
name = top;
position = "{362, 710}";
}
);
background = {
anchors = (
{
name = bottom;
position = "{257, 0}";
},
{
name = top;
position = "{362, 710}";
}
);
paths = (
{
closed = 1;
nodes = (
"357 -10 OFFCURVE",
"440 81 OFFCURVE",
"440 238 CURVE SMOOTH",
"440 710 LINE",
"284 710 LINE",
"284 221 LINE SMOOTH",
"284 157 OFFCURVE",
"255 127 OFFCURVE",
"206 127 CURVE SMOOTH",
"158 127 OFFCURVE",
"130 152 OFFCURVE",
"110 202 CURVE",
"-17 145 LINE",
"12 44 OFFCURVE",
"95 -10 OFFCURVE",
"208 -10 CURVE SMOOTH"
);
}
);
};
layerId = "014D4A40-7C7F-4023-B30E-1F55CE5EA091";
paths = (
{
closed = 1;
nodes = (
"357 -10 OFFCURVE",
"440 81 OFFCURVE",
"440 238 CURVE SMOOTH",
"440 710 LINE",
"284 710 LINE",
"284 221 LINE SMOOTH",
"284 157 OFFCURVE",
"255 127 OFFCURVE",
"206 127 CURVE SMOOTH",
"158 127 OFFCURVE",
"130 152 OFFCURVE",
"110 202 CURVE",
"-17 145 LINE",
"12 44 OFFCURVE",
"97 -10 OFFCURVE",
"208 -10 CURVE SMOOTH"
);
}
);
width = 514;
}
);
leftKerningGroup = J;
rightKerningGroup = J;
unicode = 004A;
},
{
color = 4;
glyphname = K;
lastChange = "2019-04-14 21:28:39 +0000";
layers = (
{
anchors = (
{
name = bottom;
position = "{311, 0}";
},
{
name = top;
position = "{311, 710}";
}
);
background = {
anchors = (
{
name = bottom;
position = "{301, 0}";
},
{
name = top;
position = "{301, 710}";
}
);
paths = (
{
closed = 1;
nodes = (
"177 0 LINE",
"177 710 LINE",
"94 710 LINE",
"94 0 LINE"
);
},
{
closed = 1;
nodes = (
"583 82 LINE",
"567 72 OFFCURVE",
"549 66 OFFCURVE",
"529 66 CURVE SMOOTH",
"484 66 OFFCURVE",
"465 79 OFFCURVE",
"428 134 CURVE SMOOTH",
"322 293 LINE SMOOTH",
"288 344 OFFCURVE",
"243 370 OFFCURVE",
"198 370 CURVE",
"234 338 LINE",
"603 710 LINE",
"501 710 LINE",
"150 353 LINE",
"150 319 LINE",
"195 319 OFFCURVE",
"220 301 OFFCURVE",
"238 275 CURVE SMOOTH",
"368 83 LINE SMOOTH",
"412 18 OFFCURVE",
"458 -6 OFFCURVE",
"516 -6 CURVE SMOOTH",
"551 -6 OFFCURVE",
"580 2 OFFCURVE",
"601 18 CURVE"
);
}
);
};
guideLines = (
{
angle = 225.5093;
position = "{267, 483}";
}
);
layerId = "A3B50665-EA37-4AC6-885C-1233CA61B6BD";
paths = (
{
closed = 1;
nodes = (
"177 0 LINE",
"177 710 LINE",
"94 710 LINE",
"94 0 LINE"
);
},
{
closed = 1;
nodes = (
"583 82 LINE",
"567 72 OFFCURVE",
"549 66 OFFCURVE",
"529 66 CURVE SMOOTH",
"484 66 OFFCURVE",
"465 79 OFFCURVE",
"428 134 CURVE SMOOTH",
"322 293 LINE SMOOTH",
"288 344 OFFCURVE",
"243 370 OFFCURVE",
"198 370 CURVE",
"234 338 LINE",
"603 710 LINE",
"501 710 LINE",
"150 353 LINE",
"150 319 LINE",
"195 319 OFFCURVE",
"220 301 OFFCURVE",
"238 275 CURVE SMOOTH",
"368 83 LINE SMOOTH",
"412 18 OFFCURVE",
"458 -6 OFFCURVE",
"516 -6 CURVE SMOOTH",
"551 -6 OFFCURVE",
"580 2 OFFCURVE",
"601 18 CURVE"
);
}
);
width = 601;
},
{
anchors = (
{
name = bottom;
position = "{343, 0}";
},
{
name = top;
position = "{343, 710}";
}
);
background = {
anchors = (
{
name = bottom;
position = "{343, 0}";
},
{
name = top;
position = "{343, 710}";
}
);
paths = (
{
closed = 1;
nodes = (
"232 0 LINE",
"232 710 LINE",
"76 710 LINE",
"76 0 LINE"
);
},
{
closed = 1;
nodes = (
"667 146 LINE",
"646 132 OFFCURVE",
"624 127 OFFCURVE",
"599 127 CURVE SMOOTH",
"562 127 OFFCURVE",
"537 140 OFFCURVE",
"514 177 CURVE SMOOTH",
"448 283 LINE SMOOTH",
"415 336 OFFCURVE",
"367 372 OFFCURVE",
"305 372 CURVE",
"350 329 LINE",
"699 710 LINE",
"512 710 LINE",
"187 351 LINE",
"187 290 LINE",
"249 290 OFFCURVE",
"274 278 OFFCURVE",
"302 234 CURVE SMOOTH",
"391 93 LINE SMOOTH",
"433 26 OFFCURVE",
"497 -10 OFFCURVE",
"580 -10 CURVE SMOOTH",
"627 -10 OFFCURVE",
"675 4 OFFCURVE",
"703 26 CURVE"
);
}
);
};
guideLines = (
{
angle = 46.6112;
position = "{222, 445}";
}
);
layerId = "014D4A40-7C7F-4023-B30E-1F55CE5EA091";
paths = (
{
closed = 1;
nodes = (
"232 0 LINE",
"232 710 LINE",
"76 710 LINE",
"76 0 LINE"
);
},
{
closed = 1;
nodes = (
"667 146 LINE",
"646 132 OFFCURVE",
"624 127 OFFCURVE",
"599 127 CURVE SMOOTH",
"562 127 OFFCURVE",
"537 140 OFFCURVE",
"514 177 CURVE SMOOTH",
"448 283 LINE SMOOTH",
"415 336 OFFCURVE",
"365 373 OFFCURVE",
"303 373 CURVE",
"350 329 LINE",
"699 710 LINE",
"512 710 LINE",
"187 351 LINE",
"187 290 LINE",
"249 290 OFFCURVE",
"272 278 OFFCURVE",
"300 234 CURVE SMOOTH",
"389 93 LINE SMOOTH",
"431 26 OFFCURVE",
"497 -10 OFFCURVE",
"580 -10 CURVE SMOOTH",
"627 -10 OFFCURVE",
"675 4 OFFCURVE",
"703 26 CURVE"
);
}
);
width = 685;
}
);
leftKerningGroup = H;
leftMetricsKey = H;
rightKerningGroup = K;
unicode = 004B;
},
{
color = 4;
glyphname = L;
lastChange = "2019-04-14 21:28:54 +0000";
layers = (
{
anchors = (
{
name = bottom;
position = "{297, 0}";
},
{
name = center;
position = "{136, 355}";
},
{
name = dotacc;
position = "{396, 401}";
},
{
name = top;
position = "{136, 710}";
},
{
name = topright;
position = "{277, 710}";
}
);
background = {
anchors = (
{
name = bottom;
position = "{297, 0}";
},
{
name = center;
position = "{136, 355}";
},
{
name = dotacc;
position = "{396, 401}";
},
{
name = top;
position = "{136, 710}";
},
{
name = topright;
position = "{277, 710}";
}
);
paths = (
{
closed = 1;
nodes = (
"500 0 LINE",
"510 72 LINE",
"177 72 LINE",
"177 710 LINE",
"94 710 LINE",
"94 0 LINE"
);
}
);
};
layerId = "A3B50665-EA37-4AC6-885C-1233CA61B6BD";
paths = (
{
closed = 1;
nodes = (
"500 0 LINE",
"507 72 LINE",
"177 72 LINE",
"177 710 LINE",
"94 710 LINE",
"94 0 LINE"
);
}
);
width = 521;
},
{
anchors = (
{
name = bottom;
position = "{304, 0}";
},
{
name = center;
position = "{154, 375}";
},
{
name = dotacc;
position = "{437, 433}";
},
{
name = top;
position = "{154, 710}";
},
{
name = topright;
position = "{332, 710}";
}
);
background = {
anchors = (
{
name = bottom;
position = "{304, 0}";
},
{
name = center;
position = "{154, 375}";
},
{
name = dotacc;
position = "{437, 433}";
},
{
name = top;
position = "{154, 710}";
},
{
name = topright;
position = "{332, 710}";
}
);
paths = (
{
closed = 1;
nodes = (
"531 0 LINE",
"541 136 LINE",
"232 136 LINE",
"232 710 LINE",
"76 710 LINE",
"76 0 LINE"
);
}
);
};
layerId = "014D4A40-7C7F-4023-B30E-1F55CE5EA091";
paths = (
{
closed = 1;
nodes = (
"531 0 LINE",
"541 136 LINE",
"232 136 LINE",
"232 710 LINE",
"76 710 LINE",
"76 0 LINE"
);
}
);
width = 566;
}
);
leftKerningGroup = H;
leftMetricsKey = H;
rightKerningGroup = L;
unicode = 004C;
},
{
color = 4;
glyphname = M;
lastChange = "2019-04-14 21:15:47 +0000";
layers = (
{
anchors = (
{
name = bottom;
position = "{467, 0}";
},
{
name = top;
position = "{467, 710}";
}
);
background = {
anchors = (
{
name = bottom;
position = "{467, 0}";
},
{
name = top;
position = "{467, 710}";
}
);
paths = (
{
closed = 1;
nodes = (
"161 0 LINE",
"190 650 LINE",
"144 646 LINE",
"431 0 LINE",
"501 0 LINE",
"795 645 LINE",
"747 650 LINE",
"772 0 LINE",
"851 0 LINE",
"826 710 LINE",
"746 710 LINE",
"443 44 LINE",
"495 44 LINE",
"198 710 LINE",
"116 710 LINE",
"85 0 LINE"
);
}
);
};
layerId = "A3B50665-EA37-4AC6-885C-1233CA61B6BD";
paths = (
{
closed = 1;
nodes = (
"161 0 LINE",
"190 650 LINE",
"156 613 LINE",
"432 0 LINE",
"501 0 LINE",
"784 623 LINE",
"747 650 LINE",
"772 0 LINE",
"850 0 LINE",
"824 710 LINE",
"745 710 LINE",
"444 44 LINE",
"495 44 LINE",
"194 710 LINE",
"115 710 LINE",
"84 0 LINE"
);
}
);
width = 935;
},
{
anchors = (
{
name = bottom;
position = "{474, 0}";
},
{
name = top;
position = "{474, 710}";
}
);
background = {
anchors = (
{
name = bottom;
position = "{477, 0}";
},
{
name = top;
position = "{477, 710}";
}
);
paths = (
{
closed = 1;
nodes = (
"216 0 LINE",
"238 611 LINE",
"154 540 LINE",
"419 0 LINE",
"533 0 LINE",
"802 553 LINE",
"715 611 LINE",
"731 0 LINE",
"881 0 LINE",
"861 710 LINE",
"729 710 LINE",
"437 102 LINE",
"527 102 LINE",
"230 710 LINE",
"97 710 LINE",
"72 0 LINE"
);
}
);
};
guideLines = (
{
angle = -88.391;
position = "{739, 356}";
},
{
angle = 88.391;
position = "{238, 356}";
}
);
layerId = "014D4A40-7C7F-4023-B30E-1F55CE5EA091";
paths = (
{
closed = 1;
nodes = (
"216 0 LINE",
"238 611 LINE",
"153 540 LINE",
"417 0 LINE",
"531 0 LINE",
"803 553 LINE",
"715 611 LINE",
"731 0 LINE",
"881 0 LINE",
"862 710 LINE",
"730 710 LINE",
"435 102 LINE",
"526 102 LINE",
"229 710 LINE",
"97 710 LINE",
"72 0 LINE"
);
}
);
width = 955;
}
);
leftKerningGroup = H;
rightKerningGroup = H;
unicode = 004D;
},
{
color = 4;
glyphname = N;
lastChange = "2019-04-14 21:15:47 +0000";
layers = (
{
anchors = (
{
name = bottom;
position = "{373, 0}";
},
{
name = top;
position = "{373, 710}";
}
);
background = {
anchors = (
{
name = bottom;
position = "{372, 0}";
},
{
name = top;
position = "{372, 712}";
}
);
paths = (
{
closed = 1;
nodes = (
"573 81 LINE",
"608 89 LINE",
"162 710 LINE",
"95 710 LINE",
"95 0 LINE",
"172 0 LINE",
"172 630 LINE",
"137 621 LINE",
"583 0 LINE",
"650 0 LINE",
"650 710 LINE",
"573 710 LINE"
);
}
);
};
layerId = "A3B50665-EA37-4AC6-885C-1233CA61B6BD";
paths = (
{
closed = 1;
nodes = (
"572 81 LINE",
"607 90 LINE",
"165 710 LINE",
"94 710 LINE",
"94 0 LINE",
"173 0 LINE",
"173 630 LINE",
"138 620 LINE",
"580 0 LINE",
"651 0 LINE",
"651 710 LINE",
"572 710 LINE"
);
}
);
width = 745;
},
{
anchors = (
{
name = bottom;
position = "{382, 0}";
},
{
name = top;
position = "{382, 712}";
}
);
background = {
anchors = (
{
name = bottom;
position = "{387, 0}";
},
{
name = top;
position = "{386, 712}";
}
);
paths = (
{
closed = 1;
nodes = (
"538 141 LINE",
"592 175 LINE",
"214 710 LINE",
"78 710 LINE",
"78 0 LINE",
"226 0 LINE",
"226 569 LINE",
"172 535 LINE",
"550 0 LINE",
"686 0 LINE",
"686 710 LINE",
"538 710 LINE"
);
}
);
};
layerId = "014D4A40-7C7F-4023-B30E-1F55CE5EA091";
paths = (
{
closed = 1;
nodes = (
"538 141 LINE",
"596 175 LINE",
"214 710 LINE",
"76 710 LINE",
"76 0 LINE",
"226 0 LINE",
"226 569 LINE",
"168 535 LINE",
"550 0 LINE",
"688 0 LINE",
"688 710 LINE",
"538 710 LINE"
);
}
);
width = 764;
}
);
leftKerningGroup = H;
leftMetricsKey = H;
rightKerningGroup = H;
rightMetricsKey = H;
unicode = 004E;
},
{
color = 4;
glyphname = Eng;
lastChange = "2019-04-14 21:15:47 +0000";
layers = (
{
background = {
paths = (
{
closed = 1;
nodes = (
"572 81 LINE",
"607 91 LINE",
"165 710 LINE",
"94 710 LINE",
"94 0 LINE",
"173 0 LINE",
"173 630 LINE",
"138 619 LINE",
"580 0 LINE",
"651 0 LINE",
"651 710 LINE",
"572 710 LINE"
);
}
);
};
layerId = "A3B50665-EA37-4AC6-885C-1233CA61B6BD";
paths = (
{
closed = 1;
nodes = (
"589 -208 OFFCURVE",
"651 -132 OFFCURVE",
"651 -1 CURVE SMOOTH",
"651 710 LINE",
"572 710 LINE",
"572 81 LINE",
"607 90 LINE",
"165 710 LINE",
"94 710 LINE",
"94 0 LINE",
"173 0 LINE",
"173 630 LINE",
"138 620 LINE",
"580 0 LINE",
"574 37 LINE",
"574 -25 LINE SMOOTH",
"574 -91 OFFCURVE",
"540 -136 OFFCURVE",
"475 -136 CURVE SMOOTH",
"417 -136 OFFCURVE",
"376 -106 OFFCURVE",
"365 -41 CURVE",
"297 -71 LINE",
"309 -155 OFFCURVE",
"383 -208 OFFCURVE",
"469 -208 CURVE SMOOTH"
);
}
);
width = 745;
},
{
background = {
paths = (
{
closed = 1;
nodes = (
"538 141 LINE",
"596 175 LINE",
"214 710 LINE",
"76 710 LINE",
"76 0 LINE",
"226 0 LINE",
"226 569 LINE",
"168 535 LINE",
"550 0 LINE",
"688 0 LINE",
"688 710 LINE",
"538 710 LINE"
);
}
);
};
layerId = "014D4A40-7C7F-4023-B30E-1F55CE5EA091";
paths = (
{
closed = 1;
nodes = (
"594 -210 OFFCURVE",
"688 -119 OFFCURVE",
"688 38 CURVE SMOOTH",
"688 710 LINE",
"538 710 LINE",
"538 141 LINE",
"596 175 LINE",
"214 710 LINE",
"76 710 LINE",
"76 0 LINE",
"226 0 LINE",
"226 569 LINE",
"168 535 LINE",
"550 0 LINE",
"540 63 LINE",
"540 1 LINE SMOOTH",
"540 -43 OFFCURVE",
"511 -73 OFFCURVE",
"472 -73 CURVE SMOOTH",
"434 -73 OFFCURVE",
"406 -48 OFFCURVE",
"396 2 CURVE",
"269 -55 LINE",
"289 -156 OFFCURVE",
"371 -210 OFFCURVE",
"470 -210 CURVE SMOOTH"
);
}
);
width = 764;
}
);
leftKerningGroup = H;
leftMetricsKey = N;
widthMetricsKey = N;
rightKerningGroup = H;
unicode = 014A;
},
{
color = 5;
glyphname = O;
lastChange = "2019-04-14 21:14:29 +0000";
layers = (
{
anchors = (
{
name = bottom;
position = "{392, 0}";
},
{
name = center;
position = "{392, 355}";
},
{
name = ogonek;
position = "{469, 0}";
},
{
name = top;
position = "{392, 710}";
},
{
name = topleft;
position = "{21, 710}";
},
{
name = topright;
position = "{591, 710}";
}
);
background = {
anchors = (
{
name = bottom;
position = "{392, 0}";
},
{
name = center;
position = "{392, 355}";
},
{
name = ogonek;
position = "{469, 0}";
},
{
name = top;
position = "{392, 710}";
},
{
name = topleft;
position = "{21, 710}";
},
{
name = topright;
position = "{591, 710}";
}
);
paths = (
{
closed = 1;
nodes = (
"579 -8 OFFCURVE",
"718 139 OFFCURVE",
"718 369 CURVE SMOOTH",
"718 580 OFFCURVE",
"593 720 OFFCURVE",
"406 720 CURVE SMOOTH",
"205 720 OFFCURVE",
"65 564 OFFCURVE",
"65 342 CURVE SMOOTH",
"65 120 OFFCURVE",
"188 -8 OFFCURVE",
"388 -8 CURVE SMOOTH"
);
},
{
closed = 1;
nodes = (
"239 68 OFFCURVE",
"148 166 OFFCURVE",
"148 342 CURVE SMOOTH",
"148 524 OFFCURVE",
"256 645 OFFCURVE",
"407 645 CURVE SMOOTH",
"547 645 OFFCURVE",
"636 538 OFFCURVE",
"636 371 CURVE SMOOTH",
"636 179 OFFCURVE",
"534 68 OFFCURVE",
"388 68 CURVE SMOOTH"
);
}
);
};
guideLines = (
{
angle = 90;
position = "{718, 369}";
}
);
layerId = "A3B50665-EA37-4AC6-885C-1233CA61B6BD";
paths = (
{
closed = 1;
nodes = (
"580 -8 OFFCURVE",
"720 139 OFFCURVE",
"720 369 CURVE SMOOTH",
"720 580 OFFCURVE",
"594 720 OFFCURVE",
"406 720 CURVE SMOOTH",
"204 720 OFFCURVE",
"64 564 OFFCURVE",
"64 342 CURVE SMOOTH",
"64 120 OFFCURVE",
"187 -8 OFFCURVE",
"388 -8 CURVE SMOOTH"
);
},
{
closed = 1;
nodes = (
"239 68 OFFCURVE",
"148 166 OFFCURVE",
"148 342 CURVE SMOOTH",
"148 524 OFFCURVE",
"256 644 OFFCURVE",
"407 644 CURVE SMOOTH",
"547 644 OFFCURVE",
"636 538 OFFCURVE",
"636 371 CURVE SMOOTH",
"636 179 OFFCURVE",
"534 68 OFFCURVE",
"388 68 CURVE SMOOTH"
);
}
);
width = 784;
},
{
anchors = (
{
name = bottom;
position = "{391, 0}";
},
{
name = center;
position = "{391, 355}";
},
{
name = ogonek;
position = "{488, 0}";
},
{
name = top;
position = "{391, 710}";
},
{
name = topleft;
position = "{19, 710}";
},
{
name = topright;
position = "{560, 710}";
}
);
background = {
anchors = (
{
name = bottom;
position = "{391, 0}";
},
{
name = center;
position = "{391, 355}";
},
{
name = ogonek;
position = "{488, 0}";
},
{
name = top;
position = "{391, 710}";
},
{
name = topleft;
position = "{19, 710}";
},
{
name = topright;
position = "{560, 710}";
}
);
paths = (
{
closed = 1;
nodes = (
"597 -8 OFFCURVE",
"743 139 OFFCURVE",
"743 369 CURVE SMOOTH",
"743 580 OFFCURVE",
"609 720 OFFCURVE",
"407 720 CURVE SMOOTH",
"179 720 OFFCURVE",
"38 564 OFFCURVE",
"38 342 CURVE SMOOTH",
"38 120 OFFCURVE",
"171 -12 OFFCURVE",
"394 -10 CURVE SMOOTH"
);
},
{
closed = 1;
nodes = (
"269 129 OFFCURVE",
"197 207 OFFCURVE",
"197 345 CURVE SMOOTH",
"197 486 OFFCURVE",
"283 582 OFFCURVE",
"403 582 CURVE SMOOTH",
"514 582 OFFCURVE",
"585 497 OFFCURVE",
"585 368 CURVE SMOOTH",
"585 217 OFFCURVE",
"504 129 OFFCURVE",
"388 129 CURVE SMOOTH"
);
}
);
};
guideLines = (
{
angle = 90;
position = "{743, 369}";
}
);
layerId = "014D4A40-7C7F-4023-B30E-1F55CE5EA091";
paths = (
{
closed = 1;
nodes = (
"596 -8 OFFCURVE",
"743 139 OFFCURVE",
"743 369 CURVE SMOOTH",
"743 580 OFFCURVE",
"608 720 OFFCURVE",
"407 720 CURVE SMOOTH",
"180 720 OFFCURVE",
"39 564 OFFCURVE",
"39 342 CURVE SMOOTH",
"39 120 OFFCURVE",
"172 -12 OFFCURVE",
"394 -10 CURVE SMOOTH"
);
},
{
closed = 1;
nodes = (
"269 129 OFFCURVE",
"197 207 OFFCURVE",
"197 345 CURVE SMOOTH",
"197 486 OFFCURVE",
"283 582 OFFCURVE",
"403 582 CURVE SMOOTH",
"514 582 OFFCURVE",
"585 497 OFFCURVE",
"585 368 CURVE SMOOTH",
"585 217 OFFCURVE",
"504 129 OFFCURVE",
"388 129 CURVE SMOOTH"
);
}
);
width = 782;
}
);
leftKerningGroup = O;
rightKerningGroup = O;
rightMetricsKey = "=|";
unicode = 004F;
},
{
color = 4;
glyphname = Oogonek;
lastChange = "2019-04-14 21:14:29 +0000";
layers = (
{
anchors = (
{
name = top;
position = "{392, 710}";
}
);
background = {
paths = (
{
closed = 1;
nodes = (
"580 -8 OFFCURVE",
"720 139 OFFCURVE",
"720 369 CURVE SMOOTH",
"720 580 OFFCURVE",
"594 720 OFFCURVE",
"406 720 CURVE SMOOTH",
"204 720 OFFCURVE",
"64 564 OFFCURVE",
"64 342 CURVE SMOOTH",
"64 120 OFFCURVE",
"187 -8 OFFCURVE",
"388 -8 CURVE SMOOTH"
);
},
{
closed = 1;
nodes = (
"239 68 OFFCURVE",
"148 166 OFFCURVE",
"148 342 CURVE SMOOTH",
"148 524 OFFCURVE",
"256 644 OFFCURVE",
"407 644 CURVE SMOOTH",
"547 644 OFFCURVE",
"636 538 OFFCURVE",
"636 371 CURVE SMOOTH",
"636 179 OFFCURVE",
"534 68 OFFCURVE",
"388 68 CURVE SMOOTH"
);
}
);
};
layerId = "A3B50665-EA37-4AC6-885C-1233CA61B6BD";
paths = (
{
closed = 1;
nodes = (
"451 -223 OFFCURVE",
"490 -203 OFFCURVE",
"510 -173 CURVE",
"480 -132 LINE",
"459 -158 OFFCURVE",
"439 -170 OFFCURVE",
"417 -170 CURVE SMOOTH",
"383 -170 OFFCURVE",
"364 -150 OFFCURVE",
"364 -118 CURVE SMOOTH",
"364 -75 OFFCURVE",
"404 -24 OFFCURVE",
"501 11 CURVE SMOOTH",
"630 57 OFFCURVE",
"720 184 OFFCURVE",
"720 369 CURVE SMOOTH",
"720 580 OFFCURVE",
"594 720 OFFCURVE",
"406 720 CURVE SMOOTH",
"204 720 OFFCURVE",
"64 564 OFFCURVE",
"64 342 CURVE SMOOTH",
"64 120 OFFCURVE",
"187 -8 OFFCURVE",
"388 -8 CURVE SMOOTH",
"412 -8 LINE",
"404 10 LINE",
"336 -21 OFFCURVE",
"297 -73 OFFCURVE",
"297 -126 CURVE SMOOTH",
"297 -184 OFFCURVE",
"340 -223 OFFCURVE",
"412 -223 CURVE SMOOTH"
);
},
{
closed = 1;
nodes = (
"239 68 OFFCURVE",
"148 166 OFFCURVE",
"148 342 CURVE SMOOTH",
"148 524 OFFCURVE",
"256 644 OFFCURVE",
"407 644 CURVE SMOOTH",
"547 644 OFFCURVE",
"636 538 OFFCURVE",
"636 371 CURVE SMOOTH",
"636 179 OFFCURVE",
"534 68 OFFCURVE",
"388 68 CURVE SMOOTH"
);
}
);
width = 784;
},
{
anchors = (
{
name = top;
position = "{392, 710}";
}
);
background = {
paths = (
{
closed = 1;
nodes = (
"596 -8 OFFCURVE",
"743 139 OFFCURVE",
"743 369 CURVE SMOOTH",
"743 580 OFFCURVE",
"608 720 OFFCURVE",
"407 720 CURVE SMOOTH",
"180 720 OFFCURVE",
"39 564 OFFCURVE",
"39 342 CURVE SMOOTH",
"39 120 OFFCURVE",
"172 -12 OFFCURVE",
"394 -10 CURVE SMOOTH"
);
},
{
closed = 1;
nodes = (
"269 129 OFFCURVE",
"197 207 OFFCURVE",
"197 345 CURVE SMOOTH",
"197 486 OFFCURVE",
"283 582 OFFCURVE",
"403 582 CURVE SMOOTH",
"514 582 OFFCURVE",
"585 497 OFFCURVE",
"585 368 CURVE SMOOTH",
"585 217 OFFCURVE",
"504 129 OFFCURVE",
"388 129 CURVE SMOOTH"
);
}
);
};
layerId = "014D4A40-7C7F-4023-B30E-1F55CE5EA091";
paths = (
{
closed = 1;
nodes = (
"476 -223 OFFCURVE",
"522 -204 OFFCURVE",
"545 -173 CURVE",
"496 -103 LINE",
"481 -122 OFFCURVE",
"459 -134 OFFCURVE",
"441 -134 CURVE SMOOTH",
"413 -134 OFFCURVE",
"397 -120 OFFCURVE",
"397 -96 CURVE SMOOTH",
"397 -62 OFFCURVE",
"418 -30 OFFCURVE",
"530 16 CURVE SMOOTH",
"659 69 OFFCURVE",
"743 195 OFFCURVE",
"743 369 CURVE SMOOTH",
"743 580 OFFCURVE",
"608 720 OFFCURVE",
"407 720 CURVE SMOOTH",
"180 720 OFFCURVE",
"39 564 OFFCURVE",
"39 342 CURVE SMOOTH",
"39 120 OFFCURVE",
"172 -12 OFFCURVE",
"395 -10 CURVE SMOOTH",
"425 -10 LINE",
"376 12 LINE",
"307 -18 OFFCURVE",
"275 -61 OFFCURVE",
"275 -112 CURVE SMOOTH",
"275 -178 OFFCURVE",
"337 -223 OFFCURVE",
"425 -223 CURVE SMOOTH"
);
},
{
closed = 1;
nodes = (
"269 129 OFFCURVE",
"197 207 OFFCURVE",
"197 345 CURVE SMOOTH",
"197 486 OFFCURVE",
"283 582 OFFCURVE",
"403 582 CURVE SMOOTH",
"514 582 OFFCURVE",
"585 497 OFFCURVE",
"585 368 CURVE SMOOTH",
"585 217 OFFCURVE",
"504 129 OFFCURVE",
"388 129 CURVE SMOOTH"
);
}
);
width = 782;
}
);
leftKerningGroup = O;
leftMetricsKey = O;
widthMetricsKey = O;
rightKerningGroup = O;
unicode = 01EA;
},
{
color = 4;
glyphname = OE;
lastChange = "2019-04-14 21:14:52 +0000";
layers = (
{
anchors = (
{
name = bottom;
position = "{588, 0}";
},
{
name = top;
position = "{588, 710}";
}
);
background = {
anchors = (
{
name = bottom;
position = "{588, 0}";
},
{
name = top;
position = "{588, 710}";
}
);
paths = (
{
closed = 1;
nodes = (
"628 325 LINE",
"943 325 LINE",
"943 395 LINE",
"628 395 LINE",
"628 640 LINE",
"953 640 LINE",
"953 710 LINE",
"607 710 LINE SMOOTH",
"571 710 OFFCURVE",
"504 715 OFFCURVE",
"458 715 CURVE SMOOTH",
"201 715 OFFCURVE",
"64 566 OFFCURVE",
"64 340 CURVE SMOOTH",
"64 117 OFFCURVE",
"193 -4 OFFCURVE",
"437 -4 CURVE SMOOTH",
"486 -4 OFFCURVE",
"536 0 OFFCURVE",
"595 0 CURVE SMOOTH",
"960 0 LINE",
"970 71 LINE",
"628 71 LINE"
);
},
{
closed = 1;
nodes = (
"513 68 OFFCURVE",
"478 67 OFFCURVE",
"444 67 CURVE SMOOTH",
"245 67 OFFCURVE",
"148 160 OFFCURVE",
"148 344 CURVE SMOOTH",
"148 541 OFFCURVE",
"266 645 OFFCURVE",
"458 645 CURVE SMOOTH",
"497 645 OFFCURVE",
"522 642 OFFCURVE",
"547 640 CURVE",
"547 71 LINE"
);
}
);
};
layerId = "A3B50665-EA37-4AC6-885C-1233CA61B6BD";
paths = (
{
closed = 1;
nodes = (
"628 325 LINE",
"943 325 LINE",
"943 396 LINE",
"628 396 LINE",
"628 639 LINE",
"953 639 LINE",
"953 710 LINE",
"607 710 LINE SMOOTH",
"571 710 OFFCURVE",
"504 715 OFFCURVE",
"458 715 CURVE SMOOTH",
"201 715 OFFCURVE",
"64 566 OFFCURVE",
"64 340 CURVE SMOOTH",
"64 117 OFFCURVE",
"193 -4 OFFCURVE",
"437 -4 CURVE SMOOTH",
"486 -4 OFFCURVE",
"536 0 OFFCURVE",
"595 0 CURVE SMOOTH",
"960 0 LINE",
"967 71 LINE",
"628 71 LINE"
);
},
{
closed = 1;
nodes = (
"513 68 OFFCURVE",
"478 67 OFFCURVE",
"444 67 CURVE SMOOTH",
"245 67 OFFCURVE",
"148 160 OFFCURVE",
"148 344 CURVE SMOOTH",
"148 541 OFFCURVE",
"266 644 OFFCURVE",
"458 644 CURVE SMOOTH",
"497 644 OFFCURVE",
"522 641 OFFCURVE",
"547 639 CURVE",
"547 71 LINE"
);
}
);
width = 1009;
},
{
anchors = (
{
name = bottom;
position = "{589, 0}";
},
{
name = top;
position = "{589, 710}";
}
);
background = {
anchors = (
{
name = bottom;
position = "{589, 0}";
},
{
name = top;
position = "{589, 710}";
}
);
paths = (
{
closed = 1;
nodes = (
"666 290 LINE",
"962 290 LINE",
"962 426 LINE",
"666 426 LINE",
"666 574 LINE",
"982 574 LINE",
"982 710 LINE",
"633 710 LINE SMOOTH",
"588 710 OFFCURVE",
"505 716 OFFCURVE",
"453 716 CURVE SMOOTH",
"195 716 OFFCURVE",
"36 572 OFFCURVE",
"36 336 CURVE SMOOTH",
"36 119 OFFCURVE",
"174 -6 OFFCURVE",
"442 -6 CURVE SMOOTH",
"503 -6 OFFCURVE",
"554 0 OFFCURVE",
"623 0 CURVE SMOOTH",
"982 0 LINE",
"992 138 LINE",
"666 138 LINE"
);
},
{
closed = 1;
nodes = (
"485 132 OFFCURVE",
"459 130 OFFCURVE",
"432 130 CURVE SMOOTH",
"271 130 OFFCURVE",
"197 206 OFFCURVE",
"197 341 CURVE SMOOTH",
"197 495 OFFCURVE",
"286 580 OFFCURVE",
"442 580 CURVE SMOOTH",
"468 580 OFFCURVE",
"490 578 OFFCURVE",
"512 574 CURVE",
"512 136 LINE"
);
}
);
};
layerId = "014D4A40-7C7F-4023-B30E-1F55CE5EA091";
paths = (
{
closed = 1;
nodes = (
"666 292 LINE",
"962 292 LINE",
"962 424 LINE",
"666 424 LINE",
"666 578 LINE",
"982 578 LINE",
"982 710 LINE",
"623 710 LINE SMOOTH",
"558 710 OFFCURVE",
"508 716 OFFCURVE",
"446 716 CURVE SMOOTH",
"198 716 OFFCURVE",
"39 572 OFFCURVE",
"39 336 CURVE SMOOTH",
"39 119 OFFCURVE",
"177 -6 OFFCURVE",
"445 -6 CURVE SMOOTH",
"506 -6 OFFCURVE",
"554 0 OFFCURVE",
"613 0 CURVE SMOOTH",
"982 0 LINE",
"992 134 LINE",
"666 134 LINE"
);
},
{
closed = 1;
nodes = (
"485 130 OFFCURVE",
"459 128 OFFCURVE",
"432 128 CURVE SMOOTH",
"271 128 OFFCURVE",
"197 206 OFFCURVE",
"197 341 CURVE SMOOTH",
"197 495 OFFCURVE",
"286 582 OFFCURVE",
"442 582 CURVE SMOOTH",
"468 582 OFFCURVE",
"490 580 OFFCURVE",
"512 576 CURVE",
"512 134 LINE"
);
}
);
width = 1033;
}
);
leftKerningGroup = O;
leftMetricsKey = O;
rightKerningGroup = E;
rightMetricsKey = E;
unicode = 0152;
},
{
color = 4;
glyphname = P;
lastChange = "2019-04-14 21:29:41 +0000";
layers = (
{
anchors = (
{
name = bottom;
position = "{315, 0}";
},
{
name = top;
position = "{316, 710}";
}
);
background = {
anchors = (
{
name = bottom;
position = "{315, 0}";
},
{
name = top;
position = "{316, 710}";
}
);
paths = (
{
closed = 1;
nodes = (
"175 643 LINE",
"318 643 LINE SMOOTH",
"449 643 OFFCURVE",
"508 598 OFFCURVE",
"508 502 CURVE SMOOTH",
"508 405 OFFCURVE",
"451 354 OFFCURVE",
"304 354 CURVE SMOOTH",
"159 354 LINE",
"159 285 LINE",
"299 285 LINE SMOOTH",
"497 285 OFFCURVE",
"589 367 OFFCURVE",
"589 502 CURVE SMOOTH",
"589 638 OFFCURVE",
"492 711 OFFCURVE",
"326 711 CURVE SMOOTH",
"94 711 LINE",
"94 0 LINE",
"175 0 LINE"
);
}
);
};
layerId = "A3B50665-EA37-4AC6-885C-1233CA61B6BD";
paths = (
{
closed = 1;
nodes = (
"175 643 LINE",
"318 643 LINE SMOOTH",
"448 643 OFFCURVE",
"507 598 OFFCURVE",
"507 502 CURVE SMOOTH",
"507 405 OFFCURVE",
"450 354 OFFCURVE",
"304 354 CURVE SMOOTH",
"159 354 LINE",
"159 285 LINE",
"299 285 LINE SMOOTH",
"497 285 OFFCURVE",
"589 367 OFFCURVE",
"589 502 CURVE SMOOTH",
"589 638 OFFCURVE",
"492 711 OFFCURVE",
"326 711 CURVE SMOOTH",
"94 711 LINE",
"94 0 LINE",
"175 0 LINE"
);
}
);
width = 629;
},
{
anchors = (
{
name = bottom;
position = "{324, 0}";
},
{
name = top;
position = "{324, 710}";
}
);
background = {
anchors = (
{
name = bottom;
position = "{324, 0}";
},
{
name = top;
position = "{324, 710}";
}
);
paths = (
{
closed = 1;
nodes = (
"228 583 LINE",
"333 583 LINE SMOOTH",
"431 583 OFFCURVE",
"476 558 OFFCURVE",
"476 483 CURVE SMOOTH",
"476 410 OFFCURVE",
"426 380 OFFCURVE",
"320 380 CURVE SMOOTH",
"196 380 LINE",
"196 252 LINE",
"322 252 LINE SMOOTH",
"516 252 OFFCURVE",
"632 340 OFFCURVE",
"632 486 CURVE SMOOTH",
"632 632 OFFCURVE",
"531 710 OFFCURVE",
"346 710 CURVE SMOOTH",
"76 710 LINE",
"76 0 LINE",
"228 0 LINE"
);
}
);
};
layerId = "014D4A40-7C7F-4023-B30E-1F55CE5EA091";
paths = (
{
closed = 1;
nodes = (
"228 583 LINE",
"333 583 LINE SMOOTH",
"431 583 OFFCURVE",
"476 558 OFFCURVE",
"476 483 CURVE SMOOTH",
"476 410 OFFCURVE",
"426 380 OFFCURVE",
"320 380 CURVE SMOOTH",
"196 380 LINE",
"196 252 LINE",
"312 252 LINE SMOOTH",
"516 252 OFFCURVE",
"631 340 OFFCURVE",
"631 486 CURVE SMOOTH",
"631 632 OFFCURVE",
"531 710 OFFCURVE",
"336 710 CURVE SMOOTH",
"76 710 LINE",
"76 0 LINE",
"228 0 LINE"
);
}
);
width = 647;
}
);
leftKerningGroup = H;
leftMetricsKey = H;
rightKerningGroup = P;
unicode = 0050;
},
{
color = 4;
glyphname = Thorn;
lastChange = "2019-04-14 21:29:41 +0000";
layers = (
{
background = {
paths = (
{
closed = 1;
nodes = (
"175 525 LINE",
"318 525 LINE SMOOTH",
"448 525 OFFCURVE",
"507 480 OFFCURVE",
"507 384 CURVE SMOOTH",
"507 287 OFFCURVE",
"450 236 OFFCURVE",
"304 236 CURVE SMOOTH",
"159 236 LINE",
"159 167 LINE",
"299 167 LINE SMOOTH",
"497 167 OFFCURVE",
"589 249 OFFCURVE",
"589 384 CURVE SMOOTH",
"589 520 OFFCURVE",
"492 593 OFFCURVE",
"326 593 CURVE SMOOTH",
"94 593 LINE",
"94 -118 LINE",
"175 -118 LINE"
);
}
);
};
layerId = "A3B50665-EA37-4AC6-885C-1233CA61B6BD";
paths = (
{
closed = 1;
nodes = (
"158 525 LINE",
"318 525 LINE SMOOTH",
"448 525 OFFCURVE",
"507 480 OFFCURVE",
"507 384 CURVE SMOOTH",
"507 287 OFFCURVE",
"450 236 OFFCURVE",
"304 236 CURVE SMOOTH",
"158 236 LINE",
"158 167 LINE",
"299 167 LINE SMOOTH",
"497 167 OFFCURVE",
"589 249 OFFCURVE",
"589 384 CURVE SMOOTH",
"589 520 OFFCURVE",
"492 593 OFFCURVE",
"326 593 CURVE SMOOTH",
"158 593 LINE"
);
},
{
closed = 1;
nodes = (
"94 711 LINE",
"94 0 LINE",
"175 0 LINE",
"175 710 LINE"
);
}
);
width = 628;
},
{
background = {
paths = (
{
closed = 1;
nodes = (
"228 482 LINE",
"333 482 LINE SMOOTH",
"431 482 OFFCURVE",
"476 457 OFFCURVE",
"476 382 CURVE SMOOTH",
"476 309 OFFCURVE",
"426 279 OFFCURVE",
"320 279 CURVE SMOOTH",
"196 279 LINE",
"196 151 LINE",
"312 151 LINE SMOOTH",
"516 151 OFFCURVE",
"631 239 OFFCURVE",
"631 385 CURVE SMOOTH",
"631 531 OFFCURVE",
"531 609 OFFCURVE",
"336 609 CURVE SMOOTH",
"76 609 LINE",
"76 -101 LINE",
"228 -101 LINE"
);
}
);
};
layerId = "014D4A40-7C7F-4023-B30E-1F55CE5EA091";
paths = (
{
closed = 1;
nodes = (
"199 482 LINE",
"333 482 LINE SMOOTH",
"431 482 OFFCURVE",
"476 457 OFFCURVE",
"476 382 CURVE SMOOTH",
"476 309 OFFCURVE",
"426 279 OFFCURVE",
"320 279 CURVE SMOOTH",
"199 279 LINE",
"199 151 LINE",
"312 151 LINE SMOOTH",
"516 151 OFFCURVE",
"631 239 OFFCURVE",
"631 385 CURVE SMOOTH",
"631 531 OFFCURVE",
"531 609 OFFCURVE",
"336 609 CURVE SMOOTH",
"199 609 LINE"
);
},
{
closed = 1;
nodes = (
"76 710 LINE",
"76 0 LINE",
"228 0 LINE",
"228 710 LINE"
);
}
);
width = 647;
}
);
leftKerningGroup = H;
rightKerningGroup = P;
unicode = 00DE;
},
{
color = 4;
glyphname = Q;
lastChange = "2019-04-14 21:14:29 +0000";
layers = (
{
anchors = (
{
name = top;
position = "{391, 710}";
}
);
background = {
anchors = (
{
name = top;
position = "{391, 710}";
}
);
paths = (
{
closed = 1;
nodes = (
"578 -8 OFFCURVE",
"717 139 OFFCURVE",
"717 369 CURVE SMOOTH",
"717 580 OFFCURVE",
"592 720 OFFCURVE",
"405 720 CURVE SMOOTH",
"204 720 OFFCURVE",
"64 564 OFFCURVE",
"64 342 CURVE SMOOTH",
"64 120 OFFCURVE",
"187 -8 OFFCURVE",
"387 -8 CURVE SMOOTH"
);
},
{
closed = 1;
nodes = (
"238 68 OFFCURVE",
"147 166 OFFCURVE",
"147 342 CURVE SMOOTH",
"147 524 OFFCURVE",
"255 645 OFFCURVE",
"406 645 CURVE SMOOTH",
"546 645 OFFCURVE",
"635 538 OFFCURVE",
"635 371 CURVE SMOOTH",
"635 179 OFFCURVE",
"533 68 OFFCURVE",
"387 68 CURVE SMOOTH"
);
},
{
closed = 1;
nodes = (
"336 -10 LINE SMOOTH",
"336 -141 OFFCURVE",
"403 -208 OFFCURVE",
"521 -208 CURVE SMOOTH",
"609 -208 OFFCURVE",
"667 -160 OFFCURVE",
"679 -76 CURVE",
"613 -68 LINE",
"607 -112 OFFCURVE",
"573 -141 OFFCURVE",
"522 -141 CURVE SMOOTH",
"449 -141 OFFCURVE",
"416 -104 OFFCURVE",
"416 -12 CURVE SMOOTH",
"416 47 LINE",
"336 47 LINE"
);
}
);
};
guideLines = (
{
angle = 90;
position = "{746, 356}";
},
{
angle = 90;
position = "{809, 356}";
}
);
layerId = "A3B50665-EA37-4AC6-885C-1233CA61B6BD";
paths = (
{
closed = 1;
nodes = (
"336 -10 LINE SMOOTH",
"336 -141 OFFCURVE",
"403 -208 OFFCURVE",
"521 -208 CURVE SMOOTH",
"609 -208 OFFCURVE",
"667 -160 OFFCURVE",
"679 -76 CURVE",
"613 -68 LINE",
"607 -112 OFFCURVE",
"573 -141 OFFCURVE",
"522 -141 CURVE SMOOTH",
"449 -141 OFFCURVE",
"416 -104 OFFCURVE",
"416 -12 CURVE SMOOTH",
"416 47 LINE",
"336 47 LINE"
);
},
{
closed = 1;
nodes = (
"580 -8 OFFCURVE",
"720 139 OFFCURVE",
"720 369 CURVE SMOOTH",
"720 580 OFFCURVE",
"594 720 OFFCURVE",
"406 720 CURVE SMOOTH",
"204 720 OFFCURVE",
"64 564 OFFCURVE",
"64 342 CURVE SMOOTH",
"64 120 OFFCURVE",
"187 -8 OFFCURVE",
"388 -8 CURVE SMOOTH"
);
},
{
closed = 1;
nodes = (
"239 68 OFFCURVE",
"148 166 OFFCURVE",
"148 342 CURVE SMOOTH",
"148 524 OFFCURVE",
"256 644 OFFCURVE",
"407 644 CURVE SMOOTH",
"547 644 OFFCURVE",
"636 538 OFFCURVE",
"636 371 CURVE SMOOTH",
"636 179 OFFCURVE",
"534 68 OFFCURVE",
"388 68 CURVE SMOOTH"
);
}
);
width = 784;
},
{
anchors = (
{
name = top;
position = "{392, 710}";
}
);
background = {
anchors = (
{
name = top;
position = "{392, 710}";
}
);
paths = (
{
closed = 1;
nodes = (
"598 -8 OFFCURVE",
"744 139 OFFCURVE",
"744 369 CURVE SMOOTH",
"744 580 OFFCURVE",
"610 720 OFFCURVE",
"408 720 CURVE SMOOTH",
"180 720 OFFCURVE",
"39 564 OFFCURVE",
"39 342 CURVE SMOOTH",
"39 120 OFFCURVE",
"172 -12 OFFCURVE",
"395 -10 CURVE SMOOTH"
);
},
{
closed = 1;
nodes = (
"270 129 OFFCURVE",
"198 207 OFFCURVE",
"198 345 CURVE SMOOTH",
"198 486 OFFCURVE",
"284 582 OFFCURVE",
"404 582 CURVE SMOOTH",
"515 582 OFFCURVE",
"586 497 OFFCURVE",
"586 368 CURVE SMOOTH",
"586 217 OFFCURVE",
"505 129 OFFCURVE",
"389 129 CURVE SMOOTH"
);
},
{
closed = 1;
nodes = (
"312 5 LINE SMOOTH",
"312 -128 OFFCURVE",
"394 -210 OFFCURVE",
"531 -210 CURVE SMOOTH",
"631 -210 OFFCURVE",
"705 -161 OFFCURVE",
"717 -57 CURVE",
"591 -42 LINE",
"587 -71 OFFCURVE",
"564 -87 OFFCURVE",
"532 -87 CURVE SMOOTH",
"486 -87 OFFCURVE",
"464 -61 OFFCURVE",
"464 -4 CURVE SMOOTH",
"464 80 LINE",
"312 80 LINE"
);
}
);
};
layerId = "014D4A40-7C7F-4023-B30E-1F55CE5EA091";
paths = (
{
closed = 1;
nodes = (
"312 5 LINE SMOOTH",
"312 -128 OFFCURVE",
"394 -210 OFFCURVE",
"531 -210 CURVE SMOOTH",
"631 -210 OFFCURVE",
"705 -161 OFFCURVE",
"717 -57 CURVE",
"591 -42 LINE",
"587 -71 OFFCURVE",
"564 -87 OFFCURVE",
"532 -87 CURVE SMOOTH",
"486 -87 OFFCURVE",
"464 -61 OFFCURVE",
"464 -4 CURVE SMOOTH",
"464 80 LINE",
"312 80 LINE"
);
},
{
closed = 1;
nodes = (
"596 -8 OFFCURVE",
"743 139 OFFCURVE",
"743 369 CURVE SMOOTH",
"743 580 OFFCURVE",
"608 720 OFFCURVE",
"407 720 CURVE SMOOTH",
"180 720 OFFCURVE",
"39 564 OFFCURVE",
"39 342 CURVE SMOOTH",
"39 120 OFFCURVE",
"172 -12 OFFCURVE",
"394 -10 CURVE SMOOTH"
);
},
{
closed = 1;
nodes = (
"269 129 OFFCURVE",
"197 207 OFFCURVE",
"197 345 CURVE SMOOTH",
"197 486 OFFCURVE",
"283 582 OFFCURVE",
"403 582 CURVE SMOOTH",
"514 582 OFFCURVE",
"585 497 OFFCURVE",
"585 368 CURVE SMOOTH",
"585 217 OFFCURVE",
"504 129 OFFCURVE",
"388 129 CURVE SMOOTH"
);
}
);
width = 782;
}
);
leftKerningGroup = O;
leftMetricsKey = O;
widthMetricsKey = O;
rightKerningGroup = O;
unicode = 0051;
},
{
color = 4;
glyphname = R;
lastChange = "2019-04-14 21:29:54 +0000";
layers = (
{
anchors = (
{
name = bottom;
position = "{326, 0}";
},
{
name = top;
position = "{326, 710}";
}
);
background = {
anchors = (
{
name = bottom;
position = "{347, 0}";
},
{
name = top;
position = "{346, 710}";
}
);
paths = (
{
closed = 1;
nodes = (
"595 72 OFFCURVE",
"577 66 OFFCURVE",
"557 66 CURVE SMOOTH",
"512 66 OFFCURVE",
"494 79 OFFCURVE",
"456 134 CURVE SMOOTH",
"367 265 LINE SMOOTH",
"335 312 OFFCURVE",
"307 331 OFFCURVE",
"268 331 CURVE",
"262 321 LINE",
"311 321 LINE SMOOTH",
"438 321 OFFCURVE",
"544 386 OFFCURVE",
"544 516 CURVE SMOOTH",
"544 636 OFFCURVE",
"448 710 OFFCURVE",
"296 710 CURVE SMOOTH",
"94 710 LINE",
"94 0 LINE",
"175 0 LINE",
"175 642 LINE",
"290 642 LINE SMOOTH",
"400 642 OFFCURVE",
"463 594 OFFCURVE",
"463 514 CURVE SMOOTH",
"463 424 OFFCURVE",
"397 386 OFFCURVE",
"280 386 CURVE SMOOTH",
"159 386 LINE",
"159 319 LINE",
"199 319 LINE SMOOTH",
"223 319 OFFCURVE",
"248 301 OFFCURVE",
"266 275 CURVE SMOOTH",
"396 83 LINE SMOOTH",
"440 18 OFFCURVE",
"486 -6 OFFCURVE",
"544 -6 CURVE SMOOTH",
"579 -6 OFFCURVE",
"608 2 OFFCURVE",
"629 18 CURVE",
"611 82 LINE"
);
}
);
};
guideLines = (
{
angle = 124.1013;
position = "{435, 179}";
}
);
layerId = "A3B50665-EA37-4AC6-885C-1233CA61B6BD";
paths = (
{
closed = 1;
nodes = (
"595 72 OFFCURVE",
"577 66 OFFCURVE",
"557 66 CURVE SMOOTH",
"512 66 OFFCURVE",
"494 79 OFFCURVE",
"456 134 CURVE SMOOTH",
"367 265 LINE SMOOTH",
"335 312 OFFCURVE",
"307 331 OFFCURVE",
"268 331 CURVE",
"262 321 LINE",
"311 321 LINE SMOOTH",
"438 321 OFFCURVE",
"545 386 OFFCURVE",
"545 516 CURVE SMOOTH",
"545 636 OFFCURVE",
"457 710 OFFCURVE",
"296 710 CURVE SMOOTH",
"94 710 LINE",
"94 0 LINE",
"175 0 LINE",
"175 642 LINE",
"290 642 LINE SMOOTH",
"409 642 OFFCURVE",
"463 594 OFFCURVE",
"463 514 CURVE SMOOTH",
"463 424 OFFCURVE",
"397 385 OFFCURVE",
"280 385 CURVE SMOOTH",
"159 385 LINE",
"159 319 LINE",
"199 319 LINE SMOOTH",
"223 319 OFFCURVE",
"248 301 OFFCURVE",
"266 275 CURVE SMOOTH",
"396 83 LINE SMOOTH",
"440 18 OFFCURVE",
"486 -6 OFFCURVE",
"544 -6 CURVE SMOOTH",
"579 -6 OFFCURVE",
"608 2 OFFCURVE",
"629 18 CURVE",
"611 82 LINE"
);
}
);
width = 624;
},
{
anchors = (
{
name = bottom;
position = "{348, 0}";
},
{
name = top;
position = "{348, 710}";
}
);
background = {
anchors = (
{
name = bottom;
position = "{358, 0}";
},
{
name = top;
position = "{358, 710}";
}
);
paths = (
{
closed = 1;
nodes = (
"640 132 OFFCURVE",
"618 127 OFFCURVE",
"593 127 CURVE SMOOTH",
"556 127 OFFCURVE",
"532 141 OFFCURVE",
"508 177 CURVE SMOOTH",
"470 234 LINE SMOOTH",
"439 280 OFFCURVE",
"403 300 OFFCURVE",
"361 300 CURVE",
"317 282 LINE",
"344 282 LINE SMOOTH",
"491 282 OFFCURVE",
"597 357 OFFCURVE",
"597 491 CURVE SMOOTH",
"597 627 OFFCURVE",
"499 710 OFFCURVE",
"306 710 CURVE SMOOTH",
"76 710 LINE",
"76 0 LINE",
"229 0 LINE",
"229 583 LINE",
"298 583 LINE SMOOTH",
"389 583 OFFCURVE",
"441 555 OFFCURVE",
"441 492 CURVE SMOOTH",
"441 428 OFFCURVE",
"398 400 OFFCURVE",
"294 400 CURVE SMOOTH",
"196 400 LINE",
"196 279 LINE",
"223 279 LINE SMOOTH",
"251 279 OFFCURVE",
"273 270 OFFCURVE",
"296 234 CURVE SMOOTH",
"385 93 LINE SMOOTH",
"427 26 OFFCURVE",
"491 -10 OFFCURVE",
"574 -10 CURVE SMOOTH",
"621 -10 OFFCURVE",
"669 4 OFFCURVE",
"697 26 CURVE",
"661 146 LINE"
);
}
);
};
guideLines = (
{
angle = 122.1118;
position = "{521, 170}";
}
);
layerId = "014D4A40-7C7F-4023-B30E-1F55CE5EA091";
paths = (
{
closed = 1;
nodes = (
"640 132 OFFCURVE",
"618 127 OFFCURVE",
"593 127 CURVE SMOOTH",
"556 127 OFFCURVE",
"532 141 OFFCURVE",
"508 177 CURVE SMOOTH",
"470 234 LINE SMOOTH",
"439 280 OFFCURVE",
"403 300 OFFCURVE",
"361 300 CURVE",
"317 282 LINE",
"344 282 LINE SMOOTH",
"485 282 OFFCURVE",
"596 357 OFFCURVE",
"596 491 CURVE SMOOTH",
"596 627 OFFCURVE",
"499 710 OFFCURVE",
"308 710 CURVE SMOOTH",
"76 710 LINE",
"76 0 LINE",
"229 0 LINE",
"229 583 LINE",
"298 583 LINE SMOOTH",
"389 583 OFFCURVE",
"441 555 OFFCURVE",
"441 492 CURVE SMOOTH",
"441 428 OFFCURVE",
"398 400 OFFCURVE",
"294 400 CURVE SMOOTH",
"196 400 LINE",
"196 279 LINE",
"223 279 LINE SMOOTH",
"251 279 OFFCURVE",
"272 270 OFFCURVE",
"295 234 CURVE SMOOTH",
"384 93 LINE SMOOTH",
"426 26 OFFCURVE",
"491 -10 OFFCURVE",
"574 -10 CURVE SMOOTH",
"621 -10 OFFCURVE",
"669 4 OFFCURVE",
"697 26 CURVE",
"661 146 LINE"
);
}
);
width = 678;
}
);
leftKerningGroup = H;
leftMetricsKey = H;
rightKerningGroup = R;
unicode = 0052;
},
{
color = 4;
glyphname = S;
lastChange = "2019-04-14 21:30:11 +0000";
layers = (
{
anchors = (
{
name = bottom;
position = "{303, 0}";
},
{
name = top;
position = "{303, 710}";
}
);
background = {
anchors = (
{
name = bottom;
position = "{294, 0}";
},
{
name = top;
position = "{294, 710}";
}
);
paths = (
{
closed = 1;
nodes = (
"446 -8 OFFCURVE",
"545 72 OFFCURVE",
"545 188 CURVE SMOOTH",
"545 455 OFFCURVE",
"168 309 OFFCURVE",
"168 517 CURVE SMOOTH",
"168 596 OFFCURVE",
"226 648 OFFCURVE",
"314 648 CURVE SMOOTH",
"401 648 OFFCURVE",
"448 608 OFFCURVE",
"466 518 CURVE",
"538 530 LINE",
"523 649 OFFCURVE",
"441 720 OFFCURVE",
"316 720 CURVE SMOOTH",
"183 720 OFFCURVE",
"86 633 OFFCURVE",
"86 514 CURVE SMOOTH",
"86 234 OFFCURVE",
"463 377 OFFCURVE",
"463 187 CURVE SMOOTH",
"463 111 OFFCURVE",
"405 65 OFFCURVE",
"309 65 CURVE SMOOTH",
"194 65 OFFCURVE",
"138 111 OFFCURVE",
"119 221 CURVE",
"42 210 LINE",
"58 66 OFFCURVE",
"147 -8 OFFCURVE",
"303 -8 CURVE SMOOTH"
);
}
);
};
layerId = "A3B50665-EA37-4AC6-885C-1233CA61B6BD";
paths = (
{
closed = 1;
nodes = (
"446 -8 OFFCURVE",
"545 72 OFFCURVE",
"545 188 CURVE SMOOTH",
"545 455 OFFCURVE",
"168 309 OFFCURVE",
"168 517 CURVE SMOOTH",
"168 596 OFFCURVE",
"226 648 OFFCURVE",
"314 648 CURVE SMOOTH",
"401 648 OFFCURVE",
"448 608 OFFCURVE",
"466 518 CURVE",
"538 530 LINE",
"523 649 OFFCURVE",
"441 720 OFFCURVE",
"316 720 CURVE SMOOTH",
"183 720 OFFCURVE",
"86 633 OFFCURVE",
"86 514 CURVE SMOOTH",
"86 234 OFFCURVE",
"463 377 OFFCURVE",
"463 187 CURVE SMOOTH",
"463 111 OFFCURVE",
"405 64 OFFCURVE",
"309 64 CURVE SMOOTH",
"194 64 OFFCURVE",
"138 111 OFFCURVE",
"119 221 CURVE",
"42 210 LINE",
"58 66 OFFCURVE",
"147 -8 OFFCURVE",
"303 -8 CURVE SMOOTH"
);
}
);
width = 588;
},
{
anchors = (
{
name = bottom;
position = "{317, 0}";
},
{
name = top;
position = "{317, 710}";
}
);
background = {
anchors = (
{
name = bottom;
position = "{308, 0}";
},
{
name = top;
position = "{308, 710}";
}
);
paths = (
{
closed = 1;
nodes = (
"473 -9 OFFCURVE",
"585 80 OFFCURVE",
"585 210 CURVE SMOOTH",
"585 464 OFFCURVE",
"229 368 OFFCURVE",
"229 509 CURVE SMOOTH",
"229 558 OFFCURVE",
"268 590 OFFCURVE",
"328 590 CURVE SMOOTH",
"390 590 OFFCURVE",
"431 558 OFFCURVE",
"442 500 CURVE",
"578 523 LINE",
"564 645 OFFCURVE",
"471 720 OFFCURVE",
"335 720 CURVE SMOOTH",
"177 720 OFFCURVE",
"69 628 OFFCURVE",
"69 497 CURVE SMOOTH",
"69 234 OFFCURVE",
"425 325 OFFCURVE",
"425 197 CURVE SMOOTH",
"425 149 OFFCURVE",
"385 122 OFFCURVE",
"313 122 CURVE SMOOTH",
"228 122 OFFCURVE",
"179 160 OFFCURVE",
"170 233 CURVE",
"26 212 LINE",
"38 67 OFFCURVE",
"135 -9 OFFCURVE",
"307 -9 CURVE SMOOTH"
);
}
);
};
layerId = "014D4A40-7C7F-4023-B30E-1F55CE5EA091";
paths = (
{
closed = 1;
nodes = (
"473 -9 OFFCURVE",
"585 80 OFFCURVE",
"585 210 CURVE SMOOTH",
"585 464 OFFCURVE",
"226 368 OFFCURVE",
"226 509 CURVE SMOOTH",
"226 558 OFFCURVE",
"267 590 OFFCURVE",
"328 590 CURVE SMOOTH",
"390 590 OFFCURVE",
"431 558 OFFCURVE",
"442 500 CURVE",
"579 523 LINE",
"565 645 OFFCURVE",
"472 720 OFFCURVE",
"335 720 CURVE SMOOTH",
"177 720 OFFCURVE",
"69 628 OFFCURVE",
"69 497 CURVE SMOOTH",
"68 234 OFFCURVE",
"428 325 OFFCURVE",
"428 197 CURVE SMOOTH",
"428 149 OFFCURVE",
"386 121 OFFCURVE",
"313 121 CURVE SMOOTH",
"228 121 OFFCURVE",
"179 160 OFFCURVE",
"170 233 CURVE",
"25 212 LINE",
"37 67 OFFCURVE",
"134 -9 OFFCURVE",
"307 -9 CURVE SMOOTH"
);
}
);
width = 616;
}
);
leftKerningGroup = S;
note = s;
rightKerningGroup = S;
unicode = 0053;
},
{
color = 4;
glyphname = Germandbls;
lastChange = "2019-04-14 21:30:01 +0000";
layers = (
{
background = {
paths = (
{
closed = 1;
nodes = (
"201 720 OFFCURVE",
"94 617 OFFCURVE",
"94 432 CURVE SMOOTH",
"94 0 LINE",
"177 0 LINE",
"177 434 LINE SMOOTH",
"177 576 OFFCURVE",
"250 649 OFFCURVE",
"395 649 CURVE SMOOTH",
"498 649 OFFCURVE",
"560 599 OFFCURVE",
"560 517 CURVE SMOOTH",
"560 440 OFFCURVE",
"505 392 OFFCURVE",
"421 392 CURVE SMOOTH",
"367 392 LINE",
"367 323 LINE",
"422 323 LINE SMOOTH",
"525 323 OFFCURVE",
"584 273 OFFCURVE",
"584 183 CURVE SMOOTH",
"584 110 OFFCURVE",
"534 64 OFFCURVE",
"457 64 CURVE SMOOTH",
"371 64 OFFCURVE",
"320 107 OFFCURVE",
"304 194 CURVE",
"233 174 LINE",
"252 58 OFFCURVE",
"332 -8 OFFCURVE",
"457 -8 CURVE SMOOTH",
"582 -8 OFFCURVE",
"665 66 OFFCURVE",
"665 178 CURVE SMOOTH",
"665 280 OFFCURVE",
"602 351 OFFCURVE",
"496 370 CURVE",
"496 351 LINE",
"584 372 OFFCURVE",
"641 430 OFFCURVE",
"641 520 CURVE SMOOTH",
"641 641 OFFCURVE",
"545 720 OFFCURVE",
"395 720 CURVE SMOOTH"
);
}
);
};
layerId = "A3B50665-EA37-4AC6-885C-1233CA61B6BD";
paths = (
{
closed = 1;
nodes = (
"201 720 OFFCURVE",
"94 617 OFFCURVE",
"94 432 CURVE SMOOTH",
"94 0 LINE",
"177 0 LINE",
"177 434 LINE SMOOTH",
"177 576 OFFCURVE",
"250 649 OFFCURVE",
"395 649 CURVE SMOOTH",
"498 649 OFFCURVE",
"560 599 OFFCURVE",
"560 517 CURVE SMOOTH",
"560 440 OFFCURVE",
"505 392 OFFCURVE",
"421 392 CURVE SMOOTH",
"367 392 LINE",
"367 323 LINE",
"422 323 LINE SMOOTH",
"525 323 OFFCURVE",
"584 273 OFFCURVE",
"584 183 CURVE SMOOTH",
"584 110 OFFCURVE",
"534 63 OFFCURVE",
"457 63 CURVE SMOOTH",
"371 63 OFFCURVE",
"320 107 OFFCURVE",
"304 194 CURVE",
"233 174 LINE",
"252 58 OFFCURVE",
"332 -8 OFFCURVE",
"457 -8 CURVE SMOOTH",
"582 -8 OFFCURVE",
"666 66 OFFCURVE",
"666 178 CURVE SMOOTH",
"666 280 OFFCURVE",
"602 351 OFFCURVE",
"496 370 CURVE",
"496 351 LINE",
"584 372 OFFCURVE",
"642 430 OFFCURVE",
"642 520 CURVE SMOOTH",
"642 641 OFFCURVE",
"545 720 OFFCURVE",
"395 720 CURVE SMOOTH"
);
}
);
width = 727;
},
{
background = {
paths = (
{
closed = 1;
nodes = (
"196 720 OFFCURVE",
"76 606 OFFCURVE",
"76 396 CURVE SMOOTH",
"76 0 LINE",
"232 0 LINE",
"232 399 LINE SMOOTH",
"232 528 OFFCURVE",
"293 590 OFFCURVE",
"420 590 CURVE SMOOTH",
"497 590 OFFCURVE",
"548 558 OFFCURVE",
"548 503 CURVE SMOOTH",
"548 448 OFFCURVE",
"510 423 OFFCURVE",
"432 423 CURVE SMOOTH",
"381 423 LINE",
"381 294 LINE",
"451 294 LINE SMOOTH",
"533 294 OFFCURVE",
"574 264 OFFCURVE",
"574 203 CURVE SMOOTH",
"574 153 OFFCURVE",
"544 123 OFFCURVE",
"494 123 CURVE SMOOTH",
"441 123 OFFCURVE",
"405 157 OFFCURVE",
"398 214 CURVE",
"267 179 LINE",
"287 60 OFFCURVE",
"369 -10 OFFCURVE",
"497 -10 CURVE SMOOTH",
"634 -10 OFFCURVE",
"724 68 OFFCURVE",
"724 188 CURVE SMOOTH",
"724 282 OFFCURVE",
"666 350 OFFCURVE",
"564 375 CURVE",
"562 355 LINE",
"650 376 OFFCURVE",
"698 430 OFFCURVE",
"698 515 CURVE SMOOTH",
"698 641 OFFCURVE",
"589 720 OFFCURVE",
"421 720 CURVE SMOOTH"
);
}
);
};
layerId = "014D4A40-7C7F-4023-B30E-1F55CE5EA091";
paths = (
{
closed = 1;
nodes = (
"196 720 OFFCURVE",
"76 606 OFFCURVE",
"76 392 CURVE SMOOTH",
"76 0 LINE",
"232 0 LINE",
"232 399 LINE SMOOTH",
"232 528 OFFCURVE",
"293 589 OFFCURVE",
"420 589 CURVE SMOOTH",
"497 589 OFFCURVE",
"548 558 OFFCURVE",
"548 503 CURVE SMOOTH",
"548 448 OFFCURVE",
"510 423 OFFCURVE",
"432 423 CURVE SMOOTH",
"381 423 LINE",
"381 294 LINE",
"451 294 LINE SMOOTH",
"533 294 OFFCURVE",
"574 264 OFFCURVE",
"574 203 CURVE SMOOTH",
"574 153 OFFCURVE",
"544 123 OFFCURVE",
"494 123 CURVE SMOOTH",
"441 123 OFFCURVE",
"405 157 OFFCURVE",
"398 214 CURVE",
"265 179 LINE",
"285 60 OFFCURVE",
"367 -10 OFFCURVE",
"497 -10 CURVE SMOOTH",
"639 -10 OFFCURVE",
"729 68 OFFCURVE",
"729 188 CURVE SMOOTH",
"729 282 OFFCURVE",
"671 351 OFFCURVE",
"569 376 CURVE",
"567 356 LINE",
"655 377 OFFCURVE",
"703 430 OFFCURVE",
"703 515 CURVE SMOOTH",
"703 641 OFFCURVE",
"594 720 OFFCURVE",
"421 720 CURVE SMOOTH"
);
}
);
width = 772;
}
);
leftKerningGroup = H;
leftMetricsKey = H;
rightKerningGroup = B;
rightMetricsKey = B;
unicode = 1E9E;
},
{
color = 3;
glyphname = Schwa;
lastChange = "2019-04-14 21:14:29 +0000";
layers = (
{
background = {
paths = (
{
closed = 1;
nodes = (
"1364 -8 OFFCURVE",
"1504 139 OFFCURVE",
"1504 369 CURVE SMOOTH",
"1504 580 OFFCURVE",
"1378 720 OFFCURVE",
"1190 720 CURVE SMOOTH",
"988 720 OFFCURVE",
"848 564 OFFCURVE",
"848 342 CURVE SMOOTH",
"848 120 OFFCURVE",
"971 -8 OFFCURVE",
"1172 -8 CURVE SMOOTH"
);
},
{
closed = 1;
nodes = (
"1023 68 OFFCURVE",
"932 166 OFFCURVE",
"932 342 CURVE SMOOTH",
"932 524 OFFCURVE",
"1040 644 OFFCURVE",
"1191 644 CURVE SMOOTH",
"1331 644 OFFCURVE",
"1420 538 OFFCURVE",
"1420 371 CURVE SMOOTH",
"1420 179 OFFCURVE",
"1318 68 OFFCURVE",
"1172 68 CURVE SMOOTH"
);
},
{
closed = 1;
nodes = (
"175 528 LINE",
"216 604 OFFCURVE",
"286 644 OFFCURVE",
"378 644 CURVE SMOOTH",
"530 644 OFFCURVE",
"620 543 OFFCURVE",
"620 370 CURVE SMOOTH",
"620 191 OFFCURVE",
"514 68 OFFCURVE",
"363 68 CURVE SMOOTH",
"278 68 OFFCURVE",
"215 103 OFFCURVE",
"175 175 CURVE",
"111 127 LINE",
"163 38 OFFCURVE",
"249 -8 OFFCURVE",
"361 -8 CURVE SMOOTH",
"565 -8 OFFCURVE",
"704 146 OFFCURVE",
"704 370 CURVE SMOOTH",
"704 588 OFFCURVE",
"581 720 OFFCURVE",
"378 720 CURVE SMOOTH",
"260 720 OFFCURVE",
"164 669 OFFCURVE",
"112 576 CURVE"
);
},
{
closed = 1;
nodes = (
"253 720 OFFCURVE",
"153 671 OFFCURVE",
"92 576 CURVE",
"155 528 LINE",
"206 607 OFFCURVE",
"279 644 OFFCURVE",
"378 644 CURVE SMOOTH",
"527 644 OFFCURVE",
"621 551 OFFCURVE",
"621 372 CURVE SMOOTH",
"621 351 LINE SMOOTH",
"621 154 OFFCURVE",
"516 65 OFFCURVE",
"378 65 CURVE SMOOTH",
"222 65 OFFCURVE",
"139 169 OFFCURVE",
"153 334 CURVE",
"134 317 LINE",
"663 317 LINE",
"663 386 LINE",
"68 386 LINE",
"40 146 OFFCURVE",
"160 -8 OFFCURVE",
"378 -8 CURVE SMOOTH",
"568 -8 OFFCURVE",
"704 126 OFFCURVE",
"704 366 CURVE SMOOTH",
"704 587 OFFCURVE",
"579 720 OFFCURVE",
"378 720 CURVE SMOOTH"
);
}
);
};
layerId = "A3B50665-EA37-4AC6-885C-1233CA61B6BD";
paths = (
{
closed = 1;
nodes = (
"259 720 OFFCURVE",
"159 671 OFFCURVE",
"98 576 CURVE",
"161 528 LINE",
"212 607 OFFCURVE",
"285 644 OFFCURVE",
"381 644 CURVE SMOOTH",
"527 644 OFFCURVE",
"621 551 OFFCURVE",
"621 368 CURVE SMOOTH",
"621 347 LINE SMOOTH",
"621 154 OFFCURVE",
"516 65 OFFCURVE",
"378 65 CURVE SMOOTH",
"222 65 OFFCURVE",
"139 169 OFFCURVE",
"153 330 CURVE",
"134 313 LINE",
"663 313 LINE",
"663 382 LINE",
"68 382 LINE",
"40 146 OFFCURVE",
"159 -8 OFFCURVE",
"376 -8 CURVE SMOOTH",
"567 -8 OFFCURVE",
"704 126 OFFCURVE",
"704 366 CURVE SMOOTH",
"704 587 OFFCURVE",
"579 720 OFFCURVE",
"381 720 CURVE SMOOTH"
);
}
);
width = 768;
},
{
background = {
paths = (
{
closed = 1;
nodes = (
"205 481 LINE",
"243 549 OFFCURVE",
"310 581 OFFCURVE",
"377 581 CURVE SMOOTH",
"506 581 OFFCURVE",
"581 502 OFFCURVE",
"581 366 CURVE SMOOTH",
"581 226 OFFCURVE",
"493 129 OFFCURVE",
"365 129 CURVE SMOOTH",
"302 129 OFFCURVE",
"241 156 OFFCURVE",
"207 219 CURVE",
"88 134 LINE",
"150 37 OFFCURVE",
"236 -10 OFFCURVE",
"364 -10 CURVE SMOOTH",
"587 -10 OFFCURVE",
"740 144 OFFCURVE",
"740 369 CURVE SMOOTH",
"740 588 OFFCURVE",
"606 720 OFFCURVE",
"379 720 CURVE SMOOTH",
"254 720 OFFCURVE",
"147 667 OFFCURVE",
"89 571 CURVE"
);
},
{
closed = 1;
nodes = (
"-507 -8 OFFCURVE",
"-360 139 OFFCURVE",
"-360 369 CURVE SMOOTH",
"-360 580 OFFCURVE",
"-495 720 OFFCURVE",
"-696 720 CURVE SMOOTH",
"-923 720 OFFCURVE",
"-1064 564 OFFCURVE",
"-1064 342 CURVE SMOOTH",
"-1064 120 OFFCURVE",
"-931 -12 OFFCURVE",
"-709 -10 CURVE SMOOTH"
);
},
{
closed = 1;
nodes = (
"-834 129 OFFCURVE",
"-906 207 OFFCURVE",
"-906 345 CURVE SMOOTH",
"-906 486 OFFCURVE",
"-820 582 OFFCURVE",
"-700 582 CURVE SMOOTH",
"-589 582 OFFCURVE",
"-518 497 OFFCURVE",
"-518 368 CURVE SMOOTH",
"-518 217 OFFCURVE",
"-599 129 OFFCURVE",
"-715 129 CURVE SMOOTH"
);
},
{
closed = 1;
nodes = (
"245 720 OFFCURVE",
"134 661 OFFCURVE",
"69 571 CURVE",
"185 481 LINE",
"231 547 OFFCURVE",
"301 581 OFFCURVE",
"382 581 CURVE SMOOTH",
"507 581 OFFCURVE",
"581 505 OFFCURVE",
"581 383 CURVE SMOOTH",
"581 349 LINE SMOOTH",
"581 210 OFFCURVE",
"511 127 OFFCURVE",
"390 127 CURVE SMOOTH",
"266 127 OFFCURVE",
"208 186 OFFCURVE",
"211 304 CURVE",
"179 282 LINE",
"649 282 LINE",
"649 409 LINE",
"44 409 LINE",
"9 158 OFFCURVE",
"145 -10 OFFCURVE",
"384 -10 CURVE SMOOTH",
"592 -10 OFFCURVE",
"740 145 OFFCURVE",
"740 364 CURVE SMOOTH",
"740 584 OFFCURVE",
"605 720 OFFCURVE",
"381 720 CURVE SMOOTH"
);
}
);
};
layerId = "014D4A40-7C7F-4023-B30E-1F55CE5EA091";
paths = (
{
closed = 1;
nodes = (
"245 720 OFFCURVE",
"134 661 OFFCURVE",
"69 571 CURVE",
"185 481 LINE",
"231 547 OFFCURVE",
"301 581 OFFCURVE",
"382 581 CURVE SMOOTH",
"507 581 OFFCURVE",
"581 505 OFFCURVE",
"581 380 CURVE SMOOTH",
"581 346 LINE SMOOTH",
"581 210 OFFCURVE",
"511 127 OFFCURVE",
"390 127 CURVE SMOOTH",
"266 127 OFFCURVE",
"209 186 OFFCURVE",
"209 301 CURVE",
"179 279 LINE",
"649 279 LINE",
"649 406 LINE",
"44 406 LINE",
"9 158 OFFCURVE",
"145 -10 OFFCURVE",
"384 -10 CURVE SMOOTH",
"592 -10 OFFCURVE",
"740 145 OFFCURVE",
"740 364 CURVE SMOOTH",
"740 584 OFFCURVE",
"605 720 OFFCURVE",
"381 720 CURVE SMOOTH"
);
}
);
width = 779;
}
);
leftKerningGroup = O;
leftMetricsKey = O;
rightKerningGroup = O;
rightMetricsKey = O;
unicode = 018F;
},
{
color = 4;
glyphname = T;
lastChange = "2019-04-14 21:30:22 +0000";
layers = (
{
anchors = (
{
name = bottom;
position = "{291, 0}";
},
{
name = stroke;
position = "{291, 360}";
},
{
name = top;
position = "{291, 710}";
}
);
background = {
anchors = (
{
name = bottom;
position = "{291, 0}";
},
{
name = stroke;
position = "{291, 360}";
},
{
name = top;
position = "{291, 710}";
}
);
paths = (
{
closed = 1;
nodes = (
"17 710 LINE",
"17 639 LINE",
"249 639 LINE",
"249 0 LINE",
"332 0 LINE",
"332 639 LINE",
"559 639 LINE",
"569 710 LINE"
);
}
);
};
layerId = "A3B50665-EA37-4AC6-885C-1233CA61B6BD";
paths = (
{
closed = 1;
nodes = (
"17 710 LINE",
"17 638 LINE",
"249 638 LINE",
"249 0 LINE",
"332 0 LINE",
"332 638 LINE",
"559 638 LINE",
"566 710 LINE"
);
}
);
width = 581;
},
{
anchors = (
{
name = bottom;
position = "{314, 0}";
},
{
name = stroke;
position = "{314, 360}";
},
{
name = top;
position = "{314, 710}";
}
);
background = {
anchors = (
{
name = bottom;
position = "{314, 0}";
},
{
name = stroke;
position = "{314, 360}";
},
{
name = top;
position = "{314, 710}";
}
);
paths = (
{
closed = 1;
nodes = (
"10 710 LINE",
"10 576 LINE",
"236 576 LINE",
"236 0 LINE",
"392 0 LINE",
"392 576 LINE",
"608 576 LINE",
"628 710 LINE"
);
}
);
};
layerId = "014D4A40-7C7F-4023-B30E-1F55CE5EA091";
paths = (
{
closed = 1;
nodes = (
"10 710 LINE",
"10 574 LINE",
"236 574 LINE",
"236 0 LINE",
"392 0 LINE",
"392 574 LINE",
"608 574 LINE",
"628 710 LINE"
);
}
);
width = 628;
}
);
leftKerningGroup = T;
rightKerningGroup = T;
unicode = 0054;
},
{
color = 4;
glyphname = U;
lastChange = "2019-04-14 21:30:35 +0000";
layers = (
{
anchors = (
{
name = bottom;
position = "{377, 0}";
},
{
name = ogonek;
position = "{465, 0}";
},
{
name = top;
position = "{377, 710}";
},
{
name = topright;
position = "{679, 710}";
}
);
background = {
anchors = (
{
name = bottom;
position = "{376, 0}";
},
{
name = ogonek;
position = "{465, 0}";
},
{
name = top;
position = "{376, 710}";
},
{
name = topright;
position = "{679, 710}";
}
);
paths = (
{
closed = 1;
nodes = (
"578 342 LINE SMOOTH",
"579 155 OFFCURVE",
"517 68 OFFCURVE",
"372 68 CURVE SMOOTH",
"235 68 OFFCURVE",
"176 140 OFFCURVE",
"176 307 CURVE SMOOTH",
"176 710 LINE",
"92 710 LINE",
"92 303 LINE SMOOTH",
"92 88 OFFCURVE",
"184 -8 OFFCURVE",
"372 -8 CURVE SMOOTH",
"563 -8 OFFCURVE",
"661 115 OFFCURVE",
"660 340 CURVE SMOOTH",
"659 710 LINE",
"577 710 LINE"
);
}
);
};
guideLines = (
{
angle = 90;
position = "{754, 356}";
},
{
angle = 90;
position = "{817, 356}";
}
);
layerId = "A3B50665-EA37-4AC6-885C-1233CA61B6BD";
paths = (
{
closed = 1;
nodes = (
"578 342 LINE SMOOTH",
"579 155 OFFCURVE",
"517 68 OFFCURVE",
"372 68 CURVE SMOOTH",
"235 68 OFFCURVE",
"176 140 OFFCURVE",
"176 307 CURVE SMOOTH",
"176 710 LINE",
"92 710 LINE",
"92 303 LINE SMOOTH",
"92 88 OFFCURVE",
"184 -8 OFFCURVE",
"372 -8 CURVE SMOOTH",
"563 -8 OFFCURVE",
"661 115 OFFCURVE",
"660 340 CURVE SMOOTH",
"659 710 LINE",
"577 710 LINE"
);
}
);
width = 752;
},
{
anchors = (
{
name = bottom;
position = "{387, 0}";
},
{
name = ogonek;
position = "{489, 0}";
},
{
name = top;
position = "{387, 710}";
},
{
name = topright;
position = "{670, 710}";
}
);
background = {
anchors = (
{
name = bottom;
position = "{388, 0}";
},
{
name = ogonek;
position = "{489, 0}";
},
{
name = top;
position = "{388, 710}";
},
{
name = topright;
position = "{670, 710}";
}
);
paths = (
{
closed = 1;
nodes = (
"546 336 LINE SMOOTH",
"547 194 OFFCURVE",
"491 129 OFFCURVE",
"390 129 CURVE SMOOTH",
"287 129 OFFCURVE",
"230 183 OFFCURVE",
"230 313 CURVE SMOOTH",
"230 710 LINE",
"74 710 LINE",
"74 300 LINE SMOOTH",
"74 94 OFFCURVE",
"183 -12 OFFCURVE",
"393 -10 CURVE SMOOTH",
"582 -8 OFFCURVE",
"703 123 OFFCURVE",
"702 327 CURVE SMOOTH",
"700 710 LINE",
"544 710 LINE"
);
}
);
};
layerId = "014D4A40-7C7F-4023-B30E-1F55CE5EA091";
paths = (
{
closed = 1;
nodes = (
"546 336 LINE SMOOTH",
"547 194 OFFCURVE",
"491 129 OFFCURVE",
"390 129 CURVE SMOOTH",
"287 129 OFFCURVE",
"230 183 OFFCURVE",
"230 313 CURVE SMOOTH",
"230 710 LINE",
"74 710 LINE",
"74 300 LINE SMOOTH",
"74 94 OFFCURVE",
"183 -12 OFFCURVE",
"393 -10 CURVE SMOOTH",
"581 -8 OFFCURVE",
"701 123 OFFCURVE",
"700 327 CURVE SMOOTH",
"698 710 LINE",
"544 710 LINE"
);
}
);
width = 774;
}
);
leftKerningGroup = U;
rightKerningGroup = U;
rightMetricsKey = "=|";
unicode = 0055;
},
{
color = 4;
glyphname = Uogonek;
lastChange = "2019-04-14 21:30:40 +0000";
layers = (
{
anchors = (
{
name = top;
position = "{376, 710}";
}
);
background = {
paths = (
{
closed = 1;
nodes = (
"578 342 LINE SMOOTH",
"579 155 OFFCURVE",
"517 68 OFFCURVE",
"372 68 CURVE SMOOTH",
"235 68 OFFCURVE",
"176 140 OFFCURVE",
"176 307 CURVE SMOOTH",
"176 710 LINE",
"92 710 LINE",
"92 303 LINE SMOOTH",
"92 88 OFFCURVE",
"184 -8 OFFCURVE",
"372 -8 CURVE SMOOTH",
"563 -8 OFFCURVE",
"661 115 OFFCURVE",
"660 340 CURVE SMOOTH",
"659 710 LINE",
"577 710 LINE"
);
}
);
};
layerId = "A3B50665-EA37-4AC6-885C-1233CA61B6BD";
paths = (
{
closed = 1;
nodes = (
"447 -223 OFFCURVE",
"486 -203 OFFCURVE",
"506 -173 CURVE",
"476 -132 LINE",
"455 -158 OFFCURVE",
"435 -170 OFFCURVE",
"413 -170 CURVE SMOOTH",
"379 -170 OFFCURVE",
"360 -150 OFFCURVE",
"360 -118 CURVE SMOOTH",
"360 -74 OFFCURVE",
"396 -26 OFFCURVE",
"494 13 CURVE SMOOTH",
"603 57 OFFCURVE",
"661 168 OFFCURVE",
"660 340 CURVE SMOOTH",
"659 710 LINE",
"577 710 LINE",
"578 342 LINE SMOOTH",
"579 155 OFFCURVE",
"517 68 OFFCURVE",
"372 68 CURVE SMOOTH",
"235 68 OFFCURVE",
"176 140 OFFCURVE",
"176 307 CURVE SMOOTH",
"176 710 LINE",
"92 710 LINE",
"92 303 LINE SMOOTH",
"92 88 OFFCURVE",
"184 -8 OFFCURVE",
"372 -8 CURVE SMOOTH",
"397 -8 LINE",
"395 10 LINE",
"333 -20 OFFCURVE",
"293 -73 OFFCURVE",
"293 -126 CURVE SMOOTH",
"293 -184 OFFCURVE",
"336 -223 OFFCURVE",
"408 -223 CURVE SMOOTH"
);
}
);
width = 752;
},
{
anchors = (
{
name = top;
position = "{388, 710}";
}
);
background = {
paths = (
{
closed = 1;
nodes = (
"546 336 LINE SMOOTH",
"547 194 OFFCURVE",
"491 129 OFFCURVE",
"390 129 CURVE SMOOTH",
"287 129 OFFCURVE",
"230 183 OFFCURVE",
"230 313 CURVE SMOOTH",
"230 710 LINE",
"74 710 LINE",
"74 300 LINE SMOOTH",
"74 94 OFFCURVE",
"183 -12 OFFCURVE",
"393 -10 CURVE SMOOTH",
"581 -8 OFFCURVE",
"701 123 OFFCURVE",
"700 327 CURVE SMOOTH",
"698 710 LINE",
"544 710 LINE"
);
}
);
};
layerId = "014D4A40-7C7F-4023-B30E-1F55CE5EA091";
paths = (
{
closed = 1;
nodes = (
"476 -223 OFFCURVE",
"522 -204 OFFCURVE",
"545 -173 CURVE",
"496 -103 LINE",
"481 -122 OFFCURVE",
"459 -134 OFFCURVE",
"441 -134 CURVE SMOOTH",
"413 -134 OFFCURVE",
"397 -120 OFFCURVE",
"397 -96 CURVE SMOOTH",
"397 -62 OFFCURVE",
"418 -28 OFFCURVE",
"517 13 CURVE SMOOTH",
"633 61 OFFCURVE",
"701 172 OFFCURVE",
"700 327 CURVE SMOOTH",
"698 710 LINE",
"544 710 LINE",
"546 336 LINE SMOOTH",
"547 194 OFFCURVE",
"491 129 OFFCURVE",
"390 129 CURVE SMOOTH",
"287 129 OFFCURVE",
"230 183 OFFCURVE",
"230 313 CURVE SMOOTH",
"230 710 LINE",
"74 710 LINE",
"74 300 LINE SMOOTH",
"74 94 OFFCURVE",
"183 -12 OFFCURVE",
"393 -10 CURVE SMOOTH",
"413 -10 LINE",
"393 23 LINE",
"307 -10 OFFCURVE",
"275 -61 OFFCURVE",
"275 -112 CURVE SMOOTH",
"275 -178 OFFCURVE",
"337 -223 OFFCURVE",
"425 -223 CURVE SMOOTH"
);
}
);
width = 774;
}
);
leftKerningGroup = U;
leftMetricsKey = U;
widthMetricsKey = U;
rightKerningGroup = U;
unicode = 0172;
},
{
color = 4;
glyphname = Uhorn;
lastChange = "2019-04-14 21:30:40 +0000";
layers = (
{
anchors = (
{
name = bottom;
position = "{377, 0}";
},
{
name = top;
position = "{377, 710}";
}
);
background = {
paths = (
{
closed = 1;
nodes = (
"563 -8 OFFCURVE",
"661 115 OFFCURVE",
"660 340 CURVE SMOOTH",
"659 710 LINE",
"577 710 LINE",
"578 342 LINE SMOOTH",
"579 155 OFFCURVE",
"517 68 OFFCURVE",
"372 68 CURVE SMOOTH",
"235 68 OFFCURVE",
"176 140 OFFCURVE",
"176 307 CURVE SMOOTH",
"176 710 LINE",
"92 710 LINE",
"92 303 LINE SMOOTH",
"92 88 OFFCURVE",
"184 -8 OFFCURVE",
"372 -8 CURVE SMOOTH"
);
},
{
closed = 1;
nodes = (
"656 647 LINE SMOOTH",
"746 647 OFFCURVE",
"799 714 OFFCURVE",
"794 811 CURVE",
"728 817 LINE",
"726 732 OFFCURVE",
"704 710 OFFCURVE",
"631 710 CURVE",
"614 647 LINE"
);
}
);
};
layerId = "A3B50665-EA37-4AC6-885C-1233CA61B6BD";
paths = (
{
closed = 1;
nodes = (
"728 817 LINE",
"726 732 OFFCURVE",
"704 710 OFFCURVE",
"631 710 CURVE SMOOTH",
"577 710 LINE",
"578 342 LINE SMOOTH",
"579 155 OFFCURVE",
"517 68 OFFCURVE",
"372 68 CURVE SMOOTH",
"235 68 OFFCURVE",
"176 140 OFFCURVE",
"176 307 CURVE SMOOTH",
"176 710 LINE",
"92 710 LINE",
"92 303 LINE SMOOTH",
"92 88 OFFCURVE",
"184 -8 OFFCURVE",
"372 -8 CURVE SMOOTH",
"563 -8 OFFCURVE",
"661 115 OFFCURVE",
"660 340 CURVE SMOOTH",
"659 671 LINE",
"614 647 LINE",
"656 647 LINE SMOOTH",
"746 647 OFFCURVE",
"799 714 OFFCURVE",
"794 811 CURVE"
);
}
);
width = 752;
},
{
anchors = (
{
name = bottom;
position = "{387, 0}";
},
{
name = top;
position = "{387, 710}";
}
);
background = {
anchors = (
{
name = bottom;
position = "{388, 0}";
},
{
name = top;
position = "{388, 710}";
}
);
paths = (
{
closed = 1;
nodes = (
"546 336 LINE SMOOTH",
"547 194 OFFCURVE",
"491 129 OFFCURVE",
"390 129 CURVE SMOOTH",
"287 129 OFFCURVE",
"230 183 OFFCURVE",
"230 313 CURVE SMOOTH",
"230 710 LINE",
"74 710 LINE",
"74 300 LINE SMOOTH",
"74 94 OFFCURVE",
"183 -12 OFFCURVE",
"393 -10 CURVE SMOOTH",
"582 -8 OFFCURVE",
"703 123 OFFCURVE",
"702 327 CURVE SMOOTH",
"700 710 LINE",
"544 710 LINE"
);
},
{
closed = 1;
nodes = (
"625 596 LINE",
"679 596 LINE SMOOTH",
"795 596 OFFCURVE",
"864 690 OFFCURVE",
"857 811 CURVE",
"733 821 LINE",
"731 731 OFFCURVE",
"716 710 OFFCURVE",
"649 710 CURVE"
);
}
);
};
layerId = "014D4A40-7C7F-4023-B30E-1F55CE5EA091";
paths = (
{
closed = 1;
nodes = (
"733 821 LINE",
"731 731 OFFCURVE",
"716 710 OFFCURVE",
"649 710 CURVE SMOOTH",
"544 710 LINE",
"546 336 LINE SMOOTH",
"547 194 OFFCURVE",
"491 129 OFFCURVE",
"390 129 CURVE SMOOTH",
"287 129 OFFCURVE",
"230 183 OFFCURVE",
"230 313 CURVE SMOOTH",
"230 710 LINE",
"74 710 LINE",
"74 300 LINE SMOOTH",
"74 94 OFFCURVE",
"183 -12 OFFCURVE",
"393 -10 CURVE SMOOTH",
"581 -8 OFFCURVE",
"701 123 OFFCURVE",
"700 327 CURVE SMOOTH",
"699 639 LINE",
"625 596 LINE",
"679 596 LINE SMOOTH",
"795 596 OFFCURVE",
"864 690 OFFCURVE",
"857 811 CURVE"
);
}
);
width = 774;
}
);
leftKerningGroup = U;
leftMetricsKey = U;
widthMetricsKey = U;
rightKerningGroup = U;
unicode = 01AF;
},
{
color = 4;
glyphname = V;
lastChange = "2019-04-14 21:30:49 +0000";
layers = (
{
anchors = (
{
name = bottom;
position = "{300, 0}";
},
{
name = top;
position = "{300, 710}";
}
);
background = {
anchors = (
{
name = bottom;
position = "{308, 0}";
},
{
name = top;
position = "{308, 710}";
}
);
paths = (
{
closed = 1;
nodes = (
"286 24 LINE",
"313 23 LINE",
"106 710 LINE",
"21 710 LINE",
"241 0 LINE",
"352 0 LINE",
"618 710 LINE",
"536 710 LINE"
);
}
);
};
layerId = "A3B50665-EA37-4AC6-885C-1233CA61B6BD";
paths = (
{
closed = 1;
nodes = (
"285 24 LINE",
"314 23 LINE",
"107 710 LINE",
"21 710 LINE",
"241 0 LINE",
"352 0 LINE",
"618 710 LINE",
"535 710 LINE"
);
}
);
width = 615;
},
{
anchors = (
{
name = bottom;
position = "{333, 0}";
},
{
name = top;
position = "{333, 710}";
}
);
background = {
anchors = (
{
name = bottom;
position = "{333, 0}";
},
{
name = top;
position = "{333, 710}";
}
);
paths = (
{
closed = 1;
nodes = (
"298 33 LINE",
"362 33 LINE",
"168 710 LINE",
"2 710 LINE",
"214 0 LINE",
"433 0 LINE",
"687 710 LINE",
"532 710 LINE"
);
}
);
};
guideLines = (
{
angle = 68.7799;
position = "{371, 235}";
}
);
layerId = "014D4A40-7C7F-4023-B30E-1F55CE5EA091";
paths = (
{
closed = 1;
nodes = (
"298 33 LINE",
"361 33 LINE",
"167 710 LINE",
"2 710 LINE",
"214 0 LINE",
"433 0 LINE",
"687 710 LINE",
"532 710 LINE"
);
}
);
width = 666;
}
);
leftKerningGroup = V;
rightKerningGroup = V;
unicode = 0056;
},
{
color = 4;
glyphname = W;
lastChange = "2019-04-14 21:30:49 +0000";
layers = (
{
anchors = (
{
name = bottom;
position = "{476, 0}";
},
{
name = top;
position = "{494, 710}";
}
);
background = {
anchors = (
{
name = bottom;
position = "{483, 0}";
},
{
name = top;
position = "{483, 710}";
}
);
paths = (
{
closed = 1;
nodes = (
"664 24 LINE",
"705 23 LINE",
"538 710 LINE",
"450 710 LINE",
"252 24 LINE",
"292 23 LINE",
"128 710 LINE",
"44 710 LINE",
"220 0 LINE",
"316 0 LINE",
"501 640 LINE",
"478 640 LINE",
"635 0 LINE",
"731 0 LINE",
"937 710 LINE",
"856 710 LINE"
);
}
);
};
layerId = "A3B50665-EA37-4AC6-885C-1233CA61B6BD";
paths = (
{
closed = 1;
nodes = (
"675 59 LINE",
"697 59 LINE",
"539 710 LINE",
"449 710 LINE",
"261 59 LINE",
"282 59 LINE",
"127 710 LINE",
"44 710 LINE",
"220 0 LINE",
"316 0 LINE",
"502 640 LINE",
"478 640 LINE",
"635 0 LINE",
"731 0 LINE",
"937 710 LINE",
"857 710 LINE"
);
}
);
width = 966;
},
{
anchors = (
{
name = bottom;
position = "{507, 0}";
},
{
name = top;
position = "{528, 710}";
}
);
background = {
anchors = (
{
name = bottom;
position = "{512, 0}";
},
{
name = top;
position = "{512, 710}";
}
);
paths = (
{
closed = 1;
nodes = (
"701 67 LINE",
"767 66 LINE",
"620 710 LINE",
"436 710 LINE",
"259 67 LINE",
"329 66 LINE",
"178 710 LINE",
"21 710 LINE",
"198 0 LINE",
"375 0 LINE",
"526 541 LINE",
"512 541 LINE",
"638 0 LINE",
"815 0 LINE",
"1020 710 LINE",
"877 710 LINE"
);
}
);
};
layerId = "014D4A40-7C7F-4023-B30E-1F55CE5EA091";
paths = (
{
closed = 1;
nodes = (
"709 114 LINE",
"756 114 LINE",
"620 710 LINE",
"436 710 LINE",
"272 114 LINE",
"318 114 LINE",
"178 710 LINE",
"21 710 LINE",
"198 0 LINE",
"375 0 LINE",
"532 563 LINE",
"507 563 LINE",
"638 0 LINE",
"815 0 LINE",
"1020 710 LINE",
"873 710 LINE"
);
}
);
width = 1024;
}
);
leftKerningGroup = V;
rightKerningGroup = V;
unicode = 0057;
},
{
color = 4;
glyphname = X;
lastChange = "2019-04-14 21:30:58 +0000";
layers = (
{
anchors = (
{
name = bottom;
position = "{313, 0}";
},
{
name = top;
position = "{313, 710}";
}
);
background = {
anchors = (
{
name = bottom;
position = "{310, 0}";
},
{
name = top;
position = "{310, 710}";
}
);
paths = (
{
closed = 1;
nodes = (
"599 0 LINE",
"126 710 LINE",
"33 710 LINE",
"504 0 LINE"
);
},
{
closed = 1;
nodes = (
"591 710 LINE",
"501 710 LINE",
"15 0 LINE",
"109 0 LINE"
);
},
{
closed = 1;
nodes = (
"1299 0 LINE",
"1054 365 LINE",
"1012 428 LINE",
"826 710 LINE",
"733 710 LINE",
"964 361 LINE",
"1008 296 LINE",
"1204 0 LINE"
);
},
{
closed = 1;
nodes = (
"1008 296 LINE",
"1054 365 LINE",
"1288 710 LINE",
"1201 710 LINE",
"1012 428 LINE",
"964 361 LINE",
"718 0 LINE",
"809 0 LINE"
);
}
);
};
layerId = "A3B50665-EA37-4AC6-885C-1233CA61B6BD";
paths = (
{
closed = 1;
nodes = (
"599 0 LINE",
"355 364 LINE",
"312 430 LINE",
"126 710 LINE",
"33 710 LINE",
"264 363 LINE",
"308 296 LINE",
"504 0 LINE"
);
},
{
closed = 1;
nodes = (
"308 296 LINE",
"355 364 LINE",
"589 710 LINE",
"500 710 LINE",
"312 430 LINE",
"264 363 LINE",
"16 0 LINE",
"109 0 LINE"
);
}
);
width = 620;
},
{
anchors = (
{
name = bottom;
position = "{332, 0}";
},
{
name = top;
position = "{332, 710}";
}
);
background = {
anchors = (
{
name = bottom;
position = "{328, 0}";
},
{
name = top;
position = "{328, 710}";
}
);
paths = (
{
closed = 1;
nodes = (
"645 0 LINE",
"412 367 LINE",
"332 491 LINE",
"195 710 LINE",
"20 710 LINE",
"243 359 LINE",
"326 232 LINE",
"467 0 LINE"
);
},
{
closed = 1;
nodes = (
"326 232 LINE",
"412 367 LINE",
"635 710 LINE",
"469 710 LINE",
"332 491 LINE",
"243 359 LINE",
"7 0 LINE",
"178 0 LINE"
);
}
);
};
layerId = "014D4A40-7C7F-4023-B30E-1F55CE5EA091";
paths = (
{
closed = 1;
nodes = (
"645 0 LINE",
"412 367 LINE",
"332 491 LINE",
"195 710 LINE",
"20 710 LINE",
"243 359 LINE",
"326 232 LINE",
"467 0 LINE"
);
},
{
closed = 1;
nodes = (
"326 232 LINE",
"412 367 LINE",
"635 710 LINE",
"469 710 LINE",
"332 491 LINE",
"243 359 LINE",
"7 0 LINE",
"178 0 LINE"
);
}
);
width = 656;
}
);
leftKerningGroup = X;
rightKerningGroup = X;
unicode = 0058;
},
{
color = 4;
glyphname = Y;
lastChange = "2019-04-14 21:31:07 +0000";
layers = (
{
anchors = (
{
name = bottom;
position = "{295, 0}";
},
{
name = top;
position = "{296, 710}";
},
{
name = topleft;
position = "{20, 710}";
}
);
background = {
anchors = (
{
name = bottom;
position = "{295, 0}";
},
{
name = top;
position = "{295, 710}";
},
{
name = topleft;
position = "{20, 710}";
}
);
paths = (
{
closed = 1;
nodes = (
"298 392 LINE",
"88 710 LINE",
"-5 710 LINE",
"267 299 LINE",
"316 293 LINE",
"589 710 LINE",
"502 710 LINE"
);
},
{
closed = 1;
nodes = (
"336 0 LINE",
"336 370 LINE",
"253 370 LINE",
"253 0 LINE"
);
}
);
};
layerId = "A3B50665-EA37-4AC6-885C-1233CA61B6BD";
paths = (
{
closed = 1;
nodes = (
"504 710 LINE",
"282 368 LINE",
"312 371 LINE",
"88 710 LINE",
"-5 710 LINE",
"278 282 LINE",
"253 365 LINE",
"253 0 LINE",
"336 0 LINE",
"336 369 LINE",
"313 286 LINE",
"591 710 LINE"
);
}
);
width = 589;
},
{
anchors = (
{
name = bottom;
position = "{306, 0}";
},
{
name = top;
position = "{308, 710}";
},
{
name = topleft;
position = "{20, 710}";
}
);
background = {
anchors = (
{
name = bottom;
position = "{306, 0}";
},
{
name = top;
position = "{306, 710}";
},
{
name = topleft;
position = "{20, 710}";
}
);
paths = (
{
closed = 1;
nodes = (
"313 451 LINE",
"150 710 LINE",
"-25 710 LINE",
"255 269 LINE",
"349 259 LINE",
"626 710 LINE",
"460 710 LINE"
);
},
{
closed = 1;
nodes = (
"384 0 LINE",
"384 418 LINE",
"228 418 LINE",
"228 0 LINE"
);
}
);
};
layerId = "014D4A40-7C7F-4023-B30E-1F55CE5EA091";
paths = (
{
closed = 1;
nodes = (
"466 710 LINE",
"288 412 LINE",
"337 413 LINE",
"150 710 LINE",
"-25 710 LINE",
"252 274 LINE",
"228 357 LINE",
"228 0 LINE",
"384 0 LINE",
"384 361 LINE",
"360 278 LINE",
"629 710 LINE"
);
}
);
width = 612;
}
);
leftKerningGroup = Y;
rightKerningGroup = Y;
unicode = 0059;
},
{
color = 4;
glyphname = Z;
lastChange = "2019-04-14 21:31:18 +0000";
layers = (
{
anchors = (
{
name = bottom;
position = "{320, 0}";
},
{
name = center;
position = "{314, 355}";
},
{
name = top;
position = "{320, 710}";
}
);
background = {
anchors = (
{
name = bottom;
position = "{314, 0}";
},
{
name = center;
position = "{314, 355}";
},
{
name = top;
position = "{314, 710}";
}
);
paths = (
{
closed = 1;
nodes = (
"585 0 LINE",
"585 71 LINE",
"123 71 LINE",
"126 27 LINE",
"580 650 LINE",
"580 710 LINE",
"69 710 LINE",
"69 641 LINE",
"514 641 LINE",
"508 683 LINE",
"54 60 LINE",
"54 0 LINE"
);
}
);
};
layerId = "A3B50665-EA37-4AC6-885C-1233CA61B6BD";
paths = (
{
closed = 1;
nodes = (
"585 0 LINE",
"592 72 LINE",
"123 72 LINE",
"144 50 LINE",
"580 650 LINE",
"580 710 LINE",
"69 710 LINE",
"69 638 LINE",
"514 638 LINE",
"490 660 LINE",
"54 60 LINE",
"54 0 LINE"
);
}
);
width = 628;
},
{
anchors = (
{
name = bottom;
position = "{337, 0}";
},
{
name = center;
position = "{332, 355}";
},
{
name = top;
position = "{337, 710}";
}
);
background = {
anchors = (
{
name = bottom;
position = "{332, 0}";
},
{
name = center;
position = "{332, 355}";
},
{
name = top;
position = "{332, 710}";
}
);
paths = (
{
closed = 1;
nodes = (
"622 0 LINE",
"622 135 LINE",
"196 135 LINE",
"215 84 LINE",
"620 598 LINE",
"620 710 LINE",
"69 710 LINE",
"69 575 LINE",
"473 575 LINE",
"456 626 LINE",
"51 112 LINE",
"51 0 LINE"
);
}
);
};
layerId = "014D4A40-7C7F-4023-B30E-1F55CE5EA091";
paths = (
{
closed = 1;
nodes = (
"622 0 LINE",
"632 136 LINE",
"196 136 LINE",
"217 84 LINE",
"620 598 LINE",
"620 710 LINE",
"69 710 LINE",
"69 574 LINE",
"473 574 LINE",
"454 626 LINE",
"51 112 LINE",
"51 0 LINE"
);
}
);
width = 664;
}
);
leftKerningGroup = Z;
rightKerningGroup = Z;
unicode = 005A;
},
{
color = 4;
glyphname = a;
lastChange = "2019-04-14 21:56:46 +0000";
layers = (
{
anchors = (
{
name = bottom;
position = "{318, 0}";
},
{
name = ogonek;
position = "{513, 0}";
},
{
name = top;
position = "{318, 498}";
}
);
background = {
anchors = (
{
name = bottom;
position = "{298, 0}";
},
{
name = ogonek;
position = "{513, 0}";
},
{
name = top;
position = "{298, 498}";
}
);
paths = (
{
closed = 1;
nodes = (
"449 498 LINE",
"440 416 LINE",
"445 418 LINE",
"427 470 OFFCURVE",
"370 507 OFFCURVE",
"301 507 CURVE SMOOTH",
"158 507 OFFCURVE",
"60 391 OFFCURVE",
"60 225 CURVE SMOOTH",
"60 88 OFFCURVE",
"130 -8 OFFCURVE",
"256 -8 CURVE SMOOTH",
"352 -8 OFFCURVE",
"426 60 OFFCURVE",
"455 164 CURVE",
"439 178 LINE",
"434 0 LINE",
"513 0 LINE",
"513 498 LINE"
);
},
{
closed = 1;
nodes = (
"385 436 OFFCURVE",
"436 379 OFFCURVE",
"436 284 CURVE SMOOTH",
"436 155 OFFCURVE",
"364 64 OFFCURVE",
"267 64 CURVE SMOOTH",
"189 64 OFFCURVE",
"141 126 OFFCURVE",
"141 231 CURVE SMOOTH",
"141 355 OFFCURVE",
"205 436 OFFCURVE",
"303 436 CURVE SMOOTH"
);
}
);
};
layerId = "A3B50665-EA37-4AC6-885C-1233CA61B6BD";
paths = (
{
closed = 1;
nodes = (
"454 498 LINE",
"442 416 LINE",
"447 418 LINE",
"426 470 OFFCURVE",
"370 507 OFFCURVE",
"301 507 CURVE SMOOTH",
"158 507 OFFCURVE",
"60 391 OFFCURVE",
"60 225 CURVE SMOOTH",
"60 88 OFFCURVE",
"130 -8 OFFCURVE",
"256 -8 CURVE SMOOTH",
"352 -8 OFFCURVE",
"426 60 OFFCURVE",
"456 164 CURVE",
"438 178 LINE",
"433 0 LINE",
"513 0 LINE",
"513 498 LINE"
);
},
{
closed = 1;
nodes = (
"385 436 OFFCURVE",
"436 379 OFFCURVE",
"436 284 CURVE SMOOTH",
"436 155 OFFCURVE",
"364 63 OFFCURVE",
"267 63 CURVE SMOOTH",
"189 63 OFFCURVE",
"141 126 OFFCURVE",
"141 231 CURVE SMOOTH",
"141 355 OFFCURVE",
"205 436 OFFCURVE",
"303 436 CURVE SMOOTH"
);
}
);
width = 596;
},
{
anchors = (
{
name = bottom;
position = "{330, 0}";
},
{
name = ogonek;
position = "{564, 0}";
},
{
name = top;
position = "{330, 508}";
}
);
background = {
anchors = (
{
name = bottom;
position = "{314, 0}";
},
{
name = ogonek;
position = "{564, 0}";
},
{
name = top;
position = "{314, 508}";
}
);
hints = (
{
horizontal = 1;
place = "{-8, 129}";
type = Stem;
},
{
horizontal = 1;
place = "{386, 129}";
type = Stem;
},
{
horizontal = 1;
place = "{672, -20}";
target = down;
type = TopGhost;
},
{
place = "{46, 134}";
type = Stem;
},
{
place = "{366, 134}";
type = Stem;
},
{
horizontal = 1;
place = "{0, 21}";
target = up;
type = BottomGhost;
},
{
place = "{385, 115}";
type = Stem;
}
);
paths = (
{
closed = 1;
nodes = (
"459 506 LINE",
"441 422 LINE",
"451 442 LINE",
"426 485 OFFCURVE",
"370 516 OFFCURVE",
"301 516 CURVE SMOOTH",
"153 516 OFFCURVE",
"40 402 OFFCURVE",
"40 232 CURVE SMOOTH",
"40 92 OFFCURVE",
"115 -10 OFFCURVE",
"255 -10 CURVE SMOOTH",
"357 -10 OFFCURVE",
"428 49 OFFCURVE",
"456 155 CURVE",
"427 179 LINE",
"417 0 LINE",
"564 0 LINE",
"564 506 LINE"
);
},
{
closed = 1;
nodes = (
"379 389 OFFCURVE",
"418 346 OFFCURVE",
"418 276 CURVE SMOOTH",
"418 182 OFFCURVE",
"363 118 OFFCURVE",
"291 118 CURVE SMOOTH",
"233 118 OFFCURVE",
"195 161 OFFCURVE",
"195 237 CURVE SMOOTH",
"195 326 OFFCURVE",
"242 389 OFFCURVE",
"318 389 CURVE SMOOTH"
);
}
);
};
layerId = "014D4A40-7C7F-4023-B30E-1F55CE5EA091";
paths = (
{
closed = 1;
nodes = (
"459 506 LINE",
"441 422 LINE",
"451 435 LINE",
"426 484 OFFCURVE",
"373 516 OFFCURVE",
"305 516 CURVE SMOOTH",
"159 516 OFFCURVE",
"45 402 OFFCURVE",
"45 232 CURVE SMOOTH",
"45 92 OFFCURVE",
"120 -10 OFFCURVE",
"257 -10 CURVE SMOOTH",
"358 -10 OFFCURVE",
"427 49 OFFCURVE",
"455 155 CURVE",
"427 179 LINE",
"417 0 LINE",
"564 0 LINE",
"564 506 LINE"
);
},
{
closed = 1;
nodes = (
"379 389 OFFCURVE",
"418 346 OFFCURVE",
"418 276 CURVE SMOOTH",
"418 182 OFFCURVE",
"361 117 OFFCURVE",
"289 117 CURVE SMOOTH",
"231 117 OFFCURVE",
"195 161 OFFCURVE",
"195 237 CURVE SMOOTH",
"195 326 OFFCURVE",
"242 389 OFFCURVE",
"318 389 CURVE SMOOTH"
);
}
);
width = 633;
}
);
leftKerningGroup = o;
leftMetricsKey = o;
note = d;
rightKerningGroup = u;
rightMetricsKey = "=|n";
unicode = 0061;
},
{
color = 4;
glyphname = ae;
lastChange = "2019-04-14 21:58:02 +0000";
layers = (
{
anchors = (
{
name = bottom;
position = "{436, 0}";
},
{
name = top;
position = "{436, 498}";
}
);
background = {
anchors = (
{
name = bottom;
position = "{1336, 0}";
},
{
name = top;
position = "{1336, 498}";
}
);
paths = (
{
closed = 1;
nodes = (
"724 -8 OFFCURVE",
"787 24 OFFCURVE",
"833 89 CURVE",
"784 134 LINE",
"749 86 OFFCURVE",
"699 63 OFFCURVE",
"646 63 CURVE SMOOTH",
"535 63 OFFCURVE",
"473 123 OFFCURVE",
"473 231 CURVE SMOOTH",
"473 258 LINE SMOOTH",
"473 359 OFFCURVE",
"534 444 OFFCURVE",
"632 444 CURVE SMOOTH",
"713 444 OFFCURVE",
"770 394 OFFCURVE",
"760 272 CURVE",
"782 284 LINE",
"448 284 LINE",
"448 222 LINE",
"830 222 LINE",
"851 410 OFFCURVE",
"769 507 OFFCURVE",
"631 507 CURVE SMOOTH",
"495 507 OFFCURVE",
"393 397 OFFCURVE",
"393 242 CURVE SMOOTH",
"393 85 OFFCURVE",
"487 -8 OFFCURVE",
"641 -8 CURVE SMOOTH"
);
}
);
};
layerId = "A3B50665-EA37-4AC6-885C-1233CA61B6BD";
paths = (
{
closed = 1;
nodes = (
"340 -8 OFFCURVE",
"421 52 OFFCURVE",
"444 143 CURVE",
"422 140 LINE",
"453 44 OFFCURVE",
"530 -8 OFFCURVE",
"641 -8 CURVE SMOOTH",
"724 -8 OFFCURVE",
"787 24 OFFCURVE",
"833 89 CURVE",
"784 134 LINE",
"749 86 OFFCURVE",
"699 63 OFFCURVE",
"646 63 CURVE SMOOTH",
"538 63 OFFCURVE",
"476 123 OFFCURVE",
"476 229 CURVE SMOOTH",
"476 263 LINE SMOOTH",
"476 359 OFFCURVE",
"534 444 OFFCURVE",
"632 444 CURVE SMOOTH",
"713 444 OFFCURVE",
"770 394 OFFCURVE",
"760 272 CURVE",
"781 284 LINE",
"453 284 LINE",
"453 222 LINE",
"830 222 LINE",
"851 410 OFFCURVE",
"769 507 OFFCURVE",
"630 507 CURVE SMOOTH",
"551 507 OFFCURVE",
"472 458 OFFCURVE",
"440 377 CURVE",
"458 375 LINE",
"437 462 OFFCURVE",
"375 507 OFFCURVE",
"276 507 CURVE SMOOTH",
"157 507 OFFCURVE",
"85 433 OFFCURVE",
"70 347 CURVE",
"140 334 LINE",
"155 402 OFFCURVE",
"201 439 OFFCURVE",
"275 439 CURVE SMOOTH",
"356 439 OFFCURVE",
"395 394 OFFCURVE",
"395 306 CURVE SMOOTH",
"395 218 LINE SMOOTH",
"395 121 OFFCURVE",
"337 57 OFFCURVE",
"247 57 CURVE SMOOTH",
"181 57 OFFCURVE",
"138 90 OFFCURVE",
"138 139 CURVE SMOOTH",
"138 190 OFFCURVE",
"177 221 OFFCURVE",
"255 221 CURVE SMOOTH",
"422 221 LINE",
"422 284 LINE",
"255 284 LINE SMOOTH",
"128 284 OFFCURVE",
"58 227 OFFCURVE",
"58 136 CURVE SMOOTH",
"58 52 OFFCURVE",
"133 -8 OFFCURVE",
"239 -8 CURVE SMOOTH"
);
}
);
width = 885;
},
{
anchors = (
{
name = bottom;
position = "{428, 0}";
},
{
name = top;
position = "{428, 508}";
}
);
background = {
anchors = (
{
name = bottom;
position = "{1528, 0}";
},
{
name = top;
position = "{1528, 508}";
}
);
paths = (
{
closed = 1;
nodes = (
"722 -10 OFFCURVE",
"784 24 OFFCURVE",
"829 79 CURVE",
"746 164 LINE",
"717 132 OFFCURVE",
"672 115 OFFCURVE",
"635 115 CURVE SMOOTH",
"547 115 OFFCURVE",
"497 163 OFFCURVE",
"497 225 CURVE SMOOTH",
"497 266 LINE SMOOTH",
"497 356 OFFCURVE",
"540 409 OFFCURVE",
"610 409 CURVE SMOOTH",
"671 409 OFFCURVE",
"708 375 OFFCURVE",
"700 296 CURVE",
"731 313 LINE",
"460 313 LINE",
"460 210 LINE",
"825 210 LINE",
"849 396 OFFCURVE",
"773 516 OFFCURVE",
"608 516 CURVE SMOOTH",
"461 516 OFFCURVE",
"350 407 OFFCURVE",
"350 246 CURVE SMOOTH",
"350 89 OFFCURVE",
"456 -10 OFFCURVE",
"624 -10 CURVE SMOOTH"
);
}
);
};
hints = (
{
horizontal = 1;
place = "{0, 21}";
target = up;
type = BottomGhost;
},
{
horizontal = 1;
place = "{472, 148}";
type = Stem;
},
{
place = "{49, 151}";
type = Stem;
},
{
place = "{419, 161}";
type = Stem;
},
{
horizontal = 1;
place = "{-10, 148}";
type = Stem;
},
{
place = "{441, 139}";
type = Stem;
},
{
place = "{49, 170}";
type = Stem;
}
);
layerId = "014D4A40-7C7F-4023-B30E-1F55CE5EA091";
paths = (
{
closed = 1;
nodes = (
"340 -10 OFFCURVE",
"410 31 OFFCURVE",
"446 114 CURVE",
"412 109 LINE",
"455 28 OFFCURVE",
"521 -10 OFFCURVE",
"624 -10 CURVE SMOOTH",
"722 -10 OFFCURVE",
"784 24 OFFCURVE",
"829 79 CURVE",
"746 163 LINE",
"717 131 OFFCURVE",
"672 114 OFFCURVE",
"635 114 CURVE SMOOTH",
"547 114 OFFCURVE",
"502 163 OFFCURVE",
"502 223 CURVE SMOOTH",
"502 270 LINE SMOOTH",
"502 356 OFFCURVE",
"540 410 OFFCURVE",
"614 410 CURVE SMOOTH",
"671 410 OFFCURVE",
"708 375 OFFCURVE",
"700 296 CURVE",
"732 313 LINE",
"474 313 LINE",
"474 210 LINE",
"825 210 LINE",
"849 396 OFFCURVE",
"773 516 OFFCURVE",
"608 516 CURVE SMOOTH",
"544 516 OFFCURVE",
"462 475 OFFCURVE",
"430 406 CURVE",
"468 394 LINE",
"439 484 OFFCURVE",
"362 516 OFFCURVE",
"276 516 CURVE SMOOTH",
"157 516 OFFCURVE",
"75 451 OFFCURVE",
"48 359 CURVE",
"174 335 LINE",
"188 375 OFFCURVE",
"218 399 OFFCURVE",
"271 399 CURVE SMOOTH",
"323 399 OFFCURVE",
"354 371 OFFCURVE",
"354 318 CURVE SMOOTH",
"354 193 LINE SMOOTH",
"354 133 OFFCURVE",
"322 101 OFFCURVE",
"265 101 CURVE SMOOTH",
"218 101 OFFCURVE",
"186 122 OFFCURVE",
"186 156 CURVE SMOOTH",
"186 190 OFFCURVE",
"209 210 OFFCURVE",
"267 210 CURVE SMOOTH",
"398 210 LINE",
"398 313 LINE",
"255 313 LINE SMOOTH",
"115 313 OFFCURVE",
"43 244 OFFCURVE",
"43 150 CURVE SMOOTH",
"43 57 OFFCURVE",
"128 -10 OFFCURVE",
"245 -10 CURVE SMOOTH"
);
}
);
width = 873;
}
);
leftKerningGroup = ae;
note = A;
rightKerningGroup = e;
rightMetricsKey = e;
unicode = 00E6;
},
{
color = 4;
glyphname = b;
lastChange = "2019-04-14 21:54:01 +0000";
layers = (
{
anchors = (
{
name = bottom;
position = "{298, 0}";
},
{
name = top;
position = "{298, 740}";
}
);
background = {
anchors = (
{
name = bottom;
position = "{998, 0}";
},
{
name = top;
position = "{998, 740}";
}
);
paths = (
{
closed = 1;
nodes = (
"847 0 LINE",
"856 82 LINE",
"851 81 LINE",
"869 29 OFFCURVE",
"926 -8 OFFCURVE",
"995 -8 CURVE SMOOTH",
"1138 -8 OFFCURVE",
"1236 108 OFFCURVE",
"1236 274 CURVE SMOOTH",
"1236 411 OFFCURVE",
"1166 507 OFFCURVE",
"1040 507 CURVE SMOOTH",
"944 507 OFFCURVE",
"869 441 OFFCURVE",
"841 335 CURVE",
"856 321 LINE",
"861 499 LINE",
"861 740 LINE",
"783 740 LINE",
"783 0 LINE"
);
},
{
closed = 1;
nodes = (
"911 64 OFFCURVE",
"860 121 OFFCURVE",
"860 216 CURVE SMOOTH",
"860 345 OFFCURVE",
"933 436 OFFCURVE",
"1029 436 CURVE SMOOTH",
"1107 436 OFFCURVE",
"1155 374 OFFCURVE",
"1155 269 CURVE SMOOTH",
"1155 145 OFFCURVE",
"1091 64 OFFCURVE",
"993 64 CURVE SMOOTH"
);
},
{
closed = 1;
nodes = (
"147 1 LINE",
"156 83 LINE",
"151 81 LINE",
"169 29 OFFCURVE",
"226 -8 OFFCURVE",
"295 -8 CURVE SMOOTH",
"438 -8 OFFCURVE",
"536 108 OFFCURVE",
"536 274 CURVE SMOOTH",
"536 411 OFFCURVE",
"466 507 OFFCURVE",
"340 507 CURVE SMOOTH",
"244 507 OFFCURVE",
"170 439 OFFCURVE",
"141 335 CURVE",
"157 321 LINE",
"162 499 LINE",
"83 499 LINE",
"83 1 LINE"
);
},
{
closed = 1;
nodes = (
"211 64 OFFCURVE",
"160 121 OFFCURVE",
"160 216 CURVE SMOOTH",
"160 345 OFFCURVE",
"232 436 OFFCURVE",
"329 436 CURVE SMOOTH",
"407 436 OFFCURVE",
"455 374 OFFCURVE",
"455 269 CURVE SMOOTH",
"455 145 OFFCURVE",
"391 64 OFFCURVE",
"293 64 CURVE SMOOTH"
);
}
);
};
layerId = "A3B50665-EA37-4AC6-885C-1233CA61B6BD";
paths = (
{
closed = 1;
nodes = (
"142 0 LINE",
"154 82 LINE",
"150 81 LINE",
"170 29 OFFCURVE",
"226 -8 OFFCURVE",
"295 -8 CURVE SMOOTH",
"438 -8 OFFCURVE",
"536 108 OFFCURVE",
"536 274 CURVE SMOOTH",
"536 411 OFFCURVE",
"466 507 OFFCURVE",
"340 507 CURVE SMOOTH",
"242 507 OFFCURVE",
"170 439 OFFCURVE",
"140 335 CURVE",
"156 321 LINE",
"161 499 LINE",
"161 740 LINE",
"83 740 LINE",
"83 0 LINE"
);
},
{
closed = 1;
nodes = (
"211 63 OFFCURVE",
"160 121 OFFCURVE",
"160 216 CURVE SMOOTH",
"160 345 OFFCURVE",
"232 436 OFFCURVE",
"329 436 CURVE SMOOTH",
"407 436 OFFCURVE",
"455 374 OFFCURVE",
"455 269 CURVE SMOOTH",
"455 145 OFFCURVE",
"391 63 OFFCURVE",
"293 63 CURVE SMOOTH"
);
}
);
width = 596;
},
{
anchors = (
{
name = bottom;
position = "{319, 0}";
},
{
name = top;
position = "{319, 740}";
}
);
background = {
anchors = (
{
name = bottom;
position = "{919, 0}";
},
{
name = top;
position = "{919, 740}";
}
);
paths = (
{
closed = 1;
nodes = (
"774 0 LINE",
"792 84 LINE",
"782 64 LINE",
"807 21 OFFCURVE",
"863 -10 OFFCURVE",
"932 -10 CURVE SMOOTH",
"1080 -10 OFFCURVE",
"1193 104 OFFCURVE",
"1193 274 CURVE SMOOTH",
"1193 414 OFFCURVE",
"1118 516 OFFCURVE",
"978 516 CURVE SMOOTH",
"876 516 OFFCURVE",
"805 457 OFFCURVE",
"777 351 CURVE",
"806 329 LINE",
"815 508 LINE",
"815 740 LINE",
"669 740 LINE",
"669 0 LINE"
);
},
{
closed = 1;
nodes = (
"854 118 OFFCURVE",
"815 161 OFFCURVE",
"815 231 CURVE SMOOTH",
"815 325 OFFCURVE",
"870 389 OFFCURVE",
"942 389 CURVE SMOOTH",
"1000 389 OFFCURVE",
"1038 346 OFFCURVE",
"1038 270 CURVE SMOOTH",
"1038 181 OFFCURVE",
"991 118 OFFCURVE",
"915 118 CURVE SMOOTH"
);
},
{
closed = 1;
nodes = (
"174 0 LINE",
"192 84 LINE",
"182 71 LINE",
"207 22 OFFCURVE",
"262 -10 OFFCURVE",
"330 -10 CURVE SMOOTH",
"476 -10 OFFCURVE",
"588 104 OFFCURVE",
"588 274 CURVE SMOOTH",
"588 414 OFFCURVE",
"513 516 OFFCURVE",
"376 516 CURVE SMOOTH",
"275 516 OFFCURVE",
"206 457 OFFCURVE",
"178 351 CURVE",
"206 327 LINE",
"216 506 LINE",
"69 506 LINE",
"69 0 LINE"
);
},
{
closed = 1;
nodes = (
"254 118 OFFCURVE",
"215 161 OFFCURVE",
"215 231 CURVE SMOOTH",
"215 325 OFFCURVE",
"270 389 OFFCURVE",
"342 389 CURVE SMOOTH",
"400 389 OFFCURVE",
"438 346 OFFCURVE",
"438 270 CURVE SMOOTH",
"438 181 OFFCURVE",
"391 118 OFFCURVE",
"315 118 CURVE SMOOTH"
);
}
);
};
layerId = "014D4A40-7C7F-4023-B30E-1F55CE5EA091";
paths = (
{
closed = 1;
nodes = (
"174 0 LINE",
"192 84 LINE",
"182 71 LINE",
"207 22 OFFCURVE",
"260 -10 OFFCURVE",
"328 -10 CURVE SMOOTH",
"474 -10 OFFCURVE",
"588 104 OFFCURVE",
"588 274 CURVE SMOOTH",
"588 414 OFFCURVE",
"513 516 OFFCURVE",
"376 516 CURVE SMOOTH",
"274 516 OFFCURVE",
"206 457 OFFCURVE",
"178 351 CURVE",
"206 329 LINE",
"215 508 LINE",
"215 740 LINE",
"69 740 LINE",
"69 0 LINE"
);
},
{
closed = 1;
nodes = (
"254 117 OFFCURVE",
"215 161 OFFCURVE",
"215 231 CURVE SMOOTH",
"215 325 OFFCURVE",
"272 389 OFFCURVE",
"344 389 CURVE SMOOTH",
"402 389 OFFCURVE",
"438 346 OFFCURVE",
"438 270 CURVE SMOOTH",
"438 181 OFFCURVE",
"391 117 OFFCURVE",
"315 117 CURVE SMOOTH"
);
}
);
width = 633;
}
);
leftKerningGroup = h;
leftMetricsKey = h;
note = b;
rightKerningGroup = o;
rightMetricsKey = o;
unicode = 0062;
},
{
color = 4;
glyphname = c;
lastChange = "2019-04-14 21:53:10 +0000";
layers = (
{
anchors = (
{
name = bottom;
position = "{287, 0}";
},
{
name = top;
position = "{293, 498}";
}
);
background = {
anchors = (
{
name = bottom;
position = "{285, 0}";
},
{
name = top;
position = "{291, 498}";
}
);
paths = (
{
closed = 1;
nodes = (
"379 -8 OFFCURVE",
"443 24 OFFCURVE",
"484 89 CURVE",
"427 134 LINE",
"397 86 OFFCURVE",
"351 65 OFFCURVE",
"298 65 CURVE SMOOTH",
"197 65 OFFCURVE",
"142 126 OFFCURVE",
"142 240 CURVE SMOOTH",
"142 358 OFFCURVE",
"207 435 OFFCURVE",
"305 435 CURVE SMOOTH",
"359 435 OFFCURVE",
"398 413 OFFCURVE",
"425 365 CURVE",
"484 410 LINE",
"446 475 OFFCURVE",
"388 507 OFFCURVE",
"307 507 CURVE SMOOTH",
"160 507 OFFCURVE",
"60 399 OFFCURVE",
"60 240 CURVE SMOOTH",
"60 84 OFFCURVE",
"148 -8 OFFCURVE",
"295 -8 CURVE SMOOTH"
);
}
);
};
guideLines = (
{
angle = 90;
position = "{485, 142}";
}
);
layerId = "A3B50665-EA37-4AC6-885C-1233CA61B6BD";
paths = (
{
closed = 1;
nodes = (
"379 -8 OFFCURVE",
"443 24 OFFCURVE",
"484 89 CURVE",
"427 134 LINE",
"397 86 OFFCURVE",
"351 64 OFFCURVE",
"298 64 CURVE SMOOTH",
"197 64 OFFCURVE",
"142 126 OFFCURVE",
"142 240 CURVE SMOOTH",
"142 358 OFFCURVE",
"207 435 OFFCURVE",
"305 435 CURVE SMOOTH",
"359 435 OFFCURVE",
"398 413 OFFCURVE",
"425 365 CURVE",
"484 410 LINE",
"446 475 OFFCURVE",
"388 507 OFFCURVE",
"307 507 CURVE SMOOTH",
"160 507 OFFCURVE",
"60 399 OFFCURVE",
"60 240 CURVE SMOOTH",
"60 84 OFFCURVE",
"148 -8 OFFCURVE",
"295 -8 CURVE SMOOTH"
);
}
);
width = 504;
},
{
anchors = (
{
name = bottom;
position = "{290, 0}";
},
{
name = top;
position = "{290, 508}";
}
);
background = {
anchors = (
{
name = bottom;
position = "{281, 0}";
},
{
name = top;
position = "{281, 508}";
}
);
paths = (
{
closed = 1;
nodes = (
"387 -10 OFFCURVE",
"464 18 OFFCURVE",
"510 95 CURVE",
"410 176 LINE",
"387 136 OFFCURVE",
"351 120 OFFCURVE",
"312 120 CURVE SMOOTH",
"237 120 OFFCURVE",
"197 164 OFFCURVE",
"197 246 CURVE SMOOTH",
"197 331 OFFCURVE",
"247 387 OFFCURVE",
"317 387 CURVE SMOOTH",
"358 387 OFFCURVE",
"387 368 OFFCURVE",
"408 332 CURVE",
"511 410 LINE",
"467 484 OFFCURVE",
"402 516 OFFCURVE",
"314 516 CURVE SMOOTH",
"154 516 OFFCURVE",
"45 406 OFFCURVE",
"45 244 CURVE SMOOTH",
"45 84 OFFCURVE",
"145 -10 OFFCURVE",
"301 -10 CURVE SMOOTH"
);
}
);
};
layerId = "014D4A40-7C7F-4023-B30E-1F55CE5EA091";
paths = (
{
closed = 1;
nodes = (
"387 -10 OFFCURVE",
"464 18 OFFCURVE",
"510 95 CURVE",
"410 176 LINE",
"387 136 OFFCURVE",
"351 118 OFFCURVE",
"312 118 CURVE SMOOTH",
"237 118 OFFCURVE",
"196 164 OFFCURVE",
"196 246 CURVE SMOOTH",
"196 331 OFFCURVE",
"246 388 OFFCURVE",
"314 388 CURVE SMOOTH",
"357 388 OFFCURVE",
"385 372 OFFCURVE",
"408 332 CURVE",
"511 410 LINE",
"469 484 OFFCURVE",
"401 516 OFFCURVE",
"314 516 CURVE SMOOTH",
"155 516 OFFCURVE",
"45 406 OFFCURVE",
"45 244 CURVE SMOOTH",
"45 84 OFFCURVE",
"146 -10 OFFCURVE",
"301 -10 CURVE SMOOTH"
);
}
);
width = 519;
}
);
leftKerningGroup = o;
leftMetricsKey = o;
rightKerningGroup = c;
unicode = 0063;
},
{
color = 4;
glyphname = d;
lastChange = "2019-04-14 21:57:13 +0000";
layers = (
{
anchors = (
{
name = bottom;
position = "{318, 0}";
},
{
name = center;
position = "{298, 249}";
},
{
name = stroke;
position = "{422, 624}";
},
{
name = top;
position = "{298, 740}";
},
{
name = topright;
position = "{563, 740}";
}
);
background = {
anchors = (
{
name = bottom;
position = "{898, 0}";
},
{
name = center;
position = "{898, 249}";
},
{
name = stroke;
position = "{1022, 624}";
},
{
name = top;
position = "{898, 740}";
},
{
name = topright;
position = "{1163, 740}";
}
);
paths = (
{
closed = 1;
nodes = (
"1035 740 LINE",
"1035 498 LINE",
"1037 407 LINE",
"1045 418 LINE",
"1027 470 OFFCURVE",
"970 507 OFFCURVE",
"901 507 CURVE SMOOTH",
"758 507 OFFCURVE",
"660 391 OFFCURVE",
"660 225 CURVE SMOOTH",
"660 88 OFFCURVE",
"730 -8 OFFCURVE",
"856 -8 CURVE SMOOTH",
"952 -8 OFFCURVE",
"1026 60 OFFCURVE",
"1055 164 CURVE",
"1039 178 LINE",
"1034 0 LINE",
"1113 0 LINE",
"1113 740 LINE"
);
},
{
closed = 1;
nodes = (
"985 436 OFFCURVE",
"1036 379 OFFCURVE",
"1036 284 CURVE SMOOTH",
"1036 155 OFFCURVE",
"963 64 OFFCURVE",
"867 64 CURVE SMOOTH",
"789 64 OFFCURVE",
"741 126 OFFCURVE",
"741 231 CURVE SMOOTH",
"741 355 OFFCURVE",
"805 436 OFFCURVE",
"903 436 CURVE SMOOTH"
);
},
{
closed = 1;
nodes = (
"454 498 LINE",
"442 416 LINE",
"447 418 LINE",
"426 470 OFFCURVE",
"370 507 OFFCURVE",
"301 507 CURVE SMOOTH",
"158 507 OFFCURVE",
"60 391 OFFCURVE",
"60 225 CURVE SMOOTH",
"60 88 OFFCURVE",
"130 -8 OFFCURVE",
"256 -8 CURVE SMOOTH",
"352 -8 OFFCURVE",
"426 60 OFFCURVE",
"456 164 CURVE",
"438 178 LINE",
"433 0 LINE",
"513 0 LINE",
"513 498 LINE"
);
},
{
closed = 1;
nodes = (
"385 436 OFFCURVE",
"436 379 OFFCURVE",
"436 284 CURVE SMOOTH",
"436 155 OFFCURVE",
"364 63 OFFCURVE",
"267 63 CURVE SMOOTH",
"189 63 OFFCURVE",
"141 126 OFFCURVE",
"141 231 CURVE SMOOTH",
"141 355 OFFCURVE",
"205 436 OFFCURVE",
"303 436 CURVE SMOOTH"
);
}
);
};
layerId = "A3B50665-EA37-4AC6-885C-1233CA61B6BD";
paths = (
{
closed = 1;
nodes = (
"435 740 LINE",
"435 498 LINE",
"437 407 LINE",
"447 418 LINE",
"426 470 OFFCURVE",
"370 507 OFFCURVE",
"301 507 CURVE SMOOTH",
"158 507 OFFCURVE",
"60 391 OFFCURVE",
"60 225 CURVE SMOOTH",
"60 88 OFFCURVE",
"130 -8 OFFCURVE",
"256 -8 CURVE SMOOTH",
"352 -8 OFFCURVE",
"426 60 OFFCURVE",
"456 164 CURVE",
"438 178 LINE",
"433 0 LINE",
"513 0 LINE",
"513 740 LINE"
);
},
{
closed = 1;
nodes = (
"385 436 OFFCURVE",
"436 379 OFFCURVE",
"436 284 CURVE SMOOTH",
"436 155 OFFCURVE",
"364 63 OFFCURVE",
"267 63 CURVE SMOOTH",
"189 63 OFFCURVE",
"141 126 OFFCURVE",
"141 231 CURVE SMOOTH",
"141 355 OFFCURVE",
"205 436 OFFCURVE",
"303 436 CURVE SMOOTH"
);
}
);
width = 596;
},
{
anchors = (
{
name = bottom;
position = "{330, 0}";
},
{
name = center;
position = "{314, 254}";
},
{
name = stroke;
position = "{434, 628}";
},
{
name = top;
position = "{314, 740}";
},
{
name = topright;
position = "{599, 740}";
}
);
background = {
anchors = (
{
name = bottom;
position = "{314, 0}";
},
{
name = center;
position = "{314, 254}";
},
{
name = stroke;
position = "{434, 628}";
},
{
name = top;
position = "{314, 740}";
},
{
name = topright;
position = "{599, 740}";
}
);
paths = (
{
closed = 1;
nodes = (
"1318 740 LINE",
"1318 508 LINE",
"1322 418 LINE",
"1351 442 LINE",
"1326 485 OFFCURVE",
"1270 516 OFFCURVE",
"1201 516 CURVE SMOOTH",
"1053 516 OFFCURVE",
"940 402 OFFCURVE",
"940 232 CURVE SMOOTH",
"940 92 OFFCURVE",
"1015 -10 OFFCURVE",
"1155 -10 CURVE SMOOTH",
"1257 -10 OFFCURVE",
"1328 49 OFFCURVE",
"1356 155 CURVE",
"1327 179 LINE",
"1317 0 LINE",
"1464 0 LINE",
"1464 740 LINE"
);
},
{
closed = 1;
nodes = (
"1279 389 OFFCURVE",
"1318 346 OFFCURVE",
"1318 276 CURVE SMOOTH",
"1318 182 OFFCURVE",
"1263 118 OFFCURVE",
"1191 118 CURVE SMOOTH",
"1133 118 OFFCURVE",
"1095 161 OFFCURVE",
"1095 237 CURVE SMOOTH",
"1095 326 OFFCURVE",
"1142 389 OFFCURVE",
"1218 389 CURVE SMOOTH"
);
},
{
closed = 1;
nodes = (
"459 506 LINE",
"441 422 LINE",
"451 435 LINE",
"426 484 OFFCURVE",
"373 516 OFFCURVE",
"305 516 CURVE SMOOTH",
"159 516 OFFCURVE",
"45 402 OFFCURVE",
"45 232 CURVE SMOOTH",
"45 92 OFFCURVE",
"120 -10 OFFCURVE",
"257 -10 CURVE SMOOTH",
"358 -10 OFFCURVE",
"427 49 OFFCURVE",
"455 155 CURVE",
"427 179 LINE",
"417 0 LINE",
"564 0 LINE",
"564 506 LINE"
);
},
{
closed = 1;
nodes = (
"379 389 OFFCURVE",
"418 346 OFFCURVE",
"418 276 CURVE SMOOTH",
"418 182 OFFCURVE",
"361 117 OFFCURVE",
"289 117 CURVE SMOOTH",
"231 117 OFFCURVE",
"195 161 OFFCURVE",
"195 237 CURVE SMOOTH",
"195 326 OFFCURVE",
"242 389 OFFCURVE",
"318 389 CURVE SMOOTH"
);
}
);
};
layerId = "014D4A40-7C7F-4023-B30E-1F55CE5EA091";
paths = (
{
closed = 1;
nodes = (
"418 740 LINE",
"418 508 LINE",
"422 418 LINE",
"451 435 LINE",
"426 484 OFFCURVE",
"373 516 OFFCURVE",
"305 516 CURVE SMOOTH",
"159 516 OFFCURVE",
"45 402 OFFCURVE",
"45 232 CURVE SMOOTH",
"45 92 OFFCURVE",
"120 -10 OFFCURVE",
"257 -10 CURVE SMOOTH",
"359 -10 OFFCURVE",
"427 49 OFFCURVE",
"455 155 CURVE",
"427 179 LINE",
"417 0 LINE",
"564 0 LINE",
"564 740 LINE"
);
},
{
closed = 1;
nodes = (
"379 389 OFFCURVE",
"418 346 OFFCURVE",
"418 276 CURVE SMOOTH",
"418 182 OFFCURVE",
"361 117 OFFCURVE",
"289 117 CURVE SMOOTH",
"231 117 OFFCURVE",
"195 161 OFFCURVE",
"195 237 CURVE SMOOTH",
"195 326 OFFCURVE",
"242 389 OFFCURVE",
"318 389 CURVE SMOOTH"
);
}
);
width = 633;
}
);
leftKerningGroup = o;
leftMetricsKey = o;
note = d;
rightKerningGroup = d;
rightMetricsKey = "=|h";
unicode = 0064;
},
{
color = 4;
glyphname = eth;
lastChange = "2019-04-14 21:57:19 +0000";
layers = (
{
background = {
paths = (
{
closed = 1;
nodes = (
"423 -8 OFFCURVE",
"514 117 OFFCURVE",
"514 293 CURVE SMOOTH",
"514 523 OFFCURVE",
"408 675 OFFCURVE",
"188 752 CURVE",
"162 691 LINE",
"339 629 OFFCURVE",
"428 508 OFFCURVE",
"436 334 CURVE",
"458 324 LINE",
"444 416 OFFCURVE",
"374 470 OFFCURVE",
"283 470 CURVE SMOOTH",
"157 470 OFFCURVE",
"56 364 OFFCURVE",
"56 218 CURVE SMOOTH",
"56 79 OFFCURVE",
"141 -8 OFFCURVE",
"275 -8 CURVE SMOOTH"
);
},
{
closed = 1;
nodes = (
"184 63 OFFCURVE",
"136 124 OFFCURVE",
"136 218 CURVE SMOOTH",
"136 329 OFFCURVE",
"205 401 OFFCURVE",
"293 401 CURVE SMOOTH",
"379 401 OFFCURVE",
"431 342 OFFCURVE",
"431 241 CURVE SMOOTH",
"431 138 OFFCURVE",
"365 63 OFFCURVE",
"280 63 CURVE SMOOTH"
);
},
{
closed = 1;
nodes = (
"496 653 LINE",
"477 702 LINE",
"143 574 LINE",
"162 525 LINE"
);
}
);
};
layerId = "A3B50665-EA37-4AC6-885C-1233CA61B6BD";
paths = (
{
closed = 1;
nodes = (
"423 -8 OFFCURVE",
"514 117 OFFCURVE",
"514 283 CURVE SMOOTH",
"514 523 OFFCURVE",
"408 675 OFFCURVE",
"188 752 CURVE",
"162 691 LINE",
"334 632 OFFCURVE",
"426 508 OFFCURVE",
"434 334 CURVE",
"458 324 LINE",
"444 416 OFFCURVE",
"374 470 OFFCURVE",
"283 470 CURVE SMOOTH",
"157 470 OFFCURVE",
"56 364 OFFCURVE",
"56 218 CURVE SMOOTH",
"56 79 OFFCURVE",
"141 -8 OFFCURVE",
"275 -8 CURVE SMOOTH"
);
},
{
closed = 1;
nodes = (
"184 63 OFFCURVE",
"136 124 OFFCURVE",
"136 218 CURVE SMOOTH",
"136 329 OFFCURVE",
"205 401 OFFCURVE",
"293 401 CURVE SMOOTH",
"379 401 OFFCURVE",
"431 342 OFFCURVE",
"431 241 CURVE SMOOTH",
"431 138 OFFCURVE",
"365 63 OFFCURVE",
"280 63 CURVE SMOOTH"
);
},
{
closed = 1;
nodes = (
"494 654 LINE",
"477 702 LINE",
"143 574 LINE",
"160 526 LINE"
);
}
);
width = 567;
},
{
background = {
paths = (
{
closed = 1;
nodes = (
"475 -10 OFFCURVE",
"579 125 OFFCURVE",
"579 307 CURVE SMOOTH",
"579 522 OFFCURVE",
"439 688 OFFCURVE",
"198 756 CURVE",
"151 648 LINE",
"315 603 OFFCURVE",
"418 494 OFFCURVE",
"432 356 CURVE",
"472 331 LINE",
"443 426 OFFCURVE",
"380 470 OFFCURVE",
"286 470 CURVE SMOOTH",
"144 470 OFFCURVE",
"39 367 OFFCURVE",
"39 223 CURVE SMOOTH",
"39 82 OFFCURVE",
"134 -10 OFFCURVE",
"294 -10 CURVE SMOOTH"
);
},
{
closed = 1;
nodes = (
"232 115 OFFCURVE",
"190 158 OFFCURVE",
"190 224 CURVE SMOOTH",
"190 301 OFFCURVE",
"239 350 OFFCURVE",
"311 350 CURVE SMOOTH",
"379 350 OFFCURVE",
"420 308 OFFCURVE",
"420 242 CURVE SMOOTH",
"420 174 OFFCURVE",
"372 115 OFFCURVE",
"300 115 CURVE SMOOTH"
);
},
{
closed = 1;
nodes = (
"565 600 LINE",
"545 680 LINE",
"145 571 LINE",
"165 491 LINE"
);
}
);
};
layerId = "014D4A40-7C7F-4023-B30E-1F55CE5EA091";
paths = (
{
closed = 1;
nodes = (
"465 -10 OFFCURVE",
"579 122 OFFCURVE",
"579 307 CURVE SMOOTH",
"579 522 OFFCURVE",
"439 688 OFFCURVE",
"198 756 CURVE",
"151 648 LINE",
"315 603 OFFCURVE",
"418 494 OFFCURVE",
"432 356 CURVE",
"477 331 LINE",
"448 426 OFFCURVE",
"380 470 OFFCURVE",
"286 470 CURVE SMOOTH",
"146 470 OFFCURVE",
"39 367 OFFCURVE",
"39 223 CURVE SMOOTH",
"39 82 OFFCURVE",
"137 -10 OFFCURVE",
"294 -10 CURVE SMOOTH"
);
},
{
closed = 1;
nodes = (
"232 117 OFFCURVE",
"190 158 OFFCURVE",
"190 224 CURVE SMOOTH",
"190 301 OFFCURVE",
"239 349 OFFCURVE",
"311 349 CURVE SMOOTH",
"381 349 OFFCURVE",
"422 308 OFFCURVE",
"422 242 CURVE SMOOTH",
"422 174 OFFCURVE",
"374 117 OFFCURVE",
"300 117 CURVE SMOOTH"
);
},
{
closed = 1;
nodes = (
"565 590 LINE",
"546 673 LINE",
"143 578 LINE",
"162 495 LINE"
);
}
);
width = 615;
}
);
leftKerningGroup = o;
rightKerningGroup = eth;
unicode = 00F0;
},
{
color = 9;
glyphname = e;
lastChange = "2019-04-14 21:58:02 +0000";
layers = (
{
anchors = (
{
name = bottom;
position = "{297, 0}";
},
{
name = ogonek;
position = "{415, 0}";
},
{
name = top;
position = "{297, 498}";
}
);
background = {
anchors = (
{
name = bottom;
position = "{276, 0}";
},
{
name = ogonek;
position = "{415, 0}";
},
{
name = top;
position = "{292, 498}";
}
);
paths = (
{
closed = 1;
nodes = (
"391 -8 OFFCURVE",
"455 24 OFFCURVE",
"500 89 CURVE",
"449 134 LINE",
"414 86 OFFCURVE",
"364 64 OFFCURVE",
"311 64 CURVE SMOOTH",
"203 64 OFFCURVE",
"140 123 OFFCURVE",
"139 231 CURVE SMOOTH",
"139 258 LINE SMOOTH",
"138 359 OFFCURVE",
"201 443 OFFCURVE",
"297 443 CURVE SMOOTH",
"380 443 OFFCURVE",
"439 391 OFFCURVE",
"429 272 CURVE",
"449 284 LINE",
"115 284 LINE",
"115 222 LINE",
"497 222 LINE",
"518 410 OFFCURVE",
"436 507 OFFCURVE",
"298 507 CURVE SMOOTH",
"160 507 OFFCURVE",
"60 400 OFFCURVE",
"60 242 CURVE SMOOTH",
"60 85 OFFCURVE",
"153 -8 OFFCURVE",
"308 -8 CURVE SMOOTH"
);
}
);
};
layerId = "A3B50665-EA37-4AC6-885C-1233CA61B6BD";
paths = (
{
closed = 1;
nodes = (
"391 -8 OFFCURVE",
"454 24 OFFCURVE",
"500 89 CURVE",
"451 134 LINE",
"416 86 OFFCURVE",
"366 63 OFFCURVE",
"313 63 CURVE SMOOTH",
"202 63 OFFCURVE",
"140 123 OFFCURVE",
"140 231 CURVE SMOOTH",
"140 258 LINE SMOOTH",
"140 359 OFFCURVE",
"201 444 OFFCURVE",
"299 444 CURVE SMOOTH",
"380 444 OFFCURVE",
"437 394 OFFCURVE",
"427 272 CURVE",
"449 284 LINE",
"115 284 LINE",
"115 222 LINE",
"497 222 LINE",
"518 410 OFFCURVE",
"436 507 OFFCURVE",
"298 507 CURVE SMOOTH",
"162 507 OFFCURVE",
"60 397 OFFCURVE",
"60 242 CURVE SMOOTH",
"60 85 OFFCURVE",
"154 -8 OFFCURVE",
"308 -8 CURVE SMOOTH"
);
}
);
width = 552;
},
{
anchors = (
{
name = bottom;
position = "{300, 0}";
},
{
name = ogonek;
position = "{442, 0}";
},
{
name = top;
position = "{300, 508}";
}
);
background = {
anchors = (
{
name = bottom;
position = "{284, 0}";
},
{
name = ogonek;
position = "{442, 0}";
},
{
name = top;
position = "{298, 508}";
}
);
paths = (
{
closed = 1;
nodes = (
"417 -10 OFFCURVE",
"479 24 OFFCURVE",
"524 79 CURVE",
"441 163 LINE",
"412 131 OFFCURVE",
"367 114 OFFCURVE",
"330 114 CURVE SMOOTH",
"242 114 OFFCURVE",
"194 163 OFFCURVE",
"193 225 CURVE SMOOTH",
"193 266 LINE SMOOTH",
"192 354 OFFCURVE",
"236 409 OFFCURVE",
"305 409 CURVE SMOOTH",
"366 409 OFFCURVE",
"403 375 OFFCURVE",
"394 294 CURVE",
"426 311 LINE",
"155 311 LINE",
"155 212 LINE",
"518 212 LINE",
"541 396 OFFCURVE",
"465 516 OFFCURVE",
"302 516 CURVE SMOOTH",
"155 516 OFFCURVE",
"45 407 OFFCURVE",
"45 246 CURVE SMOOTH",
"45 85 OFFCURVE",
"151 -10 OFFCURVE",
"319 -10 CURVE SMOOTH"
);
}
);
};
layerId = "014D4A40-7C7F-4023-B30E-1F55CE5EA091";
paths = (
{
closed = 1;
nodes = (
"417 -10 OFFCURVE",
"479 24 OFFCURVE",
"524 79 CURVE",
"441 164 LINE",
"412 132 OFFCURVE",
"367 115 OFFCURVE",
"330 115 CURVE SMOOTH",
"242 115 OFFCURVE",
"192 163 OFFCURVE",
"192 225 CURVE SMOOTH",
"192 266 LINE SMOOTH",
"192 356 OFFCURVE",
"235 409 OFFCURVE",
"305 409 CURVE SMOOTH",
"366 409 OFFCURVE",
"403 375 OFFCURVE",
"395 296 CURVE",
"426 313 LINE",
"155 313 LINE",
"155 210 LINE",
"520 210 LINE",
"544 396 OFFCURVE",
"468 516 OFFCURVE",
"303 516 CURVE SMOOTH",
"156 516 OFFCURVE",
"45 407 OFFCURVE",
"45 246 CURVE SMOOTH",
"45 89 OFFCURVE",
"151 -10 OFFCURVE",
"319 -10 CURVE SMOOTH"
);
}
);
width = 568;
}
);
leftKerningGroup = o;
leftMetricsKey = o;
note = e;
rightKerningGroup = e;
unicode = 0065;
},
{
color = 9;
glyphname = eogonek;
lastChange = "2019-04-14 21:58:02 +0000";
layers = (
{
anchors = (
{
name = top;
position = "{297, 498}";
}
);
background = {
anchors = (
{
name = top;
position = "{976, 498}";
}
);
paths = (
{
closed = 1;
nodes = (
"391 -8 OFFCURVE",
"454 24 OFFCURVE",
"500 89 CURVE",
"451 134 LINE",
"416 86 OFFCURVE",
"366 63 OFFCURVE",
"313 63 CURVE SMOOTH",
"202 63 OFFCURVE",
"140 123 OFFCURVE",
"140 231 CURVE SMOOTH",
"140 258 LINE SMOOTH",
"140 359 OFFCURVE",
"201 444 OFFCURVE",
"299 444 CURVE SMOOTH",
"380 444 OFFCURVE",
"437 394 OFFCURVE",
"427 272 CURVE",
"449 284 LINE",
"115 284 LINE",
"115 222 LINE",
"497 222 LINE",
"518 410 OFFCURVE",
"436 507 OFFCURVE",
"298 507 CURVE SMOOTH",
"162 507 OFFCURVE",
"60 397 OFFCURVE",
"60 242 CURVE SMOOTH",
"60 85 OFFCURVE",
"154 -8 OFFCURVE",
"308 -8 CURVE SMOOTH"
);
}
);
};
layerId = "A3B50665-EA37-4AC6-885C-1233CA61B6BD";
paths = (
{
closed = 1;
nodes = (
"397 -223 OFFCURVE",
"436 -203 OFFCURVE",
"456 -173 CURVE",
"426 -132 LINE",
"405 -158 OFFCURVE",
"385 -170 OFFCURVE",
"363 -170 CURVE SMOOTH",
"329 -170 OFFCURVE",
"310 -150 OFFCURVE",
"310 -118 CURVE SMOOTH",
"310 -75 OFFCURVE",
"344 -34 OFFCURVE",
"429 22 CURVE SMOOTH",
"455 39 OFFCURVE",
"481 60 OFFCURVE",
"500 89 CURVE",
"451 134 LINE",
"416 86 OFFCURVE",
"366 63 OFFCURVE",
"313 63 CURVE SMOOTH",
"202 63 OFFCURVE",
"140 123 OFFCURVE",
"140 231 CURVE SMOOTH",
"140 258 LINE SMOOTH",
"140 359 OFFCURVE",
"201 444 OFFCURVE",
"299 444 CURVE SMOOTH",
"380 444 OFFCURVE",
"437 394 OFFCURVE",
"427 272 CURVE",
"449 284 LINE",
"115 284 LINE",
"115 222 LINE",
"497 222 LINE",
"518 410 OFFCURVE",
"436 507 OFFCURVE",
"298 507 CURVE SMOOTH",
"162 507 OFFCURVE",
"60 397 OFFCURVE",
"60 242 CURVE SMOOTH",
"60 85 OFFCURVE",
"153 -8 OFFCURVE",
"308 -8 CURVE SMOOTH",
"347 -8 LINE",
"347 10 LINE",
"282 -21 OFFCURVE",
"243 -73 OFFCURVE",
"243 -126 CURVE SMOOTH",
"243 -184 OFFCURVE",
"286 -223 OFFCURVE",
"358 -223 CURVE SMOOTH"
);
}
);
width = 552;
},
{
anchors = (
{
name = top;
position = "{300, 508}";
}
);
background = {
anchors = (
{
name = top;
position = "{1084, 508}";
}
);
paths = (
{
closed = 1;
nodes = (
"1229 -223 OFFCURVE",
"1275 -204 OFFCURVE",
"1298 -173 CURVE",
"1249 -103 LINE",
"1234 -122 OFFCURVE",
"1212 -134 OFFCURVE",
"1194 -134 CURVE SMOOTH",
"1166 -134 OFFCURVE",
"1150 -120 OFFCURVE",
"1150 -96 CURVE SMOOTH",
"1150 -62 OFFCURVE",
"1172 -33 OFFCURVE",
"1256 22 CURVE SMOOTH",
"1282 39 OFFCURVE",
"1306 58 OFFCURVE",
"1324 83 CURVE",
"1241 163 LINE",
"1212 131 OFFCURVE",
"1167 114 OFFCURVE",
"1130 114 CURVE SMOOTH",
"1042 114 OFFCURVE",
"994 163 OFFCURVE",
"993 225 CURVE",
"993 266 LINE",
"992 354 OFFCURVE",
"1036 410 OFFCURVE",
"1105 410 CURVE SMOOTH",
"1166 410 OFFCURVE",
"1203 375 OFFCURVE",
"1194 294 CURVE",
"1226 309 LINE",
"955 309 LINE",
"955 212 LINE",
"1318 212 LINE",
"1341 396 OFFCURVE",
"1265 516 OFFCURVE",
"1102 516 CURVE SMOOTH",
"955 516 OFFCURVE",
"845 407 OFFCURVE",
"845 246 CURVE SMOOTH",
"845 85 OFFCURVE",
"951 -10 OFFCURVE",
"1119 -10 CURVE SMOOTH",
"1143 -10 LINE",
"1117 9 LINE",
"1059 -19 OFFCURVE",
"1028 -62 OFFCURVE",
"1028 -112 CURVE SMOOTH",
"1028 -178 OFFCURVE",
"1090 -223 OFFCURVE",
"1178 -223 CURVE SMOOTH"
);
},
{
closed = 1;
nodes = (
"417 -10 OFFCURVE",
"479 24 OFFCURVE",
"524 79 CURVE",
"441 163 LINE",
"412 131 OFFCURVE",
"367 114 OFFCURVE",
"330 114 CURVE SMOOTH",
"242 114 OFFCURVE",
"192 163 OFFCURVE",
"192 225 CURVE SMOOTH",
"192 266 LINE SMOOTH",
"192 356 OFFCURVE",
"235 410 OFFCURVE",
"305 410 CURVE SMOOTH",
"366 410 OFFCURVE",
"403 375 OFFCURVE",
"395 296 CURVE",
"426 313 LINE",
"155 313 LINE",
"155 210 LINE",
"520 210 LINE",
"544 396 OFFCURVE",
"468 516 OFFCURVE",
"303 516 CURVE SMOOTH",
"156 516 OFFCURVE",
"45 407 OFFCURVE",
"45 246 CURVE SMOOTH",
"45 89 OFFCURVE",
"151 -10 OFFCURVE",
"319 -10 CURVE SMOOTH"
);
}
);
};
layerId = "014D4A40-7C7F-4023-B30E-1F55CE5EA091";
paths = (
{
closed = 1;
nodes = (
"429 -223 OFFCURVE",
"475 -204 OFFCURVE",
"498 -173 CURVE",
"449 -103 LINE",
"434 -122 OFFCURVE",
"412 -134 OFFCURVE",
"394 -134 CURVE SMOOTH",
"366 -134 OFFCURVE",
"350 -120 OFFCURVE",
"350 -96 CURVE SMOOTH",
"350 -62 OFFCURVE",
"371 -32 OFFCURVE",
"456 22 CURVE SMOOTH",
"482 39 OFFCURVE",
"506 58 OFFCURVE",
"522 81 CURVE",
"441 163 LINE",
"412 131 OFFCURVE",
"367 114 OFFCURVE",
"330 114 CURVE SMOOTH",
"242 114 OFFCURVE",
"192 163 OFFCURVE",
"192 225 CURVE SMOOTH",
"192 266 LINE SMOOTH",
"192 356 OFFCURVE",
"236 410 OFFCURVE",
"305 410 CURVE SMOOTH",
"366 410 OFFCURVE",
"403 375 OFFCURVE",
"395 296 CURVE",
"426 313 LINE",
"155 313 LINE",
"155 210 LINE",
"520 210 LINE",
"544 396 OFFCURVE",
"468 516 OFFCURVE",
"303 516 CURVE SMOOTH",
"156 516 OFFCURVE",
"45 407 OFFCURVE",
"45 246 CURVE SMOOTH",
"45 89 OFFCURVE",
"151 -10 OFFCURVE",
"319 -10 CURVE SMOOTH",
"343 -10 LINE",
"317 9 LINE",
"259 -19 OFFCURVE",
"228 -62 OFFCURVE",
"228 -112 CURVE SMOOTH",
"228 -178 OFFCURVE",
"290 -223 OFFCURVE",
"378 -223 CURVE SMOOTH"
);
}
);
width = 568;
}
);
leftKerningGroup = o;
rightKerningGroup = e;
unicode = 0119;
},
{
color = 4;
glyphname = f;
lastChange = "2019-04-14 21:58:14 +0000";
layers = (
{
background = {
paths = (
{
closed = 1;
nodes = (
"185 0 LINE",
"185 454 LINE",
"184 489 LINE",
"184 540 LINE SMOOTH",
"184 636 OFFCURVE",
"225 683 OFFCURVE",
"293 683 CURVE SMOOTH",
"346 683 OFFCURVE",
"380 655 OFFCURVE",
"384 610 CURVE",
"449 618 LINE",
"442 702 OFFCURVE",
"387 750 OFFCURVE",
"294 750 CURVE SMOOTH",
"182 750 OFFCURVE",
"107 670 OFFCURVE",
"107 532 CURVE SMOOTH",
"107 0 LINE"
);
},
{
closed = 1;
nodes = (
"8 432 LINE",
"352 432 LINE",
"352 498 LINE",
"8 498 LINE"
);
}
);
};
layerId = "A3B50665-EA37-4AC6-885C-1233CA61B6BD";
paths = (
{
closed = 1;
nodes = (
"185 0 LINE",
"185 454 LINE",
"184 489 LINE",
"184 550 LINE SMOOTH",
"184 636 OFFCURVE",
"225 683 OFFCURVE",
"293 683 CURVE SMOOTH",
"346 683 OFFCURVE",
"378 658 OFFCURVE",
"384 610 CURVE",
"450 618 LINE",
"442 702 OFFCURVE",
"387 750 OFFCURVE",
"294 750 CURVE SMOOTH",
"182 750 OFFCURVE",
"107 670 OFFCURVE",
"107 542 CURVE SMOOTH",
"107 0 LINE"
);
},
{
closed = 1;
nodes = (
"8 432 LINE",
"352 432 LINE",
"352 498 LINE",
"8 498 LINE"
);
}
);
width = 360;
},
{
background = {
paths = (
{
closed = 1;
nodes = (
"239 0 LINE",
"239 419 LINE",
"237 487 LINE",
"237 539 LINE SMOOTH",
"237 596 OFFCURVE",
"267 627 OFFCURVE",
"315 627 CURVE SMOOTH",
"347 627 OFFCURVE",
"370 611 OFFCURVE",
"374 582 CURVE",
"500 597 LINE",
"485 701 OFFCURVE",
"423 750 OFFCURVE",
"317 750 CURVE SMOOTH",
"187 750 OFFCURVE",
"93 662 OFFCURVE",
"93 525 CURVE SMOOTH",
"93 0 LINE"
);
},
{
closed = 1;
nodes = (
"-2 387 LINE",
"377 387 LINE",
"377 508 LINE",
"-2 508 LINE"
);
}
);
};
layerId = "014D4A40-7C7F-4023-B30E-1F55CE5EA091";
paths = (
{
closed = 1;
nodes = (
"239 0 LINE",
"239 419 LINE",
"237 487 LINE",
"237 539 LINE SMOOTH",
"237 596 OFFCURVE",
"266 627 OFFCURVE",
"314 627 CURVE SMOOTH",
"347 627 OFFCURVE",
"370 611 OFFCURVE",
"374 582 CURVE",
"498 597 LINE",
"484 701 OFFCURVE",
"419 750 OFFCURVE",
"317 750 CURVE SMOOTH",
"189 750 OFFCURVE",
"93 662 OFFCURVE",
"93 527 CURVE SMOOTH",
"93 0 LINE"
);
},
{
closed = 1;
nodes = (
"-2 387 LINE",
"377 387 LINE",
"377 508 LINE",
"-2 508 LINE"
);
}
);
width = 393;
}
);
leftKerningGroup = f;
rightKerningGroup = f;
unicode = 0066;
},
{
color = 4;
glyphname = g;
lastChange = "2019-04-14 21:59:19 +0000";
layers = (
{
anchors = (
{
name = bottom;
position = "{300, -200}";
},
{
name = top;
position = "{318, 498}";
}
);
background = {
anchors = (
{
name = bottom;
position = "{900, -200}";
},
{
name = top;
position = "{900, 498}";
}
);
paths = (
{
closed = 1;
nodes = (
"429 -210 OFFCURVE",
"514 -117 OFFCURVE",
"514 69 CURVE SMOOTH",
"514 498 LINE",
"439 498 LINE",
"438 181 OFFCURVE",
"366 75 OFFCURVE",
"263 75 CURVE SMOOTH",
"194 75 OFFCURVE",
"164 124 OFFCURVE",
"165 209 CURVE SMOOTH",
"168 498 LINE",
"90 498 LINE",
"87 200 LINE SMOOTH",
"86 76 OFFCURVE",
"142 2 OFFCURVE",
"244 2 CURVE SMOOTH",
"353 2 OFFCURVE",
"436 83 OFFCURVE",
"462 257 CURVE",
"444 218 LINE",
"440 58 LINE SMOOTH",
"437 -80 OFFCURVE",
"389 -139 OFFCURVE",
"262 -139 CURVE SMOOTH",
"213 -139 OFFCURVE",
"160 -127 OFFCURVE",
"116 -105 CURVE",
"95 -175 LINE",
"138 -199 OFFCURVE",
"203 -210 OFFCURVE",
"260 -210 CURVE SMOOTH"
);
}
);
};
layerId = "A3B50665-EA37-4AC6-885C-1233CA61B6BD";
paths = (
{
closed = 1;
nodes = (
"429 -210 OFFCURVE",
"517 -115 OFFCURVE",
"517 70 CURVE SMOOTH",
"517 498 LINE",
"458 498 LINE",
"446 416 LINE",
"451 418 LINE",
"430 470 OFFCURVE",
"374 507 OFFCURVE",
"303 507 CURVE SMOOTH",
"159 507 OFFCURVE",
"60 391 OFFCURVE",
"60 231 CURVE SMOOTH",
"60 96 OFFCURVE",
"129 2 OFFCURVE",
"257 2 CURVE SMOOTH",
"355 2 OFFCURVE",
"428 69 OFFCURVE",
"460 174 CURVE",
"443 188 LINE",
"440 58 LINE SMOOTH",
"437 -79 OFFCURVE",
"389 -139 OFFCURVE",
"262 -139 CURVE SMOOTH",
"213 -139 OFFCURVE",
"160 -127 OFFCURVE",
"116 -105 CURVE",
"95 -175 LINE",
"138 -199 OFFCURVE",
"203 -210 OFFCURVE",
"260 -210 CURVE SMOOTH"
);
},
{
closed = 1;
nodes = (
"388 436 OFFCURVE",
"440 381 OFFCURVE",
"440 289 CURVE SMOOTH",
"440 166 OFFCURVE",
"366 73 OFFCURVE",
"269 73 CURVE SMOOTH",
"190 73 OFFCURVE",
"141 133 OFFCURVE",
"141 237 CURVE SMOOTH",
"141 354 OFFCURVE",
"206 436 OFFCURVE",
"305 436 CURVE SMOOTH"
);
}
);
width = 600;
},
{
anchors = (
{
name = bottom;
position = "{316, -200}";
},
{
name = top;
position = "{330, 508}";
}
);
background = {
anchors = (
{
name = bottom;
position = "{1016, -200}";
},
{
name = top;
position = "{1016, 508}";
}
);
paths = (
{
closed = 1;
nodes = (
"446 -210 OFFCURVE",
"563 -114 OFFCURVE",
"563 96 CURVE SMOOTH",
"563 508 LINE",
"422 508 LINE",
"419 232 OFFCURVE",
"365 145 OFFCURVE",
"280 145 CURVE SMOOTH",
"231 145 OFFCURVE",
"211 184 OFFCURVE",
"211 245 CURVE SMOOTH",
"213 508 LINE",
"67 508 LINE",
"65 234 LINE SMOOTH",
"64 93 OFFCURVE",
"123 9 OFFCURVE",
"242 9 CURVE SMOOTH",
"355 9 OFFCURVE",
"441 95 OFFCURVE",
"466 238 CURVE",
"432 208 LINE",
"424 79 LINE SMOOTH",
"417 -32 OFFCURVE",
"376 -82 OFFCURVE",
"263 -82 CURVE SMOOTH",
"199 -82 OFFCURVE",
"149 -67 OFFCURVE",
"104 -44 CURVE",
"69 -169 LINE",
"114 -198 OFFCURVE",
"194 -210 OFFCURVE",
"255 -210 CURVE SMOOTH"
);
}
);
};
layerId = "014D4A40-7C7F-4023-B30E-1F55CE5EA091";
paths = (
{
closed = 1;
nodes = (
"446 -210 OFFCURVE",
"568 -110 OFFCURVE",
"568 96 CURVE SMOOTH",
"568 506 LINE",
"463 506 LINE",
"445 422 LINE",
"455 435 LINE",
"430 484 OFFCURVE",
"377 516 OFFCURVE",
"306 516 CURVE SMOOTH",
"155 516 OFFCURVE",
"45 401 OFFCURVE",
"45 238 CURVE SMOOTH",
"45 105 OFFCURVE",
"122 9 OFFCURVE",
"264 9 CURVE SMOOTH",
"366 9 OFFCURVE",
"432 67 OFFCURVE",
"461 174 CURVE",
"431 198 LINE",
"424 79 LINE SMOOTH",
"417 -32 OFFCURVE",
"376 -82 OFFCURVE",
"263 -82 CURVE SMOOTH",
"199 -82 OFFCURVE",
"149 -67 OFFCURVE",
"104 -44 CURVE",
"69 -169 LINE",
"114 -198 OFFCURVE",
"194 -210 OFFCURVE",
"255 -210 CURVE SMOOTH"
);
},
{
closed = 1;
nodes = (
"382 389 OFFCURVE",
"422 349 OFFCURVE",
"422 284 CURVE SMOOTH",
"422 200 OFFCURVE",
"366 136 OFFCURVE",
"293 136 CURVE SMOOTH",
"233 136 OFFCURVE",
"195 177 OFFCURVE",
"195 248 CURVE SMOOTH",
"195 330 OFFCURVE",
"243 389 OFFCURVE",
"319 389 CURVE SMOOTH"
);
}
);
width = 637;
}
);
leftKerningGroup = o;
leftMetricsKey = o;
note = g;
rightKerningGroup = u;
rightMetricsKey = "=|n";
unicode = 0067;
},
{
color = 4;
glyphname = h;
lastChange = "2019-04-14 21:59:36 +0000";
layers = (
{
anchors = (
{
name = bottom;
position = "{298, 0}";
},
{
name = stroke;
position = "{174, 624}";
},
{
name = top;
position = "{298, 710}";
}
);
background = {
anchors = (
{
name = bottom;
position = "{297, 0}";
},
{
name = stroke;
position = "{174, 624}";
},
{
name = top;
position = "{297, 740}";
}
);
paths = (
{
closed = 1;
nodes = (
"160 0 LINE",
"161 328 OFFCURVE",
"235 434 OFFCURVE",
"337 434 CURVE SMOOTH",
"407 434 OFFCURVE",
"438 385 OFFCURVE",
"437 290 CURVE SMOOTH",
"435 0 LINE",
"513 0 LINE",
"515 299 LINE SMOOTH",
"516 433 OFFCURVE",
"459 507 OFFCURVE",
"356 507 CURVE SMOOTH",
"248 507 OFFCURVE",
"170 426 OFFCURVE",
"143 282 CURVE",
"154 290 LINE",
"162 498 LINE",
"161 740 LINE",
"83 740 LINE",
"83 0 LINE"
);
}
);
};
layerId = "A3B50665-EA37-4AC6-885C-1233CA61B6BD";
paths = (
{
closed = 1;
nodes = (
"160 0 LINE",
"161 328 OFFCURVE",
"235 434 OFFCURVE",
"337 434 CURVE SMOOTH",
"407 434 OFFCURVE",
"438 385 OFFCURVE",
"437 290 CURVE SMOOTH",
"435 0 LINE",
"513 0 LINE",
"515 299 LINE SMOOTH",
"516 433 OFFCURVE",
"459 507 OFFCURVE",
"356 507 CURVE SMOOTH",
"248 507 OFFCURVE",
"170 426 OFFCURVE",
"143 282 CURVE",
"154 290 LINE",
"162 498 LINE",
"161 740 LINE",
"83 740 LINE",
"83 0 LINE"
);
}
);
width = 594;
},
{
anchors = (
{
name = bottom;
position = "{321, 0}";
},
{
name = stroke;
position = "{199, 628}";
},
{
name = top;
position = "{321, 710}";
}
);
background = {
anchors = (
{
name = bottom;
position = "{319, 0}";
},
{
name = stroke;
position = "{199, 628}";
},
{
name = top;
position = "{319, 740}";
}
);
paths = (
{
closed = 1;
nodes = (
"214 0 LINE",
"218 297 OFFCURVE",
"276 381 OFFCURVE",
"359 381 CURVE SMOOTH",
"408 381 OFFCURVE",
"430 341 OFFCURVE",
"429 270 CURVE SMOOTH",
"427 0 LINE",
"573 0 LINE",
"575 281 LINE SMOOTH",
"576 432 OFFCURVE",
"516 516 OFFCURVE",
"397 516 CURVE SMOOTH",
"284 516 OFFCURVE",
"197 431 OFFCURVE",
"172 289 CURVE",
"203 309 LINE",
"216 508 LINE",
"215 740 LINE",
"69 740 LINE",
"69 0 LINE"
);
}
);
};
layerId = "014D4A40-7C7F-4023-B30E-1F55CE5EA091";
paths = (
{
closed = 1;
nodes = (
"214 0 LINE",
"218 297 OFFCURVE",
"276 381 OFFCURVE",
"359 381 CURVE SMOOTH",
"408 381 OFFCURVE",
"430 341 OFFCURVE",
"429 270 CURVE SMOOTH",
"427 0 LINE",
"573 0 LINE",
"575 281 LINE SMOOTH",
"576 432 OFFCURVE",
"516 516 OFFCURVE",
"397 516 CURVE SMOOTH",
"284 516 OFFCURVE",
"197 431 OFFCURVE",
"172 289 CURVE",
"203 309 LINE",
"216 508 LINE",
"215 740 LINE",
"69 740 LINE",
"69 0 LINE"
);
}
);
width = 638;
}
);
leftKerningGroup = h;
leftMetricsKey = n;
note = h;
rightKerningGroup = n;
rightMetricsKey = n;
unicode = 0068;
},
{
color = 4;
glyphname = idotless;
lastChange = "2019-04-14 22:01:08 +0000";
layers = (
{
anchors = (
{
name = bottom;
position = "{122, 0}";
},
{
name = ogonek;
position = "{160, 0}";
},
{
name = top;
position = "{122, 498}";
}
);
background = {
anchors = (
{
name = bottom;
position = "{122, 0}";
},
{
name = ogonek;
position = "{160, 0}";
},
{
name = top;
position = "{122, 498}";
}
);
paths = (
{
closed = 1;
nodes = (
"83 498 LINE",
"83 0 LINE",
"160 0 LINE",
"160 498 LINE"
);
}
);
};
layerId = "A3B50665-EA37-4AC6-885C-1233CA61B6BD";
paths = (
{
closed = 1;
nodes = (
"83 498 LINE",
"83 0 LINE",
"160 0 LINE",
"160 498 LINE"
);
}
);
width = 243;
},
{
anchors = (
{
name = bottom;
position = "{142, 0}";
},
{
name = ogonek;
position = "{215, 0}";
},
{
name = top;
position = "{142, 508}";
}
);
background = {
anchors = (
{
name = bottom;
position = "{142, 0}";
},
{
name = ogonek;
position = "{215, 0}";
},
{
name = top;
position = "{142, 508}";
}
);
paths = (
{
closed = 1;
nodes = (
"69 508 LINE",
"69 0 LINE",
"215 0 LINE",
"215 508 LINE"
);
}
);
};
layerId = "014D4A40-7C7F-4023-B30E-1F55CE5EA091";
paths = (
{
closed = 1;
nodes = (
"69 508 LINE",
"69 0 LINE",
"215 0 LINE",
"215 508 LINE"
);
}
);
width = 284;
}
);
leftKerningGroup = n;
leftMetricsKey = n;
rightKerningGroup = u;
rightMetricsKey = "=|";
unicode = 0131;
},
{
color = 4;
glyphname = jdotless;
lastChange = "2019-04-14 22:04:14 +0000";
layers = (
{
anchors = (
{
name = bottom;
position = "{140, -200}";
},
{
name = top;
position = "{140, 498}";
}
);
background = {
anchors = (
{
name = bottom;
position = "{140, -200}";
},
{
name = top;
position = "{140, 498}";
}
);
paths = (
{
closed = 1;
nodes = (
"104 -210 OFFCURVE",
"178 -134 OFFCURVE",
"178 -4 CURVE SMOOTH",
"178 498 LINE",
"101 498 LINE",
"101 0 LINE SMOOTH",
"101 -87 OFFCURVE",
"68 -140 OFFCURVE",
"-14 -140 CURVE SMOOTH",
"-41 -140 OFFCURVE",
"-68 -135 OFFCURVE",
"-93 -124 CURVE",
"-111 -190 LINE",
"-86 -204 OFFCURVE",
"-48 -210 OFFCURVE",
"-12 -210 CURVE SMOOTH"
);
}
);
};
layerId = "A3B50665-EA37-4AC6-885C-1233CA61B6BD";
paths = (
{
closed = 1;
nodes = (
"104 -210 OFFCURVE",
"179 -134 OFFCURVE",
"179 -4 CURVE SMOOTH",
"179 498 LINE",
"101 498 LINE",
"101 0 LINE SMOOTH",
"101 -87 OFFCURVE",
"68 -140 OFFCURVE",
"-14 -140 CURVE SMOOTH",
"-41 -140 OFFCURVE",
"-68 -135 OFFCURVE",
"-93 -124 CURVE",
"-111 -190 LINE",
"-86 -204 OFFCURVE",
"-48 -210 OFFCURVE",
"-12 -210 CURVE SMOOTH"
);
}
);
width = 262;
},
{
anchors = (
{
name = bottom;
position = "{149, -200}";
},
{
name = top;
position = "{149, 508}";
}
);
background = {
anchors = (
{
name = bottom;
position = "{149, -200}";
},
{
name = top;
position = "{149, 508}";
}
);
paths = (
{
closed = 1;
nodes = (
"129 -200 OFFCURVE",
"222 -119 OFFCURVE",
"222 27 CURVE SMOOTH",
"222 508 LINE",
"76 508 LINE",
"76 26 LINE SMOOTH",
"76 -44 OFFCURVE",
"48 -76 OFFCURVE",
"-15 -76 CURVE SMOOTH",
"-47 -76 OFFCURVE",
"-81 -69 OFFCURVE",
"-102 -63 CURVE",
"-123 -183 LINE",
"-94 -194 OFFCURVE",
"-53 -200 OFFCURVE",
"-10 -200 CURVE SMOOTH"
);
}
);
};
layerId = "014D4A40-7C7F-4023-B30E-1F55CE5EA091";
paths = (
{
closed = 1;
nodes = (
"129 -200 OFFCURVE",
"222 -119 OFFCURVE",
"222 27 CURVE SMOOTH",
"222 508 LINE",
"76 508 LINE",
"76 26 LINE SMOOTH",
"76 -44 OFFCURVE",
"48 -76 OFFCURVE",
"-15 -76 CURVE SMOOTH",
"-47 -76 OFFCURVE",
"-81 -69 OFFCURVE",
"-102 -63 CURVE",
"-123 -183 LINE",
"-94 -194 OFFCURVE",
"-53 -200 OFFCURVE",
"-10 -200 CURVE SMOOTH"
);
}
);
width = 291;
}
);
leftKerningGroup = j;
rightKerningGroup = u;
unicode = 0237;
},
{
color = 4;
glyphname = k;
lastChange = "2019-04-14 22:02:22 +0000";
layers = (
{
anchors = (
{
name = bottom;
position = "{277, 0}";
},
{
name = top;
position = "{250, 740}";
}
);
background = {
anchors = (
{
name = bottom;
position = "{250, 0}";
},
{
name = top;
position = "{250, 740}";
}
);
paths = (
{
closed = 1;
nodes = (
"482 74 LINE",
"468 66 OFFCURVE",
"451 61 OFFCURVE",
"434 61 CURVE SMOOTH",
"397 61 OFFCURVE",
"371 73 OFFCURVE",
"334 127 CURVE SMOOTH",
"286 196 LINE SMOOTH",
"243 258 OFFCURVE",
"212 275 OFFCURVE",
"179 275 CURVE",
"209 238 LINE",
"472 497 LINE",
"374 497 LINE",
"148 273 LINE",
"120 239 LINE",
"151 239 OFFCURVE",
"175 225 OFFCURVE",
"211 173 CURVE SMOOTH",
"283 70 LINE SMOOTH",
"320 17 OFFCURVE",
"362 -6 OFFCURVE",
"421 -6 CURVE SMOOTH",
"451 -6 OFFCURVE",
"477 0 OFFCURVE",
"501 15 CURVE"
);
},
{
closed = 1;
nodes = (
"161 0 LINE",
"161 740 LINE",
"83 740 LINE",
"83 0 LINE"
);
}
);
};
guideLines = (
{
angle = 128.8201;
position = "{354, 161}";
}
);
layerId = "A3B50665-EA37-4AC6-885C-1233CA61B6BD";
paths = (
{
closed = 1;
nodes = (
"482 74 LINE",
"468 66 OFFCURVE",
"451 61 OFFCURVE",
"434 61 CURVE SMOOTH",
"397 61 OFFCURVE",
"372 73 OFFCURVE",
"344 113 CURVE SMOOTH",
"272 217 LINE SMOOTH",
"243 258 OFFCURVE",
"212 275 OFFCURVE",
"179 275 CURVE",
"209 238 LINE",
"472 497 LINE",
"374 497 LINE",
"148 273 LINE",
"120 239 LINE",
"151 239 OFFCURVE",
"175 225 OFFCURVE",
"211 173 CURVE SMOOTH",
"283 70 LINE SMOOTH",
"320 17 OFFCURVE",
"362 -6 OFFCURVE",
"421 -6 CURVE SMOOTH",
"451 -6 OFFCURVE",
"477 0 OFFCURVE",
"501 15 CURVE"
);
},
{
closed = 1;
nodes = (
"161 0 LINE",
"161 740 LINE",
"83 740 LINE",
"83 0 LINE"
);
}
);
width = 499;
},
{
anchors = (
{
name = bottom;
position = "{332, 0}";
},
{
name = top;
position = "{298, 740}";
}
);
background = {
anchors = (
{
name = bottom;
position = "{298, 0}";
},
{
name = top;
position = "{298, 740}";
}
);
paths = (
{
closed = 1;
nodes = (
"573 126 LINE",
"556 117 OFFCURVE",
"538 112 OFFCURVE",
"517 112 CURVE SMOOTH",
"480 112 OFFCURVE",
"451 128 OFFCURVE",
"430 160 CURVE SMOOTH",
"392 218 LINE SMOOTH",
"361 266 OFFCURVE",
"320 288 OFFCURVE",
"260 288 CURVE",
"330 239 LINE",
"583 508 LINE",
"407 508 LINE",
"196 284 LINE",
"153 226 LINE",
"207 226 OFFCURVE",
"232 210 OFFCURVE",
"267 155 CURVE SMOOTH",
"309 90 LINE SMOOTH",
"354 19 OFFCURVE",
"405 -8 OFFCURVE",
"489 -10 CURVE SMOOTH",
"531 -11 OFFCURVE",
"569 -3 OFFCURVE",
"605 19 CURVE"
);
},
{
closed = 1;
nodes = (
"215 0 LINE",
"215 740 LINE",
"69 740 LINE",
"69 0 LINE"
);
}
);
};
guideLines = (
{
angle = 126.1496;
position = "{423, 166}";
}
);
layerId = "014D4A40-7C7F-4023-B30E-1F55CE5EA091";
paths = (
{
closed = 1;
nodes = (
"573 126 LINE",
"556 117 OFFCURVE",
"538 112 OFFCURVE",
"517 112 CURVE SMOOTH",
"480 112 OFFCURVE",
"451 128 OFFCURVE",
"430 160 CURVE SMOOTH",
"388 225 LINE SMOOTH",
"361 266 OFFCURVE",
"320 284 OFFCURVE",
"260 284 CURVE",
"327 239 LINE",
"581 508 LINE",
"407 508 LINE",
"196 284 LINE",
"153 226 LINE",
"207 226 OFFCURVE",
"232 210 OFFCURVE",
"267 155 CURVE SMOOTH",
"309 90 LINE SMOOTH",
"354 19 OFFCURVE",
"405 -8 OFFCURVE",
"489 -10 CURVE SMOOTH",
"531 -11 OFFCURVE",
"569 -3 OFFCURVE",
"605 19 CURVE"
);
},
{
closed = 1;
nodes = (
"215 0 LINE",
"215 740 LINE",
"69 740 LINE",
"69 0 LINE"
);
}
);
width = 596;
}
);
leftKerningGroup = h;
leftMetricsKey = h;
note = k;
rightKerningGroup = k;
unicode = 006B;
},
{
color = 4;
glyphname = kgreenlandic;
lastChange = "2019-04-14 22:02:22 +0000";
layers = (
{
background = {
paths = (
{
closed = 1;
nodes = (
"161 0 LINE",
"161 498 LINE",
"83 498 LINE",
"83 0 LINE"
);
},
{
closed = 1;
nodes = (
"482 74 LINE",
"468 66 OFFCURVE",
"451 61 OFFCURVE",
"434 61 CURVE SMOOTH",
"397 61 OFFCURVE",
"371 73 OFFCURVE",
"334 127 CURVE SMOOTH",
"286 196 LINE SMOOTH",
"243 258 OFFCURVE",
"212 275 OFFCURVE",
"179 275 CURVE",
"209 238 LINE",
"472 497 LINE",
"374 497 LINE",
"148 273 LINE",
"120 239 LINE",
"151 239 OFFCURVE",
"175 225 OFFCURVE",
"211 173 CURVE SMOOTH",
"283 70 LINE SMOOTH",
"320 17 OFFCURVE",
"365 -6 OFFCURVE",
"421 -6 CURVE SMOOTH",
"451 -6 OFFCURVE",
"477 0 OFFCURVE",
"501 15 CURVE"
);
}
);
};
layerId = "A3B50665-EA37-4AC6-885C-1233CA61B6BD";
paths = (
{
closed = 1;
nodes = (
"161 0 LINE",
"161 498 LINE",
"83 498 LINE",
"83 0 LINE"
);
},
{
closed = 1;
nodes = (
"482 74 LINE",
"468 66 OFFCURVE",
"451 61 OFFCURVE",
"434 61 CURVE SMOOTH",
"397 61 OFFCURVE",
"372 73 OFFCURVE",
"344 113 CURVE SMOOTH",
"272 217 LINE SMOOTH",
"243 258 OFFCURVE",
"212 275 OFFCURVE",
"179 275 CURVE",
"209 238 LINE",
"472 497 LINE",
"374 497 LINE",
"148 273 LINE",
"120 239 LINE",
"151 239 OFFCURVE",
"175 225 OFFCURVE",
"211 173 CURVE SMOOTH",
"283 70 LINE SMOOTH",
"320 17 OFFCURVE",
"362 -6 OFFCURVE",
"421 -6 CURVE SMOOTH",
"451 -6 OFFCURVE",
"477 0 OFFCURVE",
"501 15 CURVE"
);
}
);
width = 499;
},
{
background = {
paths = (
{
closed = 1;
nodes = (
"215 0 LINE",
"215 508 LINE",
"69 508 LINE",
"69 0 LINE"
);
},
{
closed = 1;
nodes = (
"573 126 LINE",
"556 117 OFFCURVE",
"538 112 OFFCURVE",
"517 112 CURVE SMOOTH",
"480 112 OFFCURVE",
"451 128 OFFCURVE",
"430 160 CURVE SMOOTH",
"392 218 LINE SMOOTH",
"361 266 OFFCURVE",
"320 288 OFFCURVE",
"260 288 CURVE",
"330 239 LINE",
"583 508 LINE",
"407 508 LINE",
"196 284 LINE",
"153 226 LINE",
"207 226 OFFCURVE",
"232 210 OFFCURVE",
"267 155 CURVE SMOOTH",
"309 90 LINE SMOOTH",
"354 19 OFFCURVE",
"405 -8 OFFCURVE",
"489 -10 CURVE SMOOTH",
"531 -11 OFFCURVE",
"569 -3 OFFCURVE",
"605 19 CURVE"
);
}
);
};
layerId = "014D4A40-7C7F-4023-B30E-1F55CE5EA091";
paths = (
{
closed = 1;
nodes = (
"215 0 LINE",
"215 508 LINE",
"69 508 LINE",
"69 0 LINE"
);
},
{
closed = 1;
nodes = (
"573 126 LINE",
"556 117 OFFCURVE",
"538 112 OFFCURVE",
"517 112 CURVE SMOOTH",
"480 112 OFFCURVE",
"451 128 OFFCURVE",
"430 160 CURVE SMOOTH",
"388 225 LINE SMOOTH",
"361 266 OFFCURVE",
"320 284 OFFCURVE",
"260 284 CURVE",
"327 239 LINE",
"581 508 LINE",
"407 508 LINE",
"196 284 LINE",
"153 226 LINE",
"207 226 OFFCURVE",
"232 210 OFFCURVE",
"267 155 CURVE SMOOTH",
"309 90 LINE SMOOTH",
"354 19 OFFCURVE",
"405 -8 OFFCURVE",
"489 -10 CURVE SMOOTH",
"531 -11 OFFCURVE",
"569 -3 OFFCURVE",
"605 19 CURVE"
);
}
);
width = 596;
}
);
leftKerningGroup = n;
leftMetricsKey = n;
widthMetricsKey = k;
rightKerningGroup = k;
unicode = 0138;
},
{
color = 4;
glyphname = l;
lastChange = "2019-04-14 22:03:52 +0000";
layers = (
{
anchors = (
{
name = bottom;
position = "{132, 0}";
},
{
name = center;
position = "{122, 380}";
},
{
name = dotacc;
position = "{272, 410}";
},
{
name = top;
position = "{122, 710}";
},
{
name = topright;
position = "{211, 740}";
}
);
background = {
anchors = (
{
name = bottom;
position = "{143, 0}";
},
{
name = center;
position = "{122, 380}";
},
{
name = dotacc;
position = "{272, 410}";
},
{
name = top;
position = "{122, 740}";
},
{
name = topright;
position = "{211, 740}";
}
);
paths = (
{
closed = 1;
nodes = (
"239 -8 OFFCURVE",
"273 2 OFFCURVE",
"291 22 CURVE",
"270 76 LINE",
"259 69 OFFCURVE",
"238 60 OFFCURVE",
"217 60 CURVE SMOOTH",
"182 60 OFFCURVE",
"161 85 OFFCURVE",
"161 124 CURVE SMOOTH",
"161 740 LINE",
"83 740 LINE",
"83 114 LINE SMOOTH",
"83 42 OFFCURVE",
"124 -8 OFFCURVE",
"208 -8 CURVE SMOOTH"
);
}
);
};
layerId = "A3B50665-EA37-4AC6-885C-1233CA61B6BD";
paths = (
{
closed = 1;
nodes = (
"239 -8 OFFCURVE",
"272 2 OFFCURVE",
"291 17 CURVE",
"270 76 LINE",
"259 69 OFFCURVE",
"240 62 OFFCURVE",
"220 62 CURVE SMOOTH",
"178 62 OFFCURVE",
"161 85 OFFCURVE",
"161 128 CURVE SMOOTH",
"161 740 LINE",
"83 740 LINE",
"83 118 LINE SMOOTH",
"83 42 OFFCURVE",
"124 -8 OFFCURVE",
"208 -8 CURVE SMOOTH"
);
}
);
width = 285;
},
{
anchors = (
{
name = bottom;
position = "{152, 0}";
},
{
name = center;
position = "{142, 380}";
},
{
name = dotacc;
position = "{351, 435}";
},
{
name = top;
position = "{142, 710}";
},
{
name = topright;
position = "{250, 740}";
}
);
background = {
anchors = (
{
name = bottom;
position = "{163, 0}";
},
{
name = center;
position = "{142, 380}";
},
{
name = dotacc;
position = "{351, 435}";
},
{
name = top;
position = "{142, 740}";
},
{
name = topright;
position = "{250, 740}";
}
);
paths = (
{
closed = 1;
nodes = (
"271 -10 OFFCURVE",
"313 4 OFFCURVE",
"335 27 CURVE",
"300 127 LINE",
"289 119 OFFCURVE",
"275 115 OFFCURVE",
"260 115 CURVE SMOOTH",
"231 115 OFFCURVE",
"215 132 OFFCURVE",
"215 162 CURVE SMOOTH",
"215 740 LINE",
"69 740 LINE",
"69 152 LINE SMOOTH",
"69 47 OFFCURVE",
"125 -10 OFFCURVE",
"226 -10 CURVE SMOOTH"
);
}
);
};
layerId = "014D4A40-7C7F-4023-B30E-1F55CE5EA091";
paths = (
{
closed = 1;
nodes = (
"271 -10 OFFCURVE",
"313 4 OFFCURVE",
"335 22 CURVE",
"300 127 LINE",
"289 119 OFFCURVE",
"275 115 OFFCURVE",
"260 115 CURVE SMOOTH",
"231 115 OFFCURVE",
"215 132 OFFCURVE",
"215 164 CURVE SMOOTH",
"215 740 LINE",
"69 740 LINE",
"69 154 LINE SMOOTH",
"69 47 OFFCURVE",
"125 -10 OFFCURVE",
"226 -10 CURVE SMOOTH"
);
}
);
width = 325;
}
);
leftKerningGroup = h;
leftMetricsKey = h;
note = l;
rightKerningGroup = l;
unicode = 006C;
},
{
color = 4;
glyphname = m;
lastChange = "2019-04-14 22:01:08 +0000";
layers = (
{
anchors = (
{
name = bottom;
position = "{468, 0}";
},
{
name = top;
position = "{468, 498}";
}
);
background = {
anchors = (
{
name = bottom;
position = "{467, 0}";
},
{
name = top;
position = "{467, 498}";
}
);
paths = (
{
closed = 1;
nodes = (
"160 0 LINE",
"161 338 OFFCURVE",
"243 434 OFFCURVE",
"332 434 CURVE SMOOTH",
"400 434 OFFCURVE",
"429 385 OFFCURVE",
"429 290 CURVE SMOOTH",
"429 0 LINE",
"506 0 LINE",
"507 338 OFFCURVE",
"588 434 OFFCURVE",
"677 434 CURVE SMOOTH",
"745 434 OFFCURVE",
"777 385 OFFCURVE",
"776 290 CURVE SMOOTH",
"774 0 LINE",
"852 0 LINE",
"854 299 LINE SMOOTH",
"855 433 OFFCURVE",
"799 507 OFFCURVE",
"696 507 CURVE SMOOTH",
"601 507 OFFCURVE",
"513 435 OFFCURVE",
"486 294 CURVE",
"506 318 LINE",
"501 443 OFFCURVE",
"443 507 OFFCURVE",
"348 507 CURVE SMOOTH",
"254 507 OFFCURVE",
"173 435 OFFCURVE",
"143 282 CURVE",
"154 290 LINE",
"162 498 LINE",
"83 498 LINE",
"83 0 LINE"
);
}
);
};
layerId = "A3B50665-EA37-4AC6-885C-1233CA61B6BD";
paths = (
{
closed = 1;
nodes = (
"160 0 LINE",
"161 338 OFFCURVE",
"243 434 OFFCURVE",
"332 434 CURVE SMOOTH",
"400 434 OFFCURVE",
"429 385 OFFCURVE",
"429 290 CURVE SMOOTH",
"429 0 LINE",
"506 0 LINE",
"507 338 OFFCURVE",
"588 434 OFFCURVE",
"677 434 CURVE SMOOTH",
"745 434 OFFCURVE",
"777 385 OFFCURVE",
"776 290 CURVE SMOOTH",
"774 0 LINE",
"852 0 LINE",
"854 299 LINE SMOOTH",
"855 433 OFFCURVE",
"799 507 OFFCURVE",
"696 507 CURVE SMOOTH",
"601 507 OFFCURVE",
"513 435 OFFCURVE",
"486 294 CURVE",
"506 318 LINE",
"501 443 OFFCURVE",
"443 507 OFFCURVE",
"348 507 CURVE SMOOTH",
"254 507 OFFCURVE",
"173 435 OFFCURVE",
"143 282 CURVE",
"154 290 LINE",
"162 498 LINE",
"83 498 LINE",
"83 0 LINE"
);
}
);
width = 933;
},
{
anchors = (
{
name = bottom;
position = "{494, 0}";
},
{
name = top;
position = "{494, 508}";
}
);
background = {
anchors = (
{
name = bottom;
position = "{492, 0}";
},
{
name = top;
position = "{492, 508}";
}
);
paths = (
{
closed = 1;
nodes = (
"214 0 LINE",
"218 299 OFFCURVE",
"277 381 OFFCURVE",
"351 381 CURVE SMOOTH",
"400 381 OFFCURVE",
"421 341 OFFCURVE",
"421 280 CURVE SMOOTH",
"421 0 LINE",
"566 0 LINE",
"569 299 OFFCURVE",
"628 381 OFFCURVE",
"702 381 CURVE SMOOTH",
"751 381 OFFCURVE",
"774 341 OFFCURVE",
"774 280 CURVE SMOOTH",
"772 0 LINE",
"918 0 LINE",
"920 281 LINE SMOOTH",
"921 431 OFFCURVE",
"862 516 OFFCURVE",
"744 516 CURVE SMOOTH",
"649 516 OFFCURVE",
"545 452 OFFCURVE",
"522 313 CURVE",
"565 327 LINE",
"554 460 OFFCURVE",
"484 516 OFFCURVE",
"395 516 CURVE SMOOTH",
"296 516 OFFCURVE",
"202 446 OFFCURVE",
"172 289 CURVE",
"203 309 LINE",
"214 508 LINE",
"69 508 LINE",
"69 0 LINE"
);
}
);
};
layerId = "014D4A40-7C7F-4023-B30E-1F55CE5EA091";
paths = (
{
closed = 1;
nodes = (
"214 0 LINE",
"218 299 OFFCURVE",
"277 381 OFFCURVE",
"351 381 CURVE SMOOTH",
"400 381 OFFCURVE",
"421 341 OFFCURVE",
"421 280 CURVE SMOOTH",
"421 0 LINE",
"566 0 LINE",
"569 299 OFFCURVE",
"628 381 OFFCURVE",
"702 381 CURVE SMOOTH",
"751 381 OFFCURVE",
"774 341 OFFCURVE",
"774 280 CURVE SMOOTH",
"772 0 LINE",
"918 0 LINE",
"920 281 LINE SMOOTH",
"921 431 OFFCURVE",
"861 516 OFFCURVE",
"743 516 CURVE SMOOTH",
"647 516 OFFCURVE",
"543 452 OFFCURVE",
"517 313 CURVE",
"565 327 LINE",
"554 460 OFFCURVE",
"481 516 OFFCURVE",
"392 516 CURVE SMOOTH",
"293 516 OFFCURVE",
"202 453 OFFCURVE",
"170 289 CURVE",
"203 309 LINE",
"214 508 LINE",
"69 508 LINE",
"69 0 LINE"
);
}
);
width = 983;
}
);
leftKerningGroup = n;
leftMetricsKey = n;
note = m;
rightKerningGroup = n;
rightMetricsKey = n;
unicode = 006D;
},
{
color = 4;
glyphname = n;
lastChange = "2019-04-14 22:01:08 +0000";
layers = (
{
anchors = (
{
name = bottom;
position = "{298, 0}";
},
{
name = top;
position = "{297, 498}";
}
);
background = {
anchors = (
{
name = bottom;
position = "{297, 0}";
},
{
name = top;
position = "{297, 498}";
}
);
paths = (
{
closed = 1;
nodes = (
"160 0 LINE",
"161 328 OFFCURVE",
"235 434 OFFCURVE",
"337 434 CURVE SMOOTH",
"407 434 OFFCURVE",
"438 385 OFFCURVE",
"437 290 CURVE SMOOTH",
"435 0 LINE",
"513 0 LINE",
"515 299 LINE SMOOTH",
"516 433 OFFCURVE",
"459 507 OFFCURVE",
"356 507 CURVE SMOOTH",
"248 507 OFFCURVE",
"170 426 OFFCURVE",
"143 282 CURVE",
"154 290 LINE",
"162 498 LINE",
"83 498 LINE",
"83 0 LINE"
);
}
);
};
layerId = "A3B50665-EA37-4AC6-885C-1233CA61B6BD";
paths = (
{
closed = 1;
nodes = (
"160 0 LINE",
"161 328 OFFCURVE",
"235 434 OFFCURVE",
"337 434 CURVE SMOOTH",
"407 434 OFFCURVE",
"438 385 OFFCURVE",
"437 290 CURVE SMOOTH",
"435 0 LINE",
"513 0 LINE",
"515 299 LINE SMOOTH",
"516 433 OFFCURVE",
"459 507 OFFCURVE",
"356 507 CURVE SMOOTH",
"248 507 OFFCURVE",
"170 426 OFFCURVE",
"143 282 CURVE",
"154 290 LINE",
"162 498 LINE",
"83 498 LINE",
"83 0 LINE"
);
}
);
width = 594;
},
{
anchors = (
{
name = bottom;
position = "{321, 0}";
},
{
name = top;
position = "{321, 508}";
}
);
background = {
anchors = (
{
name = bottom;
position = "{319, 0}";
},
{
name = top;
position = "{319, 508}";
}
);
paths = (
{
closed = 1;
nodes = (
"214 0 LINE",
"218 297 OFFCURVE",
"276 381 OFFCURVE",
"359 381 CURVE SMOOTH",
"408 381 OFFCURVE",
"430 341 OFFCURVE",
"429 270 CURVE SMOOTH",
"427 0 LINE",
"573 0 LINE",
"575 281 LINE SMOOTH",
"576 432 OFFCURVE",
"516 516 OFFCURVE",
"397 516 CURVE SMOOTH",
"284 516 OFFCURVE",
"197 431 OFFCURVE",
"172 289 CURVE",
"203 309 LINE",
"214 508 LINE",
"69 508 LINE",
"69 0 LINE"
);
}
);
};
layerId = "014D4A40-7C7F-4023-B30E-1F55CE5EA091";
paths = (
{
closed = 1;
nodes = (
"214 0 LINE",
"218 297 OFFCURVE",
"276 381 OFFCURVE",
"359 381 CURVE SMOOTH",
"408 381 OFFCURVE",
"430 341 OFFCURVE",
"429 270 CURVE SMOOTH",
"427 0 LINE",
"573 0 LINE",
"575 281 LINE SMOOTH",
"576 432 OFFCURVE",
"516 516 OFFCURVE",
"397 516 CURVE SMOOTH",
"284 516 OFFCURVE",
"197 431 OFFCURVE",
"172 289 CURVE",
"203 309 LINE",
"214 508 LINE",
"69 508 LINE",
"69 0 LINE"
);
}
);
width = 638;
}
);
leftKerningGroup = n;
note = n;
rightKerningGroup = n;
unicode = 006E;
},
{
color = 4;
glyphname = eng;
lastChange = "2019-04-14 22:01:08 +0000";
layers = (
{
background = {
paths = (
{
closed = 1;
nodes = (
"515 299 LINE SMOOTH",
"516 433 OFFCURVE",
"459 507 OFFCURVE",
"356 507 CURVE SMOOTH",
"248 507 OFFCURVE",
"170 426 OFFCURVE",
"143 282 CURVE",
"154 290 LINE",
"162 498 LINE",
"83 498 LINE",
"83 0 LINE",
"160 0 LINE",
"161 328 OFFCURVE",
"235 434 OFFCURVE",
"337 434 CURVE SMOOTH",
"407 434 OFFCURVE",
"438 385 OFFCURVE",
"437 290 CURVE SMOOTH",
"435 -10 LINE SMOOTH",
"434 -89 OFFCURVE",
"407 -142 OFFCURVE",
"327 -142 CURVE SMOOTH",
"300 -142 OFFCURVE",
"270 -137 OFFCURVE",
"245 -127 CURVE",
"227 -191 LINE",
"252 -204 OFFCURVE",
"293 -210 OFFCURVE",
"329 -210 CURVE SMOOTH",
"443 -210 OFFCURVE",
"513 -134 OFFCURVE",
"514 -14 CURVE SMOOTH"
);
}
);
};
layerId = "A3B50665-EA37-4AC6-885C-1233CA61B6BD";
paths = (
{
closed = 1;
nodes = (
"515 299 LINE SMOOTH",
"516 433 OFFCURVE",
"459 507 OFFCURVE",
"356 507 CURVE SMOOTH",
"248 507 OFFCURVE",
"170 426 OFFCURVE",
"143 282 CURVE",
"154 290 LINE",
"162 498 LINE",
"83 498 LINE",
"83 0 LINE",
"160 0 LINE",
"161 328 OFFCURVE",
"235 434 OFFCURVE",
"337 434 CURVE SMOOTH",
"407 434 OFFCURVE",
"438 385 OFFCURVE",
"437 290 CURVE SMOOTH",
"435 -10 LINE SMOOTH",
"434 -89 OFFCURVE",
"407 -142 OFFCURVE",
"327 -142 CURVE SMOOTH",
"300 -142 OFFCURVE",
"270 -137 OFFCURVE",
"245 -127 CURVE",
"227 -191 LINE",
"252 -204 OFFCURVE",
"293 -210 OFFCURVE",
"329 -210 CURVE SMOOTH",
"443 -210 OFFCURVE",
"513 -134 OFFCURVE",
"514 -14 CURVE SMOOTH"
);
}
);
width = 594;
},
{
background = {
paths = (
{
closed = 1;
nodes = (
"575 281 LINE SMOOTH",
"576 432 OFFCURVE",
"516 516 OFFCURVE",
"397 516 CURVE SMOOTH",
"284 516 OFFCURVE",
"197 431 OFFCURVE",
"172 289 CURVE",
"203 309 LINE",
"214 508 LINE",
"69 508 LINE",
"69 0 LINE",
"214 0 LINE",
"218 297 OFFCURVE",
"276 381 OFFCURVE",
"359 381 CURVE SMOOTH",
"408 381 OFFCURVE",
"430 341 OFFCURVE",
"429 270 CURVE SMOOTH",
"427 26 LINE SMOOTH",
"426 -44 OFFCURVE",
"400 -80 OFFCURVE",
"344 -80 CURVE SMOOTH",
"320 -80 OFFCURVE",
"296 -77 OFFCURVE",
"277 -70 CURVE",
"252 -184 LINE",
"279 -195 OFFCURVE",
"317 -200 OFFCURVE",
"352 -200 CURVE SMOOTH",
"484 -200 OFFCURVE",
"572 -116 OFFCURVE",
"573 27 CURVE SMOOTH"
);
}
);
};
layerId = "014D4A40-7C7F-4023-B30E-1F55CE5EA091";
paths = (
{
closed = 1;
nodes = (
"575 281 LINE SMOOTH",
"576 432 OFFCURVE",
"516 516 OFFCURVE",
"397 516 CURVE SMOOTH",
"284 516 OFFCURVE",
"197 431 OFFCURVE",
"172 289 CURVE",
"203 309 LINE",
"214 508 LINE",
"69 508 LINE",
"69 0 LINE",
"214 0 LINE",
"218 297 OFFCURVE",
"276 381 OFFCURVE",
"359 381 CURVE SMOOTH",
"408 381 OFFCURVE",
"430 341 OFFCURVE",
"429 270 CURVE SMOOTH",
"427 26 LINE SMOOTH",
"426 -44 OFFCURVE",
"400 -80 OFFCURVE",
"344 -80 CURVE SMOOTH",
"320 -80 OFFCURVE",
"296 -77 OFFCURVE",
"277 -70 CURVE",
"252 -184 LINE",
"279 -195 OFFCURVE",
"317 -200 OFFCURVE",
"352 -200 CURVE SMOOTH",
"484 -200 OFFCURVE",
"572 -116 OFFCURVE",
"573 27 CURVE SMOOTH"
);
}
);
width = 638;
}
);
leftKerningGroup = n;
leftMetricsKey = n;
widthMetricsKey = n;
rightKerningGroup = n;
unicode = 014B;
},
{
color = 4;
glyphname = o;
lastChange = "2019-04-14 21:52:57 +0000";
layers = (
{
anchors = (
{
name = bottom;
position = "{293, 0}";
},
{
name = center;
position = "{293, 249}";
},
{
name = ogonek;
position = "{370, 0}";
},
{
name = top;
position = "{293, 498}";
},
{
name = topright;
position = "{427, 498}";
}
);
background = {
anchors = (
{
name = bottom;
position = "{293, 0}";
},
{
name = center;
position = "{293, 249}";
},
{
name = ogonek;
position = "{370, 0}";
},
{
name = top;
position = "{293, 498}";
},
{
name = topright;
position = "{427, 498}";
}
);
paths = (
{
closed = 1;
nodes = (
"156 507 OFFCURVE",
"61 392 OFFCURVE",
"61 240 CURVE SMOOTH",
"61 87 OFFCURVE",
"146 -8 OFFCURVE",
"287 -8 CURVE SMOOTH",
"428 -8 OFFCURVE",
"524 107 OFFCURVE",
"524 259 CURVE SMOOTH",
"524 412 OFFCURVE",
"439 507 OFFCURVE",
"301 507 CURVE SMOOTH"
);
},
{
closed = 1;
nodes = (
"195 63 OFFCURVE",
"141 126 OFFCURVE",
"141 240 CURVE SMOOTH",
"141 356 OFFCURVE",
"204 436 OFFCURVE",
"302 436 CURVE SMOOTH",
"390 436 OFFCURVE",
"444 373 OFFCURVE",
"444 259 CURVE SMOOTH",
"444 142 OFFCURVE",
"381 63 OFFCURVE",
"287 63 CURVE SMOOTH"
);
}
);
};
guideLines = (
{
angle = 90;
position = "{544, 259}";
}
);
layerId = "A3B50665-EA37-4AC6-885C-1233CA61B6BD";
paths = (
{
closed = 1;
nodes = (
"155 507 OFFCURVE",
"60 392 OFFCURVE",
"60 240 CURVE SMOOTH",
"60 87 OFFCURVE",
"145 -8 OFFCURVE",
"287 -8 CURVE SMOOTH",
"429 -8 OFFCURVE",
"525 107 OFFCURVE",
"525 259 CURVE SMOOTH",
"525 412 OFFCURVE",
"440 507 OFFCURVE",
"301 507 CURVE SMOOTH"
);
},
{
closed = 1;
nodes = (
"195 63 OFFCURVE",
"141 126 OFFCURVE",
"141 240 CURVE SMOOTH",
"141 356 OFFCURVE",
"204 436 OFFCURVE",
"302 436 CURVE SMOOTH",
"390 436 OFFCURVE",
"444 373 OFFCURVE",
"444 259 CURVE SMOOTH",
"444 142 OFFCURVE",
"381 63 OFFCURVE",
"287 63 CURVE SMOOTH"
);
}
);
width = 585;
},
{
anchors = (
{
name = bottom;
position = "{307, 0}";
},
{
name = center;
position = "{307, 254}";
},
{
name = ogonek;
position = "{403, 0}";
},
{
name = top;
position = "{307, 508}";
},
{
name = topright;
position = "{426, 508}";
}
);
background = {
anchors = (
{
name = bottom;
position = "{307, 0}";
},
{
name = center;
position = "{307, 254}";
},
{
name = ogonek;
position = "{403, 0}";
},
{
name = top;
position = "{307, 508}";
},
{
name = topright;
position = "{426, 508}";
}
);
paths = (
{
closed = 1;
nodes = (
"152 516 OFFCURVE",
"45 399 OFFCURVE",
"45 241 CURVE SMOOTH",
"45 87 OFFCURVE",
"139 -10 OFFCURVE",
"295 -10 CURVE SMOOTH",
"460 -10 OFFCURVE",
"568 107 OFFCURVE",
"568 265 CURVE SMOOTH",
"568 419 OFFCURVE",
"473 516 OFFCURVE",
"317 516 CURVE SMOOTH"
);
},
{
closed = 1;
nodes = (
"234 117 OFFCURVE",
"195 163 OFFCURVE",
"195 241 CURVE SMOOTH",
"195 331 OFFCURVE",
"241 389 OFFCURVE",
"313 389 CURVE SMOOTH",
"378 389 OFFCURVE",
"418 343 OFFCURVE",
"418 265 CURVE SMOOTH",
"418 175 OFFCURVE",
"372 117 OFFCURVE",
"302 117 CURVE SMOOTH"
);
}
);
};
guideLines = (
{
angle = 90;
position = "{598, 265}";
}
);
layerId = "014D4A40-7C7F-4023-B30E-1F55CE5EA091";
paths = (
{
closed = 1;
nodes = (
"152 516 OFFCURVE",
"45 399 OFFCURVE",
"45 241 CURVE SMOOTH",
"45 87 OFFCURVE",
"139 -10 OFFCURVE",
"295 -10 CURVE SMOOTH",
"460 -10 OFFCURVE",
"568 107 OFFCURVE",
"568 265 CURVE SMOOTH",
"568 419 OFFCURVE",
"473 516 OFFCURVE",
"317 516 CURVE SMOOTH"
);
},
{
closed = 1;
nodes = (
"234 117 OFFCURVE",
"195 163 OFFCURVE",
"195 241 CURVE SMOOTH",
"195 331 OFFCURVE",
"241 389 OFFCURVE",
"313 389 CURVE SMOOTH",
"378 389 OFFCURVE",
"418 343 OFFCURVE",
"418 265 CURVE SMOOTH",
"418 175 OFFCURVE",
"372 117 OFFCURVE",
"302 117 CURVE SMOOTH"
);
}
);
width = 613;
}
);
leftKerningGroup = o;
note = o;
rightKerningGroup = o;
rightMetricsKey = "=|";
unicode = 006F;
},
{
color = 6;
glyphname = oogonek;
lastChange = "2019-04-14 21:52:57 +0000";
layers = (
{
anchors = (
{
name = top;
position = "{293, 498}";
}
);
background = {
anchors = (
{
name = top;
position = "{993, 498}";
}
);
paths = (
{
closed = 1;
nodes = (
"1173 61 OFFCURVE",
"1224 148 OFFCURVE",
"1224 259 CURVE SMOOTH",
"1224 412 OFFCURVE",
"1139 507 OFFCURVE",
"1001 507 CURVE SMOOTH",
"856 507 OFFCURVE",
"761 392 OFFCURVE",
"761 240 CURVE SMOOTH",
"761 87 OFFCURVE",
"846 -8 OFFCURVE",
"987 -8 CURVE SMOOTH",
"1008 -8 LINE",
"1002 10 LINE",
"937 -21 OFFCURVE",
"898 -73 OFFCURVE",
"898 -126 CURVE SMOOTH",
"898 -184 OFFCURVE",
"941 -223 OFFCURVE",
"1013 -223 CURVE SMOOTH",
"1052 -223 OFFCURVE",
"1091 -203 OFFCURVE",
"1111 -173 CURVE",
"1081 -132 LINE",
"1060 -158 OFFCURVE",
"1040 -170 OFFCURVE",
"1018 -170 CURVE SMOOTH",
"984 -170 OFFCURVE",
"965 -150 OFFCURVE",
"965 -118 CURVE SMOOTH",
"965 -74 OFFCURVE",
"1002 -34 OFFCURVE",
"1099 20 CURVE SMOOTH"
);
},
{
closed = 1;
nodes = (
"841 356 OFFCURVE",
"904 436 OFFCURVE",
"1002 436 CURVE SMOOTH",
"1090 436 OFFCURVE",
"1144 373 OFFCURVE",
"1144 259 CURVE SMOOTH",
"1144 142 OFFCURVE",
"1081 63 OFFCURVE",
"987 63 CURVE SMOOTH",
"895 63 OFFCURVE",
"841 126 OFFCURVE",
"841 240 CURVE SMOOTH"
);
},
{
closed = 1;
nodes = (
"155 507 OFFCURVE",
"60 392 OFFCURVE",
"60 240 CURVE SMOOTH",
"60 87 OFFCURVE",
"145 -8 OFFCURVE",
"287 -8 CURVE SMOOTH",
"429 -8 OFFCURVE",
"525 107 OFFCURVE",
"525 259 CURVE SMOOTH",
"525 412 OFFCURVE",
"440 507 OFFCURVE",
"301 507 CURVE SMOOTH"
);
},
{
closed = 1;
nodes = (
"195 63 OFFCURVE",
"141 126 OFFCURVE",
"141 240 CURVE SMOOTH",
"141 356 OFFCURVE",
"204 436 OFFCURVE",
"302 436 CURVE SMOOTH",
"390 436 OFFCURVE",
"444 373 OFFCURVE",
"444 259 CURVE SMOOTH",
"444 142 OFFCURVE",
"381 63 OFFCURVE",
"287 63 CURVE SMOOTH"
);
}
);
};
layerId = "A3B50665-EA37-4AC6-885C-1233CA61B6BD";
paths = (
{
closed = 1;
nodes = (
"473 61 OFFCURVE",
"525 148 OFFCURVE",
"525 259 CURVE SMOOTH",
"525 412 OFFCURVE",
"440 507 OFFCURVE",
"301 507 CURVE SMOOTH",
"155 507 OFFCURVE",
"60 392 OFFCURVE",
"60 240 CURVE SMOOTH",
"60 87 OFFCURVE",
"145 -8 OFFCURVE",
"287 -8 CURVE SMOOTH",
"308 -8 LINE",
"302 10 LINE",
"237 -21 OFFCURVE",
"198 -73 OFFCURVE",
"198 -126 CURVE SMOOTH",
"198 -184 OFFCURVE",
"241 -223 OFFCURVE",
"313 -223 CURVE SMOOTH",
"352 -223 OFFCURVE",
"391 -203 OFFCURVE",
"411 -173 CURVE",
"381 -132 LINE",
"360 -158 OFFCURVE",
"340 -170 OFFCURVE",
"318 -170 CURVE SMOOTH",
"284 -170 OFFCURVE",
"265 -150 OFFCURVE",
"265 -118 CURVE SMOOTH",
"265 -74 OFFCURVE",
"302 -33 OFFCURVE",
"399 20 CURVE SMOOTH"
);
},
{
closed = 1;
nodes = (
"141 356 OFFCURVE",
"204 436 OFFCURVE",
"302 436 CURVE SMOOTH",
"390 436 OFFCURVE",
"444 373 OFFCURVE",
"444 259 CURVE SMOOTH",
"444 142 OFFCURVE",
"381 63 OFFCURVE",
"287 63 CURVE SMOOTH",
"195 63 OFFCURVE",
"141 126 OFFCURVE",
"141 240 CURVE SMOOTH"
);
}
);
width = 585;
},
{
anchors = (
{
name = top;
position = "{307, 508}";
}
);
background = {
anchors = (
{
name = top;
position = "{307, 508}";
}
);
paths = (
{
closed = 1;
nodes = (
"514 63 OFFCURVE",
"568 154 OFFCURVE",
"568 265 CURVE SMOOTH",
"568 419 OFFCURVE",
"473 516 OFFCURVE",
"317 516 CURVE SMOOTH",
"152 516 OFFCURVE",
"45 399 OFFCURVE",
"45 241 CURVE SMOOTH",
"45 87 OFFCURVE",
"139 -10 OFFCURVE",
"295 -10 CURVE SMOOTH",
"313 -10 LINE",
"282 12 LINE",
"221 -18 OFFCURVE",
"189 -61 OFFCURVE",
"189 -112 CURVE SMOOTH",
"189 -178 OFFCURVE",
"251 -223 OFFCURVE",
"339 -223 CURVE SMOOTH",
"390 -223 OFFCURVE",
"436 -204 OFFCURVE",
"459 -173 CURVE",
"410 -103 LINE",
"395 -122 OFFCURVE",
"373 -134 OFFCURVE",
"355 -134 CURVE SMOOTH",
"327 -134 OFFCURVE",
"311 -120 OFFCURVE",
"311 -96 CURVE SMOOTH",
"311 -63 OFFCURVE",
"331 -28 OFFCURVE",
"426 19 CURVE SMOOTH"
);
},
{
closed = 1;
nodes = (
"195 331 OFFCURVE",
"241 389 OFFCURVE",
"313 389 CURVE SMOOTH",
"378 389 OFFCURVE",
"418 343 OFFCURVE",
"418 265 CURVE SMOOTH",
"418 175 OFFCURVE",
"372 117 OFFCURVE",
"302 117 CURVE SMOOTH",
"234 117 OFFCURVE",
"195 163 OFFCURVE",
"195 241 CURVE SMOOTH"
);
}
);
};
layerId = "014D4A40-7C7F-4023-B30E-1F55CE5EA091";
paths = (
{
closed = 1;
nodes = (
"514 63 OFFCURVE",
"568 154 OFFCURVE",
"568 265 CURVE SMOOTH",
"568 419 OFFCURVE",
"473 516 OFFCURVE",
"317 516 CURVE SMOOTH",
"152 516 OFFCURVE",
"45 399 OFFCURVE",
"45 241 CURVE SMOOTH",
"45 87 OFFCURVE",
"139 -10 OFFCURVE",
"295 -10 CURVE SMOOTH",
"313 -10 LINE",
"282 12 LINE",
"221 -18 OFFCURVE",
"189 -61 OFFCURVE",
"189 -112 CURVE SMOOTH",
"189 -178 OFFCURVE",
"251 -223 OFFCURVE",
"339 -223 CURVE SMOOTH",
"390 -223 OFFCURVE",
"436 -204 OFFCURVE",
"459 -173 CURVE",
"410 -103 LINE",
"395 -122 OFFCURVE",
"373 -134 OFFCURVE",
"355 -134 CURVE SMOOTH",
"327 -134 OFFCURVE",
"311 -120 OFFCURVE",
"311 -96 CURVE SMOOTH",
"311 -63 OFFCURVE",
"331 -28 OFFCURVE",
"426 19 CURVE SMOOTH"
);
},
{
closed = 1;
nodes = (
"195 331 OFFCURVE",
"241 389 OFFCURVE",
"313 389 CURVE SMOOTH",
"378 389 OFFCURVE",
"418 343 OFFCURVE",
"418 265 CURVE SMOOTH",
"418 175 OFFCURVE",
"372 117 OFFCURVE",
"302 117 CURVE SMOOTH",
"234 117 OFFCURVE",
"195 163 OFFCURVE",
"195 241 CURVE SMOOTH"
);
}
);
width = 613;
}
);
leftKerningGroup = o;
leftMetricsKey = o;
widthMetricsKey = o;
rightKerningGroup = o;
unicode = 01EB;
},
{
color = 9;
glyphname = oe;
lastChange = "2019-04-14 21:58:02 +0000";
layers = (
{
anchors = (
{
name = bottom;
position = "{484, 0}";
},
{
name = top;
position = "{484, 498}";
}
);
background = {
anchors = (
{
name = bottom;
position = "{1584, 0}";
},
{
name = top;
position = "{1584, 498}";
}
);
paths = (
{
closed = 1;
nodes = (
"772 -8 OFFCURVE",
"835 24 OFFCURVE",
"881 89 CURVE",
"832 134 LINE",
"797 86 OFFCURVE",
"747 63 OFFCURVE",
"694 63 CURVE SMOOTH",
"583 63 OFFCURVE",
"521 123 OFFCURVE",
"521 231 CURVE SMOOTH",
"521 258 LINE SMOOTH",
"521 359 OFFCURVE",
"582 444 OFFCURVE",
"680 444 CURVE SMOOTH",
"761 444 OFFCURVE",
"818 394 OFFCURVE",
"808 272 CURVE",
"830 284 LINE",
"496 284 LINE",
"496 222 LINE",
"878 222 LINE",
"899 410 OFFCURVE",
"817 507 OFFCURVE",
"679 507 CURVE SMOOTH",
"543 507 OFFCURVE",
"441 397 OFFCURVE",
"441 242 CURVE SMOOTH",
"441 85 OFFCURVE",
"535 -8 OFFCURVE",
"689 -8 CURVE SMOOTH"
);
}
);
};
layerId = "A3B50665-EA37-4AC6-885C-1233CA61B6BD";
paths = (
{
closed = 1;
nodes = (
"155 507 OFFCURVE",
"60 392 OFFCURVE",
"60 240 CURVE SMOOTH",
"60 87 OFFCURVE",
"145 -8 OFFCURVE",
"287 -8 CURVE SMOOTH",
"424 -8 OFFCURVE",
"514 107 OFFCURVE",
"514 259 CURVE SMOOTH",
"514 412 OFFCURVE",
"435 507 OFFCURVE",
"298 507 CURVE SMOOTH"
);
},
{
closed = 1;
nodes = (
"195 63 OFFCURVE",
"141 126 OFFCURVE",
"141 240 CURVE SMOOTH",
"141 356 OFFCURVE",
"204 436 OFFCURVE",
"302 436 CURVE SMOOTH",
"390 436 OFFCURVE",
"444 373 OFFCURVE",
"444 259 CURVE SMOOTH",
"444 142 OFFCURVE",
"381 63 OFFCURVE",
"287 63 CURVE SMOOTH"
);
},
{
closed = 1;
nodes = (
"772 -8 OFFCURVE",
"835 24 OFFCURVE",
"881 89 CURVE",
"832 134 LINE",
"797 86 OFFCURVE",
"747 63 OFFCURVE",
"694 63 CURVE SMOOTH",
"586 63 OFFCURVE",
"524 123 OFFCURVE",
"524 231 CURVE SMOOTH",
"524 263 LINE SMOOTH",
"524 359 OFFCURVE",
"582 444 OFFCURVE",
"680 444 CURVE SMOOTH",
"761 444 OFFCURVE",
"818 394 OFFCURVE",
"808 272 CURVE",
"829 284 LINE",
"501 284 LINE",
"501 222 LINE",
"878 222 LINE",
"899 410 OFFCURVE",
"817 507 OFFCURVE",
"678 507 CURVE SMOOTH",
"556 507 OFFCURVE",
"456 400 OFFCURVE",
"456 242 CURVE SMOOTH",
"456 85 OFFCURVE",
"540 -8 OFFCURVE",
"689 -8 CURVE SMOOTH"
);
}
);
width = 933;
},
{
anchors = (
{
name = bottom;
position = "{493, 0}";
},
{
name = top;
position = "{493, 508}";
}
);
background = {
anchors = (
{
name = bottom;
position = "{1493, 0}";
},
{
name = top;
position = "{1493, 508}";
}
);
paths = (
{
closed = 1;
nodes = (
"1152 516 OFFCURVE",
"1045 399 OFFCURVE",
"1045 241 CURVE SMOOTH",
"1045 87 OFFCURVE",
"1139 -10 OFFCURVE",
"1292 -10 CURVE SMOOTH",
"1450 -10 OFFCURVE",
"1538 107 OFFCURVE",
"1538 265 CURVE SMOOTH",
"1538 419 OFFCURVE",
"1463 516 OFFCURVE",
"1307 516 CURVE SMOOTH"
);
},
{
closed = 1;
nodes = (
"1234 117 OFFCURVE",
"1195 163 OFFCURVE",
"1195 241 CURVE SMOOTH",
"1195 331 OFFCURVE",
"1241 389 OFFCURVE",
"1313 389 CURVE SMOOTH",
"1378 389 OFFCURVE",
"1418 343 OFFCURVE",
"1418 265 CURVE SMOOTH",
"1418 175 OFFCURVE",
"1372 117 OFFCURVE",
"1302 117 CURVE SMOOTH"
);
},
{
closed = 1;
nodes = (
"1791 -10 OFFCURVE",
"1853 24 OFFCURVE",
"1898 83 CURVE",
"1815 163 LINE",
"1786 131 OFFCURVE",
"1741 114 OFFCURVE",
"1704 114 CURVE SMOOTH",
"1616 114 OFFCURVE",
"1567 163 OFFCURVE",
"1567 225 CURVE SMOOTH",
"1567 266 LINE SMOOTH",
"1567 354 OFFCURVE",
"1610 410 OFFCURVE",
"1679 410 CURVE SMOOTH",
"1740 410 OFFCURVE",
"1777 375 OFFCURVE",
"1768 294 CURVE",
"1800 309 LINE",
"1529 309 LINE",
"1529 212 LINE",
"1892 212 LINE",
"1915 396 OFFCURVE",
"1839 516 OFFCURVE",
"1676 516 CURVE SMOOTH",
"1533 516 OFFCURVE",
"1444 407 OFFCURVE",
"1444 246 CURVE SMOOTH",
"1444 85 OFFCURVE",
"1529 -10 OFFCURVE",
"1693 -10 CURVE SMOOTH"
);
},
{
closed = 1;
nodes = (
"405 -10 OFFCURVE",
"475 31 OFFCURVE",
"511 114 CURVE",
"477 109 LINE",
"520 28 OFFCURVE",
"586 -10 OFFCURVE",
"689 -10 CURVE SMOOTH",
"787 -10 OFFCURVE",
"849 24 OFFCURVE",
"894 79 CURVE",
"811 163 LINE",
"782 131 OFFCURVE",
"737 114 OFFCURVE",
"700 114 CURVE SMOOTH",
"612 114 OFFCURVE",
"567 163 OFFCURVE",
"567 223 CURVE SMOOTH",
"567 270 LINE SMOOTH",
"567 356 OFFCURVE",
"605 410 OFFCURVE",
"679 410 CURVE SMOOTH",
"736 410 OFFCURVE",
"773 375 OFFCURVE",
"765 296 CURVE",
"797 313 LINE",
"539 313 LINE",
"539 210 LINE",
"890 210 LINE",
"914 396 OFFCURVE",
"838 516 OFFCURVE",
"673 516 CURVE SMOOTH",
"609 516 OFFCURVE",
"527 475 OFFCURVE",
"495 406 CURVE",
"533 394 LINE",
"504 484 OFFCURVE",
"427 516 OFFCURVE",
"341 516 CURVE SMOOTH",
"222 516 OFFCURVE",
"140 451 OFFCURVE",
"113 359 CURVE",
"239 335 LINE",
"253 375 OFFCURVE",
"283 399 OFFCURVE",
"336 399 CURVE SMOOTH",
"388 399 OFFCURVE",
"419 371 OFFCURVE",
"419 318 CURVE SMOOTH",
"419 193 LINE SMOOTH",
"419 133 OFFCURVE",
"387 101 OFFCURVE",
"330 101 CURVE SMOOTH",
"283 101 OFFCURVE",
"251 122 OFFCURVE",
"251 156 CURVE SMOOTH",
"251 190 OFFCURVE",
"274 210 OFFCURVE",
"332 210 CURVE SMOOTH",
"463 210 LINE",
"463 313 LINE",
"320 313 LINE SMOOTH",
"180 313 OFFCURVE",
"108 244 OFFCURVE",
"108 150 CURVE SMOOTH",
"108 57 OFFCURVE",
"193 -10 OFFCURVE",
"310 -10 CURVE SMOOTH"
);
}
);
};
layerId = "014D4A40-7C7F-4023-B30E-1F55CE5EA091";
paths = (
{
closed = 1;
nodes = (
"152 516 OFFCURVE",
"45 399 OFFCURVE",
"45 241 CURVE SMOOTH",
"45 87 OFFCURVE",
"139 -10 OFFCURVE",
"292 -10 CURVE SMOOTH",
"450 -10 OFFCURVE",
"540 107 OFFCURVE",
"540 265 CURVE SMOOTH",
"540 419 OFFCURVE",
"463 516 OFFCURVE",
"307 516 CURVE SMOOTH"
);
},
{
closed = 1;
nodes = (
"234 117 OFFCURVE",
"195 163 OFFCURVE",
"195 241 CURVE SMOOTH",
"195 331 OFFCURVE",
"241 389 OFFCURVE",
"313 389 CURVE SMOOTH",
"378 389 OFFCURVE",
"418 343 OFFCURVE",
"418 265 CURVE SMOOTH",
"418 175 OFFCURVE",
"372 117 OFFCURVE",
"302 117 CURVE SMOOTH"
);
},
{
closed = 1;
nodes = (
"787 -10 OFFCURVE",
"849 24 OFFCURVE",
"894 79 CURVE",
"811 163 LINE",
"782 131 OFFCURVE",
"737 114 OFFCURVE",
"700 114 CURVE SMOOTH",
"612 114 OFFCURVE",
"567 163 OFFCURVE",
"567 223 CURVE SMOOTH",
"567 270 LINE SMOOTH",
"567 356 OFFCURVE",
"605 410 OFFCURVE",
"679 410 CURVE SMOOTH",
"736 410 OFFCURVE",
"773 375 OFFCURVE",
"765 296 CURVE",
"797 313 LINE",
"539 313 LINE",
"539 210 LINE",
"890 210 LINE",
"914 396 OFFCURVE",
"838 516 OFFCURVE",
"673 516 CURVE SMOOTH",
"555 516 OFFCURVE",
"448 407 OFFCURVE",
"448 246 CURVE SMOOTH",
"448 85 OFFCURVE",
"535 -10 OFFCURVE",
"689 -10 CURVE SMOOTH"
);
}
);
width = 938;
}
);
leftKerningGroup = o;
leftMetricsKey = o;
rightKerningGroup = e;
rightMetricsKey = e;
unicode = 0153;
},
{
color = 4;
glyphname = p;
lastChange = "2019-04-14 22:05:07 +0000";
layers = (
{
anchors = (
{
name = bottom;
position = "{298, 0}";
},
{
name = top;
position = "{298, 498}";
}
);
background = {
anchors = (
{
name = bottom;
position = "{898, 0}";
},
{
name = top;
position = "{898, 498}";
}
);
paths = (
{
closed = 1;
nodes = (
"761 -200 LINE",
"761 0 LINE",
"759 90 LINE",
"751 81 LINE",
"769 29 OFFCURVE",
"826 -8 OFFCURVE",
"895 -8 CURVE SMOOTH",
"1038 -8 OFFCURVE",
"1136 108 OFFCURVE",
"1136 274 CURVE SMOOTH",
"1136 411 OFFCURVE",
"1066 507 OFFCURVE",
"940 507 CURVE SMOOTH",
"844 507 OFFCURVE",
"769 441 OFFCURVE",
"741 335 CURVE",
"757 320 LINE",
"762 498 LINE",
"683 498 LINE",
"683 -200 LINE"
);
},
{
closed = 1;
nodes = (
"811 64 OFFCURVE",
"760 121 OFFCURVE",
"760 216 CURVE SMOOTH",
"760 345 OFFCURVE",
"833 436 OFFCURVE",
"929 436 CURVE SMOOTH",
"1007 436 OFFCURVE",
"1055 374 OFFCURVE",
"1055 269 CURVE SMOOTH",
"1055 145 OFFCURVE",
"991 64 OFFCURVE",
"893 64 CURVE SMOOTH"
);
},
{
closed = 1;
nodes = (
"142 0 LINE",
"154 82 LINE",
"150 81 LINE",
"170 29 OFFCURVE",
"226 -8 OFFCURVE",
"295 -8 CURVE SMOOTH",
"438 -8 OFFCURVE",
"536 108 OFFCURVE",
"536 274 CURVE SMOOTH",
"536 411 OFFCURVE",
"466 507 OFFCURVE",
"340 507 CURVE SMOOTH",
"242 507 OFFCURVE",
"170 439 OFFCURVE",
"140 335 CURVE",
"156 321 LINE",
"161 499 LINE",
"161 740 LINE",
"83 740 LINE",
"83 0 LINE"
);
},
{
closed = 1;
nodes = (
"211 63 OFFCURVE",
"160 121 OFFCURVE",
"160 216 CURVE SMOOTH",
"160 345 OFFCURVE",
"232 436 OFFCURVE",
"329 436 CURVE SMOOTH",
"407 436 OFFCURVE",
"455 374 OFFCURVE",
"455 269 CURVE SMOOTH",
"455 145 OFFCURVE",
"391 63 OFFCURVE",
"293 63 CURVE SMOOTH"
);
}
);
};
layerId = "A3B50665-EA37-4AC6-885C-1233CA61B6BD";
paths = (
{
closed = 1;
nodes = (
"161 -200 LINE",
"161 0 LINE",
"159 90 LINE",
"150 81 LINE",
"170 29 OFFCURVE",
"226 -8 OFFCURVE",
"295 -8 CURVE SMOOTH",
"438 -8 OFFCURVE",
"536 108 OFFCURVE",
"536 274 CURVE SMOOTH",
"536 411 OFFCURVE",
"466 507 OFFCURVE",
"340 507 CURVE SMOOTH",
"242 507 OFFCURVE",
"170 439 OFFCURVE",
"140 335 CURVE",
"157 320 LINE",
"162 498 LINE",
"83 498 LINE",
"83 -200 LINE"
);
},
{
closed = 1;
nodes = (
"211 63 OFFCURVE",
"160 121 OFFCURVE",
"160 216 CURVE SMOOTH",
"160 345 OFFCURVE",
"232 436 OFFCURVE",
"329 436 CURVE SMOOTH",
"407 436 OFFCURVE",
"455 374 OFFCURVE",
"455 269 CURVE SMOOTH",
"455 145 OFFCURVE",
"391 63 OFFCURVE",
"293 63 CURVE SMOOTH"
);
}
);
width = 596;
},
{
anchors = (
{
name = bottom;
position = "{319, 0}";
},
{
name = top;
position = "{319, 508}";
}
);
background = {
anchors = (
{
name = bottom;
position = "{1019, 0}";
},
{
name = top;
position = "{1019, 508}";
}
);
paths = (
{
closed = 1;
nodes = (
"915 -200 LINE",
"915 0 LINE",
"911 90 LINE",
"894 47 LINE",
"914 21 OFFCURVE",
"963 -10 OFFCURVE",
"1032 -10 CURVE SMOOTH",
"1180 -10 OFFCURVE",
"1293 104 OFFCURVE",
"1293 274 CURVE SMOOTH",
"1293 414 OFFCURVE",
"1218 516 OFFCURVE",
"1078 516 CURVE SMOOTH",
"976 516 OFFCURVE",
"905 457 OFFCURVE",
"877 351 CURVE",
"906 329 LINE",
"916 508 LINE",
"769 508 LINE",
"769 -200 LINE"
);
},
{
closed = 1;
nodes = (
"954 118 OFFCURVE",
"915 161 OFFCURVE",
"915 231 CURVE SMOOTH",
"915 325 OFFCURVE",
"970 389 OFFCURVE",
"1042 389 CURVE SMOOTH",
"1100 389 OFFCURVE",
"1138 346 OFFCURVE",
"1138 270 CURVE SMOOTH",
"1138 181 OFFCURVE",
"1091 118 OFFCURVE",
"1015 118 CURVE SMOOTH"
);
},
{
closed = 1;
nodes = (
"174 0 LINE",
"192 84 LINE",
"182 71 LINE",
"207 22 OFFCURVE",
"260 -10 OFFCURVE",
"328 -10 CURVE SMOOTH",
"474 -10 OFFCURVE",
"588 104 OFFCURVE",
"588 274 CURVE SMOOTH",
"588 414 OFFCURVE",
"513 516 OFFCURVE",
"376 516 CURVE SMOOTH",
"274 516 OFFCURVE",
"206 457 OFFCURVE",
"178 351 CURVE",
"206 329 LINE",
"215 508 LINE",
"215 740 LINE",
"69 740 LINE",
"69 0 LINE"
);
},
{
closed = 1;
nodes = (
"254 118 OFFCURVE",
"215 161 OFFCURVE",
"215 231 CURVE SMOOTH",
"215 325 OFFCURVE",
"270 389 OFFCURVE",
"342 389 CURVE SMOOTH",
"400 389 OFFCURVE",
"438 346 OFFCURVE",
"438 270 CURVE SMOOTH",
"438 181 OFFCURVE",
"391 118 OFFCURVE",
"315 118 CURVE SMOOTH"
);
}
);
};
layerId = "014D4A40-7C7F-4023-B30E-1F55CE5EA091";
paths = (
{
closed = 1;
nodes = (
"215 -200 LINE",
"215 0 LINE",
"211 90 LINE",
"182 71 LINE",
"207 22 OFFCURVE",
"260 -10 OFFCURVE",
"328 -10 CURVE SMOOTH",
"474 -10 OFFCURVE",
"588 104 OFFCURVE",
"588 274 CURVE SMOOTH",
"588 414 OFFCURVE",
"513 516 OFFCURVE",
"376 516 CURVE SMOOTH",
"274 516 OFFCURVE",
"206 457 OFFCURVE",
"178 351 CURVE",
"206 329 LINE",
"216 508 LINE",
"69 508 LINE",
"69 -200 LINE"
);
},
{
closed = 1;
nodes = (
"254 117 OFFCURVE",
"215 161 OFFCURVE",
"215 231 CURVE SMOOTH",
"215 325 OFFCURVE",
"272 389 OFFCURVE",
"344 389 CURVE SMOOTH",
"402 389 OFFCURVE",
"438 346 OFFCURVE",
"438 270 CURVE SMOOTH",
"438 181 OFFCURVE",
"391 117 OFFCURVE",
"315 117 CURVE SMOOTH"
);
}
);
width = 633;
}
);
leftKerningGroup = n;
leftMetricsKey = n;
note = p;
rightKerningGroup = o;
rightMetricsKey = o;
unicode = 0070;
},
{
color = 4;
glyphname = thorn;
lastChange = "2019-04-14 22:05:12 +0000";
layers = (
{
background = {
paths = (
{
closed = 1;
nodes = (
"161 -200 LINE",
"161 0 LINE",
"159 90 LINE",
"150 81 LINE",
"170 29 OFFCURVE",
"226 -8 OFFCURVE",
"295 -8 CURVE SMOOTH",
"438 -8 OFFCURVE",
"536 108 OFFCURVE",
"536 274 CURVE SMOOTH",
"536 411 OFFCURVE",
"466 507 OFFCURVE",
"340 507 CURVE SMOOTH",
"242 507 OFFCURVE",
"170 439 OFFCURVE",
"140 335 CURVE",
"157 320 LINE",
"162 498 LINE",
"83 498 LINE",
"83 -200 LINE"
);
},
{
closed = 1;
nodes = (
"211 63 OFFCURVE",
"160 121 OFFCURVE",
"160 216 CURVE SMOOTH",
"160 345 OFFCURVE",
"232 436 OFFCURVE",
"329 436 CURVE SMOOTH",
"407 436 OFFCURVE",
"455 374 OFFCURVE",
"455 269 CURVE SMOOTH",
"455 145 OFFCURVE",
"391 63 OFFCURVE",
"293 63 CURVE SMOOTH"
);
}
);
};
layerId = "A3B50665-EA37-4AC6-885C-1233CA61B6BD";
paths = (
{
closed = 1;
nodes = (
"161 -200 LINE",
"161 0 LINE",
"159 90 LINE",
"150 81 LINE",
"170 29 OFFCURVE",
"226 -8 OFFCURVE",
"295 -8 CURVE SMOOTH",
"438 -8 OFFCURVE",
"536 108 OFFCURVE",
"536 274 CURVE SMOOTH",
"536 411 OFFCURVE",
"466 507 OFFCURVE",
"340 507 CURVE SMOOTH",
"242 507 OFFCURVE",
"170 439 OFFCURVE",
"140 335 CURVE",
"157 320 LINE",
"161 499 LINE",
"161 740 LINE",
"83 740 LINE",
"83 -200 LINE"
);
},
{
closed = 1;
nodes = (
"211 63 OFFCURVE",
"160 121 OFFCURVE",
"160 216 CURVE SMOOTH",
"160 345 OFFCURVE",
"232 436 OFFCURVE",
"329 436 CURVE SMOOTH",
"407 436 OFFCURVE",
"455 374 OFFCURVE",
"455 269 CURVE SMOOTH",
"455 145 OFFCURVE",
"391 63 OFFCURVE",
"293 63 CURVE SMOOTH"
);
}
);
width = 596;
},
{
background = {
paths = (
{
closed = 1;
nodes = (
"215 -200 LINE",
"215 0 LINE",
"211 90 LINE",
"182 71 LINE",
"207 22 OFFCURVE",
"260 -10 OFFCURVE",
"328 -10 CURVE SMOOTH",
"474 -10 OFFCURVE",
"588 104 OFFCURVE",
"588 274 CURVE SMOOTH",
"588 414 OFFCURVE",
"513 516 OFFCURVE",
"376 516 CURVE SMOOTH",
"274 516 OFFCURVE",
"206 457 OFFCURVE",
"178 351 CURVE",
"206 329 LINE",
"216 508 LINE",
"69 508 LINE",
"69 -200 LINE"
);
},
{
closed = 1;
nodes = (
"254 117 OFFCURVE",
"215 161 OFFCURVE",
"215 231 CURVE SMOOTH",
"215 325 OFFCURVE",
"272 389 OFFCURVE",
"344 389 CURVE SMOOTH",
"402 389 OFFCURVE",
"438 346 OFFCURVE",
"438 270 CURVE SMOOTH",
"438 181 OFFCURVE",
"391 117 OFFCURVE",
"315 117 CURVE SMOOTH"
);
}
);
};
layerId = "014D4A40-7C7F-4023-B30E-1F55CE5EA091";
paths = (
{
closed = 1;
nodes = (
"215 -200 LINE",
"215 0 LINE",
"211 90 LINE",
"182 71 LINE",
"207 22 OFFCURVE",
"260 -10 OFFCURVE",
"328 -10 CURVE SMOOTH",
"474 -10 OFFCURVE",
"588 104 OFFCURVE",
"588 274 CURVE SMOOTH",
"588 414 OFFCURVE",
"513 516 OFFCURVE",
"376 516 CURVE SMOOTH",
"274 516 OFFCURVE",
"206 457 OFFCURVE",
"178 351 CURVE",
"206 329 LINE",
"215 508 LINE",
"215 740 LINE",
"69 740 LINE",
"69 -200 LINE"
);
},
{
closed = 1;
nodes = (
"254 117 OFFCURVE",
"215 161 OFFCURVE",
"215 231 CURVE SMOOTH",
"215 325 OFFCURVE",
"272 389 OFFCURVE",
"344 389 CURVE SMOOTH",
"402 389 OFFCURVE",
"438 346 OFFCURVE",
"438 270 CURVE SMOOTH",
"438 181 OFFCURVE",
"391 117 OFFCURVE",
"315 117 CURVE SMOOTH"
);
}
);
width = 633;
}
);
leftKerningGroup = h;
leftMetricsKey = n;
widthMetricsKey = p;
rightKerningGroup = o;
unicode = 00FE;
},
{
color = 4;
glyphname = q;
lastChange = "2019-04-14 21:56:46 +0000";
layers = (
{
anchors = (
{
name = bottom;
position = "{258, 0}";
},
{
name = top;
position = "{318, 498}";
}
);
background = {
paths = (
{
closed = 1;
nodes = (
"454 498 LINE",
"442 416 LINE",
"447 418 LINE",
"426 470 OFFCURVE",
"370 507 OFFCURVE",
"301 507 CURVE SMOOTH",
"158 507 OFFCURVE",
"60 391 OFFCURVE",
"60 225 CURVE SMOOTH",
"60 88 OFFCURVE",
"130 -8 OFFCURVE",
"256 -8 CURVE SMOOTH",
"352 -8 OFFCURVE",
"426 60 OFFCURVE",
"456 164 CURVE",
"438 178 LINE",
"433 0 LINE",
"513 0 LINE",
"513 498 LINE"
);
},
{
closed = 1;
nodes = (
"385 436 OFFCURVE",
"436 379 OFFCURVE",
"436 284 CURVE SMOOTH",
"436 155 OFFCURVE",
"364 63 OFFCURVE",
"267 63 CURVE SMOOTH",
"189 63 OFFCURVE",
"141 126 OFFCURVE",
"141 231 CURVE SMOOTH",
"141 355 OFFCURVE",
"205 436 OFFCURVE",
"303 436 CURVE SMOOTH"
);
}
);
};
layerId = "A3B50665-EA37-4AC6-885C-1233CA61B6BD";
paths = (
{
closed = 1;
nodes = (
"454 498 LINE",
"442 416 LINE",
"447 418 LINE",
"426 470 OFFCURVE",
"370 507 OFFCURVE",
"301 507 CURVE SMOOTH",
"158 507 OFFCURVE",
"60 391 OFFCURVE",
"60 225 CURVE SMOOTH",
"60 88 OFFCURVE",
"130 -8 OFFCURVE",
"256 -8 CURVE SMOOTH",
"352 -8 OFFCURVE",
"426 60 OFFCURVE",
"456 164 CURVE",
"440 178 LINE",
"435 0 LINE",
"435 -200 LINE",
"513 -200 LINE",
"513 498 LINE"
);
},
{
closed = 1;
nodes = (
"385 436 OFFCURVE",
"436 379 OFFCURVE",
"436 284 CURVE SMOOTH",
"436 155 OFFCURVE",
"364 63 OFFCURVE",
"267 63 CURVE SMOOTH",
"189 63 OFFCURVE",
"141 126 OFFCURVE",
"141 231 CURVE SMOOTH",
"141 355 OFFCURVE",
"205 436 OFFCURVE",
"303 436 CURVE SMOOTH"
);
}
);
width = 596;
},
{
anchors = (
{
name = bottom;
position = "{257, 0}";
},
{
name = top;
position = "{330, 508}";
}
);
background = {
paths = (
{
closed = 1;
nodes = (
"459 506 LINE",
"441 422 LINE",
"451 435 LINE",
"426 484 OFFCURVE",
"373 516 OFFCURVE",
"305 516 CURVE SMOOTH",
"159 516 OFFCURVE",
"45 402 OFFCURVE",
"45 232 CURVE SMOOTH",
"45 92 OFFCURVE",
"120 -10 OFFCURVE",
"257 -10 CURVE SMOOTH",
"358 -10 OFFCURVE",
"427 49 OFFCURVE",
"455 155 CURVE",
"427 179 LINE",
"417 0 LINE",
"564 0 LINE",
"564 506 LINE"
);
},
{
closed = 1;
nodes = (
"379 389 OFFCURVE",
"418 346 OFFCURVE",
"418 276 CURVE SMOOTH",
"418 182 OFFCURVE",
"361 117 OFFCURVE",
"289 117 CURVE SMOOTH",
"231 117 OFFCURVE",
"195 161 OFFCURVE",
"195 237 CURVE SMOOTH",
"195 326 OFFCURVE",
"242 389 OFFCURVE",
"318 389 CURVE SMOOTH"
);
}
);
};
layerId = "014D4A40-7C7F-4023-B30E-1F55CE5EA091";
paths = (
{
closed = 1;
nodes = (
"459 506 LINE",
"441 424 LINE",
"451 435 LINE",
"426 484 OFFCURVE",
"373 516 OFFCURVE",
"305 516 CURVE SMOOTH",
"159 516 OFFCURVE",
"45 402 OFFCURVE",
"45 232 CURVE SMOOTH",
"45 92 OFFCURVE",
"120 -10 OFFCURVE",
"257 -10 CURVE SMOOTH",
"358 -10 OFFCURVE",
"427 49 OFFCURVE",
"455 155 CURVE",
"427 179 LINE",
"418 0 LINE",
"418 -200 LINE",
"564 -200 LINE",
"564 506 LINE"
);
},
{
closed = 1;
nodes = (
"379 389 OFFCURVE",
"418 346 OFFCURVE",
"418 276 CURVE SMOOTH",
"418 182 OFFCURVE",
"361 117 OFFCURVE",
"289 117 CURVE SMOOTH",
"231 117 OFFCURVE",
"195 161 OFFCURVE",
"195 237 CURVE SMOOTH",
"195 326 OFFCURVE",
"242 389 OFFCURVE",
"318 389 CURVE SMOOTH"
);
}
);
width = 633;
}
);
leftKerningGroup = o;
leftMetricsKey = o;
note = q;
rightKerningGroup = u;
rightMetricsKey = "=|n";
unicode = 0071;
},
{
color = 4;
glyphname = r;
lastChange = "2019-04-14 22:05:23 +0000";
layers = (
{
anchors = (
{
name = bottom;
position = "{122, 0}";
},
{
name = top;
position = "{231, 498}";
}
);
background = {
anchors = (
{
name = bottom;
position = "{122, 0}";
},
{
name = top;
position = "{231, 498}";
}
);
paths = (
{
closed = 1;
nodes = (
"379 500 LINE",
"368 505 OFFCURVE",
"350 507 OFFCURVE",
"330 507 CURVE SMOOTH",
"246 507 OFFCURVE",
"166 440 OFFCURVE",
"145 274 CURVE",
"154 290 LINE",
"160 498 LINE",
"82 498 LINE",
"83 320 LINE",
"83 0 LINE",
"160 0 LINE",
"160 302 OFFCURVE",
"210 429 OFFCURVE",
"327 429 CURVE SMOOTH",
"342 429 OFFCURVE",
"354 428 OFFCURVE",
"368 424 CURVE"
);
}
);
};
layerId = "A3B50665-EA37-4AC6-885C-1233CA61B6BD";
paths = (
{
closed = 1;
nodes = (
"380 500 LINE",
"369 505 OFFCURVE",
"351 507 OFFCURVE",
"330 507 CURVE SMOOTH",
"248 507 OFFCURVE",
"171 444 OFFCURVE",
"145 274 CURVE",
"154 290 LINE",
"160 498 LINE",
"82 498 LINE",
"83 320 LINE",
"83 0 LINE",
"160 0 LINE",
"160 302 OFFCURVE",
"210 429 OFFCURVE",
"326 429 CURVE SMOOTH",
"343 429 OFFCURVE",
"355 428 OFFCURVE",
"369 424 CURVE"
);
}
);
width = 382;
},
{
anchors = (
{
name = bottom;
position = "{142, 0}";
},
{
name = top;
position = "{253, 508}";
}
);
background = {
anchors = (
{
name = bottom;
position = "{142, 0}";
},
{
name = top;
position = "{253, 508}";
}
);
paths = (
{
closed = 1;
nodes = (
"437 508 LINE",
"420 515 OFFCURVE",
"401 516 OFFCURVE",
"382 516 CURVE SMOOTH",
"298 516 OFFCURVE",
"210 455 OFFCURVE",
"184 279 CURVE",
"203 289 LINE",
"213 508 LINE",
"68 508 LINE",
"69 329 LINE",
"69 0 LINE",
"214 0 LINE",
"214 273 OFFCURVE",
"254 375 OFFCURVE",
"362 375 CURVE SMOOTH",
"381 375 OFFCURVE",
"399 372 OFFCURVE",
"412 366 CURVE"
);
}
);
};
layerId = "014D4A40-7C7F-4023-B30E-1F55CE5EA091";
paths = (
{
closed = 1;
nodes = (
"437 507 LINE",
"418 514 OFFCURVE",
"399 516 OFFCURVE",
"377 516 CURVE SMOOTH",
"287 516 OFFCURVE",
"204 453 OFFCURVE",
"184 279 CURVE",
"203 289 LINE",
"213 508 LINE",
"68 508 LINE",
"69 329 LINE",
"69 0 LINE",
"214 0 LINE",
"214 273 OFFCURVE",
"254 375 OFFCURVE",
"357 375 CURVE SMOOTH",
"381 375 OFFCURVE",
"399 372 OFFCURVE",
"412 367 CURVE"
);
}
);
width = 438;
}
);
leftKerningGroup = n;
note = r;
rightKerningGroup = r;
unicode = 0072;
},
{
color = 9;
glyphname = s;
lastChange = "2019-04-14 22:05:41 +0000";
layers = (
{
anchors = (
{
name = bottom;
position = "{248, 0}";
},
{
name = top;
position = "{248, 498}";
}
);
background = {
anchors = (
{
name = bottom;
position = "{248, 0}";
},
{
name = top;
position = "{248, 498}";
}
);
paths = (
{
closed = 1;
nodes = (
"360 -8 OFFCURVE",
"436 55 OFFCURVE",
"435 140 CURVE SMOOTH",
"433 322 OFFCURVE",
"149 233 OFFCURVE",
"149 358 CURVE SMOOTH",
"149 406 OFFCURVE",
"189 439 OFFCURVE",
"252 439 CURVE SMOOTH",
"312 439 OFFCURVE",
"347 411 OFFCURVE",
"357 362 CURVE",
"424 379 LINE",
"411 458 OFFCURVE",
"347 506 OFFCURVE",
"253 506 CURVE SMOOTH",
"149 506 OFFCURVE",
"72 441 OFFCURVE",
"72 355 CURVE SMOOTH",
"72 161 OFFCURVE",
"358 250 OFFCURVE",
"358 134 CURVE SMOOTH",
"358 90 OFFCURVE",
"320 59 OFFCURVE",
"249 59 CURVE SMOOTH",
"163 59 OFFCURVE",
"121 91 OFFCURVE",
"112 156 CURVE",
"44 140 LINE",
"54 45 OFFCURVE",
"123 -8 OFFCURVE",
"249 -8 CURVE SMOOTH"
);
}
);
};
layerId = "A3B50665-EA37-4AC6-885C-1233CA61B6BD";
paths = (
{
closed = 1;
nodes = (
"360 -8 OFFCURVE",
"436 55 OFFCURVE",
"435 140 CURVE SMOOTH",
"433 322 OFFCURVE",
"149 233 OFFCURVE",
"149 358 CURVE SMOOTH",
"149 406 OFFCURVE",
"189 439 OFFCURVE",
"252 439 CURVE SMOOTH",
"312 439 OFFCURVE",
"347 411 OFFCURVE",
"357 362 CURVE",
"424 379 LINE",
"411 458 OFFCURVE",
"347 506 OFFCURVE",
"253 506 CURVE SMOOTH",
"149 506 OFFCURVE",
"72 441 OFFCURVE",
"72 355 CURVE SMOOTH",
"72 161 OFFCURVE",
"358 250 OFFCURVE",
"358 134 CURVE SMOOTH",
"358 90 OFFCURVE",
"320 59 OFFCURVE",
"249 59 CURVE SMOOTH",
"163 59 OFFCURVE",
"121 91 OFFCURVE",
"112 156 CURVE",
"44 140 LINE",
"54 45 OFFCURVE",
"123 -8 OFFCURVE",
"249 -8 CURVE SMOOTH"
);
}
);
width = 476;
},
{
anchors = (
{
name = bottom;
position = "{268, 0}";
},
{
name = top;
position = "{268, 508}";
}
);
background = {
anchors = (
{
name = bottom;
position = "{268, 0}";
},
{
name = top;
position = "{268, 508}";
}
);
paths = (
{
closed = 1;
nodes = (
"384 -10 OFFCURVE",
"476 54 OFFCURVE",
"476 152 CURVE SMOOTH",
"476 340 OFFCURVE",
"197 280 OFFCURVE",
"197 361 CURVE SMOOTH",
"197 384 OFFCURVE",
"218 404 OFFCURVE",
"265 404 CURVE SMOOTH",
"314 404 OFFCURVE",
"342 382 OFFCURVE",
"351 349 CURVE",
"466 382 LINE",
"454 458 OFFCURVE",
"379 516 OFFCURVE",
"269 516 CURVE SMOOTH",
"143 516 OFFCURVE",
"55 445 OFFCURVE",
"55 349 CURVE SMOOTH",
"55 159 OFFCURVE",
"334 221 OFFCURVE",
"334 142 CURVE SMOOTH",
"334 117 OFFCURVE",
"308 102 OFFCURVE",
"255 102 CURVE SMOOTH",
"191 102 OFFCURVE",
"155 129 OFFCURVE",
"147 171 CURVE",
"26 141 LINE",
"39 48 OFFCURVE",
"112 -10 OFFCURVE",
"258 -10 CURVE SMOOTH"
);
}
);
};
layerId = "014D4A40-7C7F-4023-B30E-1F55CE5EA091";
paths = (
{
closed = 1;
nodes = (
"384 -10 OFFCURVE",
"476 54 OFFCURVE",
"476 152 CURVE SMOOTH",
"476 342 OFFCURVE",
"197 282 OFFCURVE",
"197 361 CURVE SMOOTH",
"197 384 OFFCURVE",
"218 404 OFFCURVE",
"265 404 CURVE SMOOTH",
"314 404 OFFCURVE",
"342 382 OFFCURVE",
"351 349 CURVE",
"466 382 LINE",
"454 458 OFFCURVE",
"379 516 OFFCURVE",
"269 516 CURVE SMOOTH",
"143 516 OFFCURVE",
"55 445 OFFCURVE",
"55 349 CURVE SMOOTH",
"55 159 OFFCURVE",
"334 221 OFFCURVE",
"334 142 CURVE SMOOTH",
"334 117 OFFCURVE",
"308 102 OFFCURVE",
"255 102 CURVE SMOOTH",
"191 102 OFFCURVE",
"155 129 OFFCURVE",
"147 171 CURVE",
"26 141 LINE",
"39 48 OFFCURVE",
"112 -10 OFFCURVE",
"258 -10 CURVE SMOOTH"
);
}
);
width = 506;
}
);
leftKerningGroup = s;
note = s;
rightKerningGroup = s;
unicode = 0073;
},
